/* XPM */
static char *_f101d71ef364cc5b33674c38dea9b38mpT0WzPlZl3cJlMt[] = {
/* columns rows colors chars-per-pixel */
"80 80 213 2 ",
"   c None",
".  c #020101",
"X  c #0B0300",
"o  c #050A01",
"O  c #0B0A03",
"+  c #040409",
"@  c #0A0B0C",
"#  c #09070A",
"$  c #130100",
"%  c #110D00",
"&  c #1B0E00",
"*  c #161201",
"=  c #1B1300",
"-  c #1C1900",
";  c #15140E",
":  c #0B0612",
">  c #110F12",
",  c #0E1112",
"<  c #171714",
"1  c #231600",
"2  c #251E00",
"3  c #2A1E00",
"4  c #2C2200",
"5  c #3B361A",
"6  c #2D381A",
"7  c #2A2927",
"8  c #393A29",
"9  c #2B2F32",
"0  c #2E3233",
"q  c #363A3D",
"w  c #3C3B3B",
"e  c #353A36",
"r  c #413700",
"t  c #433900",
"y  c #4B3D00",
"u  c #503F00",
"i  c #433326",
"p  c #4A4000",
"a  c #474606",
"s  c #504000",
"d  c #5F570F",
"f  c #42501F",
"g  c #4F4919",
"h  c #6E5D0A",
"j  c #6E5B1A",
"k  c #785A1E",
"l  c #786502",
"z  c #7D7507",
"x  c #7A7519",
"c  c #41433E",
"v  c #7B7628",
"b  c #72643B",
"n  c #585958",
"m  c #625E50",
"M  c #5E6149",
"N  c #7E7B48",
"B  c #767275",
"V  c #797974",
"C  c #79797B",
"Z  c #797778",
"A  c #686264",
"S  c #837200",
"D  c #877805",
"F  c #8B7F1D",
"G  c #837A35",
"H  c #807B41",
"J  c #837E64",
"K  c #837E76",
"L  c #9A8C09",
"P  c #B49A05",
"I  c #AE9B10",
"U  c #B19D16",
"Y  c #AC970A",
"T  c #B9A607",
"R  c #BCA91E",
"E  c #90922D",
"W  c #8C8931",
"Q  c #A49528",
"!  c #BDAD23",
"~  c #B9AB39",
"^  c #CCB600",
"/  c #C9B01F",
"(  c #D4BC1C",
")  c #C2AE26",
"_  c #C4AD2D",
"`  c #C2A625",
"'  c #D5BE22",
"]  c #C4AC31",
"[  c #CCAF37",
"{  c #C9B738",
"}  c #E6CC01",
"|  c #ECCD01",
" . c #ECC70F",
".. c #E6CA09",
"X. c #EBCC0A",
"o. c #F1C601",
"O. c #F1CD02",
"+. c #F2CB09",
"@. c #ECD203",
"#. c #ECD10A",
"$. c #EFD80E",
"%. c #F1D104",
"&. c #F4D40C",
"*. c #F6D90C",
"=. c #F9D80C",
"-. c #E5CD14",
";. c #ECCB13",
":. c #E6CB1D",
">. c #E9CB1A",
",. c #E9C617",
"<. c #F1CF14",
"1. c #ECD213",
"2. c #ECD21B",
"3. c #EEDB1D",
"4. c #F6D611",
"5. c #F5D915",
"6. c #FDDC15",
"7. c #F4D61B",
"8. c #F4DB1C",
"9. c #FDDE1C",
"0. c #FED618",
"q. c #FCE316",
"w. c #FDE21D",
"e. c #F6E31A",
"r. c #DDC42B",
"t. c #DBC333",
"y. c #E9CC22",
"u. c #E6CD2A",
"i. c #E4CA27",
"p. c #EAD228",
"a. c #F6DD23",
"s. c #FDDE24",
"d. c #F6DE2A",
"f. c #FCDE2B",
"g. c #F0D52E",
"h. c #E5CD35",
"j. c #E4CC3D",
"k. c #EEDE3B",
"l. c #EDD435",
"z. c #F1D632",
"x. c #FCDE33",
"c. c #F4DD3C",
"v. c #F9DE3A",
"b. c #F5DF33",
"n. c #F6E325",
"m. c #FDE224",
"M. c #FDE32D",
"N. c #F7E32A",
"B. c #F6E235",
"V. c #FCE234",
"C. c #F4E33B",
"Z. c #FBE23B",
"A. c #FFEA3A",
"S. c #A39846",
"D. c #BDAF42",
"F. c #BEB955",
"G. c #878772",
"H. c #C5B443",
"J. c #C7B747",
"K. c #CCC04A",
"L. c #E5CC44",
"P. c #E5CC47",
"I. c #EED343",
"U. c #EDDB4B",
"Y. c #E9DA47",
"T. c #F2D742",
"R. c #FADE44",
"E. c #FBDF49",
"W. c #F1D849",
"Q. c #EFD751",
"!. c #F1D952",
"~. c #FCDE56",
"^. c #F5DC5D",
"/. c #F5E144",
"(. c #FBE343",
"). c #F4E34B",
"_. c #FEE44B",
"`. c #F4E454",
"'. c #FCE453",
"]. c #FFEB57",
"[. c #F4E25B",
"{. c #FFE35A",
"}. c #FFED5C",
"|. c #EBE255",
" X c #F6DC63",
".X c #E4DA61",
"XX c #FCE662",
"oX c #FEEB64",
"OX c #FEE56D",
"+X c #FEEC6C",
"@X c #F3E060",
"#X c #FFE770",
"$X c #FFED73",
"%X c #FFED7C",
"&X c #FFF173",
"*X c #FFF17D",
"=X c #878F8F",
"-X c #8D9590",
";X c #B6B5BA",
":X c #FFEF82",
">X c #FFEE8A",
",X c #FFF184",
"<X c #FFF48D",
"1X c #FFEE92",
"2X c #FFEE99",
"3X c #FFF295",
"4X c #FFF39B",
"5X c #FFEEAB",
"6X c #FFEFA6",
"7X c #FFF2A4",
"8X c #FFF1AA",
"9X c #FEEEB2",
"0X c #FEEEBA",
/* pixels */
"                                                                                                                                                                ",
"                                                                                                                                                                ",
"                                                                                                                                                                ",
"                                                                                                                                                                ",
"                                                                                                                                                                ",
"                                                                  @ @ @ , @ @ @ @ @ @ @ @ @ @ @ +                                                               ",
"                                                                w . . . . . . . . . . . . . . . . K                                                             ",
"                                                                8 . . . X . X . . . . . . . . . . J                                                             ",
"                                                                g 4 2 4 4 4 4 4 3 4 3 3 4 4 3 4 2 N                                                             ",
"                                                        c 7 7 5 S.D.J.J.H.H.{ H.H.H.H.H.H.H.H.J.F.v 5 7 7 n                                                     ",
"                                                        ; . . = ~ /._.c.(.(.Z.Z.Z.Z.Z.v.Z.Z.Z.).@Xx X X . 0                                                     ",
"                                                        @ . . = ! M.a.a.M.9.9.w.w.w.w.m.m.s.m.d.U.z X . . q                                                     ",
"                                                        ; . . 2 ` M.s.M.m.6.w.w.w.6.6.w.6.w.m.M.).z X . # q                                                     ",
"                                                        < . . = R M.m.M.9.w.m.6.6.&.&.&.&.6.w.N.k.z X X . 9                                                     ",
"                                                        < . . - ! M.d.d.a.m.w.6.6.@.| X.X.5.m.M./.D $ X . q                                                     ",
"                                                        * . . - ! V.N.M.M.M.a.m.6.| } X.X.8.m.d.C.S $ X X w                                                     ",
"                                                        = $ X 3 ` f.s.s.Z.v.v.x.8.| X...;.7.m.m.B.S $ $ $ i                                                     ",
"                                                      G.j h h l r.M.9.s._.{.oX].V.7.7.7.7.7.0.&.8.T l j k b G.-X=X                                              ",
"                                                . . . a K.U.).k.d.M.w.f.XX,X1X,XoXv.f.9.w.&.%.| } 3.k.U.!.~ - . . ,                                             ",
"                                                . . . p Y.N.n.8.m.9.w.V.+X3X7X4X$X_.f.m.w.@.@.| @.$.m.n.V.{ * . . +                                             ",
"                                                . . . y L.M.m.m.m.9.w.V.XX3X4X3X$X_.x.m.m.#.} | <.7.w.m.d.` = . . +                                             ",
"                                                + . . y L.V.s.9.m.a.m.V.XX<X4X4X,XXX'.(.A.2...X. .0.6.m.A.` 1 . . >                                             ",
"                                                . . X y L.x.s.m.m.m.m.V.oX<X7X8X4X>X>X%X+Xl.>.+.+.0.6.9.V.` = . . O                                             ",
"                                                . . . y I.x.s.s.s.M.9.x.+X3X8X9X8X7X7X3X*XW.,.+.o.=.w.m.Z.[ = . . .                                             ",
"                                                . . . p j.M.w.w.m.s.m.x.OX4X9X0X9X8X8X3X*XI.,.O.O.=.q.m.V._ = . . O                                             ",
"                                                . . . p j.M.w.w.m.s.m.x.OX4X9X9X8X2X1X%XoXz.X.O.O.*.q.m.V._ = . . O                                             ",
"                                                . . . y P.V.m.w.s.s.w.x.+X3X7X7X:XXX'.(.V.1.} | | 5.m.N.Z.] = . . @                                             ",
"                                                . . . y P.V.m.w.s.s.w.V.+X3X7X4X&X).B.n.e.@.@.| | 5.n.M.Z.] = . . @                                             ",
"                                                . . . y L.M.m.w.9.9.w.V.+X4X8X7X%X).b.m.e.@.@.@.| *.e.n.V._ = . . @                                             ",
"                                                . . . y L.M.w.w.w.w.w.V.#X4X5X7X%X[./.B.N.1.| | | *.e.n.V._ = . . @                                             ",
"                                                . . . y L.M.w.q.w.w.w.x.#X4X5X5X1X%X+XoX].g. .O.O.*.w.m.Z.] = . . O                                             ",
"                                                . . . y L.M.w.w.w.w.m.x.#X4X5X5X4X3X<X,X&XT.,.+.O.=.w.m.V.] = . . O                                             ",
"                                                . . . y j.m.m.s.9.m.m.v.#X4X8X8X7X4X7X3X%XI.-.| O.*.w.m.V._ = . . @                                             ",
"                                                . . . y h.m.m.m.m.m.m.v.#X4X7X7X4X3X4X3X*XT.;.| O.4.w.m.M.) = . . @                                             ",
"                                                . . . y r.5.6.6.=.*.5.z.OX4X7X7X<X%X$X+X}.z.X.O.O.4.w.m.M.) = . . @                                             ",
"                                                . . . r ' X.X.| | | | y. X4X7X4X%X[.)./.Z.2.X.O.O.4.w.m.M.) = . . @                                             ",
"                                                . . . r ' | | | | | | >. X2X6X4X$X).b.d.a.#.O.O.O.4.w.m.M.) = . . @                                             ",
"                                                . . . r ( | | | O.O.| >. X4X7X2X$X(.M.m.w.%.O.O.O.4.w.m.M.) = . . @                                             ",
"                                                . . . r ( | | | | | | ,.^.3X7X4X$XR.M.m.w.%.O.o.O.4.w.m.M.) = . . @                                             ",
"                                                . . . r ( | | | X.X.| ,.^.3X7X4X$XR.M.m.6.O.O.O.O.4.w.m.M.) = . . @ ;X                                          ",
"                                                . . . r ( | | | X.X.| -.[.3X7X4X$XE.x.m.w.%.O.O.O.4.w.m.M.) = . . @ ;X                                          ",
"                                                . . . r ( | | | X.X.| -.[.<X7X4X$XE.x.m.w.#.O.| O.4.w.m.M.) = . . @ ;X                                          ",
"                                                . . . r ( | | | | | | -.[.3X7X4X$X(.M.w.w.@.| | O.4.w.m.M.) = . . @ ;X                                          ",
"                                                . . . r ( | | | | @.| -.[.3X7X4X+X(.M.w.w.@.| | O.4.w.m.M.) = . . @ ;X                                          ",
"                                                . . . r ( | | | | @.| -.[.3X7X4X+XZ.M.w.w.@.| | O.4.w.m.M.) = . . @ ;X                                          ",
"                                                . . . r ( | | | | @.| :.@X3X7X4X+X(.f.w.w.@.| | O.4.w.m.M.) = . . @                                             ",
"                                                . . . r ( | | | O.O.| :. X4X7X4X$XR.x.m.w.@.| | O.4.w.m.M.) = . . @                                             ",
"                                                . . . r ( | | | | O.| :. X4X7X4X$XE.x.s.w.#.| | O.4.w.m.M.) = . . @                                             ",
"                                                . . . r ( | | | | | | >. X4X8X4X$XR.f.9.w.&.| | O.4.w.N.M.) = . . @                                             ",
"                                                . . . r ( | | | | | | ,. X4X8X4X$X(.f.9.w.%.| X.O.4.w.N.M.) = . . @                                             ",
"                                                . . . r ( | | | | | | ,. X3X7X4X&XR.f.6.w.&.| | O.4.w.m.M.) = . . @                                             ",
"                                                . . . r ( | | | | | | ,. X3X7X4X+Xc.s.6.6.%.| | O.4.w.m.M.) = . . @                                             ",
"                                              B . . . r ( | | | | @.| ,. X3X7X4X+Xl.<.+.%.| | | O.4.w.m.M.) = . . @                                             ",
"                                              B . . . r ( | | | | | | ,. X3X7X4X+Xu.;.| | | | | O.4.w.m.M.) = . . @                                             ",
"                                              B . . . r ( | | | | @.| ,. X3X7X4X+Xu.;.O.| | %.| O.4.w.m.M.) = . . @                                             ",
"                                              B . . . r ( | | | | | | ,. X3X7X4X+Xi.;.O.| | %.| O.4.w.m.M.) = . . @                                             ",
"                                              B . . . r ( | | | | | | ,. X3X7X4XoXu.;.O.| | | | | 4.w.m.M.) = . . +                                             ",
"                                              B . . . r ( | | | | @.| ,. X3X7X4XoXu.;.O.| | | | | 4.w.m.M.) = . . +                                             ",
"                                              B . . . r ( | | | | | | ,. X3X7X4XoXu.;.| | | | | | 4.w.m.M.) = . . +                                             ",
"                                              B . . . r ( | | | | @.| ,. X3X7X4XoXu.;.| | | | | | 4.w.m.M.) = . . +                                             ",
"                                              B . . . r ( | | | | @.| ,. X3X7X4X+Xu.;.| | | | | | &.w.m.M.) = . . +                                             ",
"                                                . . . r ( | | | | | | ,. X3X7X4X+Xu.;.| | | | | | 4.w.m.M.) = . . +                                             ",
"                                                . . . r ( | | | | | | ,. X3X7X4X+Xu.;.X.| | | | | &.w.m.M.) = . . +                                             ",
"                                                . . . r { u.y.>.| | | ,.~.,X3X<XoXh.y.>.;.X.X.| X.7.Z./.).~ * . . +                                             ",
"                                                n n m b G W F L ^ &.X.,.v._.'.`.`.).Y.U.c.p.7.1.p./ Q E E W M n n A                                             ",
"                                                        4 X % 4 T | X. .;.>.:.u.U.oX*X*X&X_.M.s.(.D & % o f                                                     ",
"                                                        % . O 1 P X.+.O.O.X...:.I.%X3X3X:X{.x.M.v.S $ O . 6                                                     ",
"                                                        ; . X & P X.X.| O.@.| >.I.*X3X1X%X~.x.M.c.D X . o 8                                                     ",
"                                                        < . X 2 I ;.| | | @.| -.l.oX%X%X+X_.M.m.C.S $ + . e                                                     ",
"                                                        > . . & I -.1.| | | | X.y.(.'.~._.Z.w.w.B.z X : + q                                                     ",
"                                                        > . . = Y ;.;.X.| | | | 4.f.x.x.f.m.q.w.C.D X + . e                                                     ",
"                                                        ; . . = U y.y.,.>.;.X. .2.d.V.Z.V.f.m.N.).z X . . e                                                     ",
"                                                        < . o - Q t.j.t.t.i.r.u.h.I.!.!.Q.U.W.U..Xv O O . e                                                     ",
"                                                                d p r y y y y y y y s u y y y y p H                                                             ",
"                                                                8 X . . . . X X X X X . . . . . X J                                                             ",
"                                                                w . + . . . . . . . . . + + + . . V                                                             ",
"                                                                w . . . + . . + . . . . . . . . +                                                               ",
"                                                                  Z Z B C Z B C Z Z V V V V Z Z C                                                               ",
"                                                                                                                                                                ",
"                                                                                                                                                                "
};
