/* XPM */
static char *_7295cc7bc8641c99bca698f72d43bdfYodJ8afX87trCkX0[] = {
/* columns rows colors chars-per-pixel */
"80 80 227 2 ",
"   c None",
".  c #0F0E39",
"X  c #150D35",
"o  c #130D3A",
"O  c #1B0D3B",
"+  c #180B36",
"@  c #0D123A",
"#  c #0F1237",
"$  c #121236",
"%  c #13133A",
"&  c #1B123B",
"*  c #121A3D",
"=  c #1A1A3E",
"-  c #230D3D",
";  c #290C3C",
":  c #370C3D",
">  c #22133D",
",  c #2D103F",
"<  c #1C1843",
"1  c #2C0D41",
"2  c #340E40",
"3  c #3C0E43",
"4  c #231442",
"5  c #2C1444",
"6  c #231943",
"7  c #2E1A46",
"8  c #2C1E48",
"9  c #341444",
"0  c #3B1443",
"q  c #3C1A46",
"w  c #331C4C",
"e  c #3C1C4B",
"r  c #3B164A",
"t  c #2E2149",
"y  c #38224D",
"u  c #3B2651",
"i  c #450E44",
"p  c #421244",
"a  c #4B1147",
"s  c #4C144A",
"d  c #431B4B",
"f  c #4B1A4D",
"g  c #441649",
"h  c #53144B",
"j  c #58154C",
"k  c #54184E",
"l  c #4D1F52",
"z  c #5B1C53",
"x  c #541C51",
"c  c #62144B",
"v  c #691B4F",
"b  c #631C54",
"n  c #6B1D56",
"m  c #691B56",
"M  c #7C1F5A",
"N  c #751C56",
"B  c #48224E",
"V  c #442C55",
"C  c #4B2D58",
"Z  c #482554",
"A  c #532354",
"S  c #572959",
"D  c #4D335D",
"F  c #52325D",
"G  c #66265A",
"H  c #76265A",
"J  c #593864",
"K  c #562F61",
"L  c #772C64",
"P  c #683867",
"I  c #773669",
"U  c #753569",
"Y  c #68416C",
"T  c #6B4672",
"R  c #744C76",
"E  c #794674",
"W  c #7C5179",
"Q  c #851D56",
"!  c #82225C",
"~  c #8A265C",
"^  c #93255D",
"/  c #882C64",
"(  c #972A65",
")  c #85376C",
"_  c #9B366D",
"`  c #9B3772",
"'  c #8B3D72",
"]  c #A42B65",
"[  c #A82563",
"{  c #B22B67",
"}  c #A7366E",
"|  c #B8336E",
" . c #A83C78",
".. c #B83873",
"X. c #C92D6A",
"o. c #DD2F6E",
"O. c #C9306D",
"+. c #D8326E",
"@. c #CE3B76",
"#. c #C93875",
"$. c #DE3471",
"%. c #DC3B76",
"&. c #D73C78",
"*. c #E12F6C",
"=. c #E0326F",
"-. c #E23473",
";. c #E33A76",
":. c #E43D7A",
">. c #E83D79",
",. c #884577",
"<. c #94497C",
"1. c #83537A",
"2. c #AE457D",
"3. c #AA497D",
"4. c #B6447C",
"5. c #DC437D",
"6. c #DA497E",
"7. c #CC477F",
"8. c #E4447D",
"9. c #E9447E",
"0. c #E74B7F",
"q. c #8B5683",
"w. c #8B5783",
"e. c #935C89",
"r. c #AA4B83",
"t. c #B74682",
"y. c #AD5285",
"u. c #A95C87",
"i. c #B8558A",
"p. c #B55D91",
"a. c #9A638E",
"s. c #956690",
"d. c #A6658E",
"f. c #A76C98",
"g. c #B76997",
"h. c #AB719B",
"j. c #B8759B",
"k. c #BC7BA3",
"l. c #B375A1",
"z. c #C74C86",
"x. c #DC4583",
"c. c #D94983",
"v. c #C8568D",
"b. c #D9538A",
"n. c #D45D95",
"m. c #CC5994",
"M. c #E64582",
"N. c #E94582",
"B. c #E54B84",
"V. c #EB4C84",
"C. c #E44D8A",
"Z. c #EB4E8A",
"A. c #E5548B",
"S. c #EC548B",
"D. c #E55B8D",
"F. c #EB598E",
"G. c #E55286",
"H. c #F0558D",
"J. c #F2598F",
"K. c #EE5691",
"L. c #E45D92",
"P. c #EE5B92",
"I. c #E85792",
"U. c #F25B94",
"Y. c #F15690",
"T. c #F04E8A",
"R. c #C96597",
"E. c #D86298",
"W. c #C8729D",
"Q. c #DA739C",
"!. c #E56395",
"~. c #EC6295",
"^. c #E5659B",
"/. c #EC6399",
"(. c #EC6C9C",
"). c #E96997",
"_. c #F36196",
"`. c #F4649B",
"'. c #F46A9D",
"]. c #F8699E",
"[. c #EC6B98",
"{. c #C27CA5",
"}. c #CC79A5",
"|. c #DA7BA7",
" X c #CC6DA0",
".X c #EB6DA1",
"XX c #F56DA1",
"oX c #F96CA2",
"OX c #F666A0",
"+X c #ED74A2",
"@X c #EB7BA8",
"#X c #F474A4",
"$X c #F379A6",
"%X c #F57CAA",
"&X c #F774A8",
"*X c #CA84AD",
"=X c #C784AA",
"-X c #D584AD",
";X c #D98CB5",
":X c #DD91B9",
">X c #DD92B5",
",X c #ED84AC",
"<X c #E886AC",
"1X c #F384AD",
"2X c #F488AE",
"3X c #E68CB5",
"4X c #F586B1",
"5X c #F58BB3",
"6X c #F98DB5",
"7X c #F78CB7",
"8X c #E694BB",
"9X c #EB95BC",
"0X c #EC98B9",
"qX c #F491B6",
"wX c #FA91B7",
"eX c #F594BB",
"rX c #F994BB",
"tX c #F59ABE",
"yX c #F99ABE",
"uX c #EE9BC1",
"iX c #F49CC1",
"pX c #F99AC1",
"aX c #F197C2",
"sX c #EEA7C4",
"dX c #F3A2C2",
"fX c #F5A8C7",
"gX c #F4B1CD",
/* pixels */
"                                                                                                                                                                ",
"                                                                                                                                                                ",
"                                                                                                                                                                ",
"                                                                                                                                                                ",
"                                                                                                                                                                ",
"                                                                                                                                                                ",
"                                                                                                                                                                ",
"                                                                                                                                                                ",
"                                                                                                                                                                ",
"                                                                                                                                                                ",
"                                                                                                                                                                ",
"                                                                                                                                                                ",
"                                                                                                                                                                ",
"                                                                                                                                                                ",
"                                                                                                                                                                ",
"                                                                                                                                                                ",
"                                                                        % %                                                                                     ",
"                                                                  % % 6 D J V 7 & o                                                                             ",
"                                                              @ 6 C 1.j.8X9X3X{.f.E 0 & *                                                                       ",
"                                                        * 6 V W k.8XtXrXqXqX6XeXpX^.#.! 0 %                                                                     ",
"                                                      = 8 a.3XtXtXrX7X7X4X2X5XpX@XA.N.%.2.7                                                                     ",
"                                                      6 e.eXwXqX7X6X4X2X<XW.h.q.G H ` z.E.S %                                                                   ",
"                                                    & 1.3X4X4X4X4X,XW.,.A e u C Y J e d U K %                                                                   ",
"                                                  % Y 8XyXiX0X,X}.E e p ,.h.}.3XtX9X*Xe.J 7 X $                                                                 ",
"                                                  w g.+X@XdXgX>XF p ~ #.!.pXtX7X7XrXtXtX8X{.q.F 5 %                                                             ",
"                                                % U ^.S.9.%.b.u.r 2.5.:.Z.+XpX7X4X4X5X5XqXrXpX8Xh.y %                                                           ",
"                                                7 p.U.B.>.*.5.U S ^.F.B.S.`.4XpX5X2X1X2X5X6X6XwXtXf.5                                                           ",
"                                                7 W.&X`.S.8.7.l ' /.P.P.P.].%X+X$X4X4X2X,X1X1X2X4X9Xq.<                                                         ",
"                                                X <.&XoX`.P.E.S G A.S.S.`.#X`.8.8.F.(.1X5X5X,X0XdXiXuXR %                                                       ",
"                                                  A i.2.) L G w ; _ B.9.D.$XG.8.9.N.Z.F./.$XeXgX0X+X(.R.e 4 8 % @                                               ",
"                                                  o 9 q B j c b 9 a ..8.L.%XXXU.S.V.S.F.Y.U.XXb.%.8.Z.U.) B f.e.J &                                             ",
"                                              $ 8 J q.=XQ.5.%.x.y.f s | +X#XXXXXXX]._.P.P._.'.8.=.:.V.U.R.q d.yX:XY %                                           ",
"                                            $ J =X9XqXdX+XV.9.F.`.i.0 H R.E.^.^..XXXXXXXXX#X#XG.9.F.`.&X Xe d.wXrX;XJ %                                         ",
"                                          # F ;XrX6X5XyX+XK.S.P.J.b.f 5 g k A G I y.E.(.XX#X%X`.Y.U.`.oX<.B |.4X6XtX*XC %                                       ",
"                                        % V *XrX5X5X5XyX$X`.~.P.S.t.9 9 L M M L F q d L 3.^.XXB.9.V.A.v.A E 4X1X5X7XtXk.u %                                     ",
"                                      * y k.tXqX4X2X4X6X%X#XXXS.6.G d y.I.%.8.!.8Xk.q.J 0 I b.O.X.] n 3 a 2.1X5X1X4XrXiXf.6                                     ",
"                                      t h.tXqX5X1X2X1XA.A.~.%XL...3 <.`.U.M.V.~.tXqXqX9Xd.q n ^ c : d I 4.B.D.4X2X2X5X{.J 4 O & $                               ",
"                                    < e.:X-X-X<X2X2XD.M.8.A.#X%Xy.2 2.J.J.S.K.`.wXqX4XwXeXa.5 ; f ,.R.XXS.V.Z.~.4X,Xg.B A ! H H P u 4 %                         ",
"                                  @ < C Z d e I |.~.B.N.V.XX'.'.p.2 } S.S._.`.#XwX5X4X6XrXaXw.> ) /.XXoX`.S.S.F.(.j.d G n.B.;.x.@X:Xh.W V %                     ",
"                              * = y T ) / ( ) B G z.Z.S.`.oX`._._ : ] 9.8.'.#X&X$X5X1X4X5XwX9XR 0  .`.OXXX`.K.Y./.I f n.`.S.9.Z.$XpXrXrX:XR %                   ",
"                          = t T f.-XiX!.M.:.K.v.x z b.`.XX'.U.8.~ : [ :.A.$X!.B.8.).6X1X4X6XrX>XY p 4.`.'.#X].P.`.U k b.K.P.F.U.#XpX4X7XrX8XP %                 ",
"                        = y l.iXwXrXyX~.Z.B.K.`.r.3 i.oX'._.9.-.~ 3 [ c.$X$X_.9.9.V.#X4X1X4X5XwX;XJ h c.`.].#XXXXXU h c.Z.P.`.].%XpX4X4X6XrX;XD *               ",
"                      < 8 f.tXeX6X5XeX'.Y.K.Y.Y.2.3 i.oX_.N.=.;.~ i { L.(.'.oXY.N.V.G.$X5X1X4X5XpXl.0 | Z.`.].#X%XP h @.N.A.#X#X#X1X4X1X4X5XyX=XV *             ",
"                    < 6 a.tXwX6X2XqXeX#X`.`.S.Z.} : i.`.V.o.-.:.( i | :.S.`.].oXF.S.S.D.1X5X1X2XwX*Xd ( -.T.`.XX.XG j O.8.).$XA.B.B.%X5X2X4XqXtX{.y %           ",
"                    & w.9XrX7X4X2X4X+X#X#X'.B.M.] : r.S.$.=.;.9./ a #.;.$.S.`.].].U.F.F./.5XdXeX5X;XZ ! ;.:.K.S.c.z c O.).%X#XS.8.9.D.1X5X2X4XqXeXh.8           ",
"                  & R 8XeX5X4X2X4X!.8.6.L.$XL.;.[ 2 ` :.=.;.9.V./ s c.:.=.;.J.`.oXoX_.P.~.+X0XgXiXtXY b @.@.#.X.| s v @.(.'.].].S.N.V.~.4X2X2X4XqXaXT %         ",
"                o P :XrX5X4X2X5X(.B.9.9.`.#X$XA.[ 3 / :.:.9.N.A.H j x.9.;.-.;.Y.`.oXoX'.'.F.$.G.).4Xq.1 j c v n m 2 N &.8.Y.`.XX].S.S.S./.7X2X1X5XtXe.&         ",
"                4 l.rX5X2X,X5X$XA.V.N.U.oX].(.D.{ p z ( ( ( ( / r b C.N.>.;.o.:.U.`.XX%X#X%.o.:.V.~.,.o X X + O & o ! 5.$.:.U.`.oX`.K.Y.Y.+XtXdX0X5Xj.>         ",
"                w -X6X5X,X5X%XP.S.Z.K.].].`.V.%.O.a O ; - - O O o H S.V.N.:.-.o.8.U.'.#X#XB.M.M.S.~.I %           O / M.;.$.9.U.`.].`._.U.(.,XsXgXiX*Xt         ",
"              % C <X5XuXfX4X~.Y.Y.U.oX]._.V.$.;.@.s @           X H P.H.V.9.:.;.$.B.`.K.B.F.`.'.]..XP @           O ( Z.:.-.-.N.`.].oXoX`.'.x.%.D.+X-XV         ",
"              . T uXdXfX<X#XU.U.`.oXXX`.S.$.=.;.x.h %           X P E.I.Z.B.B.:.%.&.&.O.%.V.K.`.&Xg.e             O ` Z.N.:.-.$.V._.`.XX$XP.o.-.M.S.E.Z         ",
"              o w.1X~.5.+.F.].XX&XXX`.J.-.=.;.8.x.k %           % 5 l G m b N M ! ! Q Q ^ ] ..v.y.e X             -  .K.V.9.:.-.$.V.`.'.#X~.B.M.B.F.L.d         ",
"              o ,./.V.:.*.%.#X&X'.`.Y.:.-.;.8.N.C.z %                   o . o O O O O - - ; , e 5                 - t.U.H.V.9.:.-.%.K.`.A.B.Y.`.XXXXE.e         ",
"              o ) /.S.B.V.S.'.#X`.Y.:.=.;.:.N.V.I.G %                                                             4 r.L.I.C.B.5.%.&.&.@.O.:.Z.U.oX@X<.4         ",
"              % P +XoXoX`.S.B.S._.M.-.;.>.N.V.S./.L o                                                             % e A z b n N M H M Q Q ^ } z.m.I 4           ",
"                w d.$X`.F.B.+.X.O.@.&.5.x.C.b.b.n.U .                                                                     o % o O O O - - - ; 9 e O             ",
"                < 9 <.i.} ^ Q N N N m b z z f g r 5                                                                                                             ",
"                    4 5 - - O O O O X o o                                                                                                                       ",
"                                                                                                                                                                ",
"                                                                                                                                                                ",
"                                                                                                                                                                ",
"                                                                                                                                                                ",
"                                                                                                                                                                ",
"                                                                                                                                                                ",
"                                                                                                                                                                ",
"                                                                                                                                                                ",
"                                                                                                                                                                ",
"                                                                                                                                                                ",
"                                                                                                                                                                ",
"                                                                                                                                                                ",
"                                                                                                                                                                ",
"                                                                                                                                                                ",
"                                                                                                                                                                ",
"                                                                                                                                                                ",
"                                                                                                                                                                ",
"                                                                                                                                                                ",
"                                                                                                                                                                ",
"                                                                                                                                                                ",
"                                                                                                                                                                ",
"                                                                                                                                                                "
};
