/* XPM */
static char *coin1710261099[] = {
/* columns rows colors chars-per-pixel */
"50 50 114 2 ",
"   c None",
".  c #B69203",
"X  c #BA9503",
"o  c #BE9802",
"O  c #B9960B",
"+  c #BC990C",
"@  c #BF9C11",
"#  c #C29C01",
"$  c #C19D0B",
"%  c #C09D11",
"&  c #C7A000",
"*  c #CCA401",
"=  c #C5A10E",
"-  c #CBA40C",
";  c #CFA80B",
":  c #D1A700",
">  c #D4AA00",
",  c #D9AF05",
"<  c #D6AD0B",
"1  c #D8AF0B",
"2  c #DBB107",
"3  c #D7B00F",
"4  c #DCB20B",
"5  c #C7A314",
"6  c #CBA612",
"7  c #CEA912",
"8  c #D3AD15",
"9  c #D2AD19",
"0  c #D7B014",
"q  c #DBB315",
"w  c #D7B11C",
"e  c #DBB51C",
"r  c #DFB91F",
"t  c #E1B60D",
"y  c #E4B90F",
"u  c #E5BB12",
"i  c #E9BE14",
"p  c #E4BC1D",
"a  c #E9BF19",
"s  c #DAB72C",
"d  c #DBB82A",
"f  c #DCBA31",
"g  c #E2BC23",
"h  c #EBC016",
"j  c #EDC31B",
"k  c #F2C71D",
"l  c #F3C91F",
"z  c #EBC323",
"x  c #E5C12C",
"c  c #E9C229",
"v  c #F0C722",
"b  c #F5CA22",
"n  c #F9CE24",
"m  c #F5CC2B",
"M  c #F8CF29",
"N  c #FED227",
"B  c #FFD42A",
"V  c #E6C332",
"C  c #EAC637",
"Z  c #E3C23C",
"A  c #EAC73A",
"S  c #EDCA3B",
"D  c #F5CF35",
"F  c #F1CE3C",
"G  c #FFD633",
"H  c #F6D13B",
"J  c #FFD73A",
"K  c #FFD83C",
"L  c #D6BE5D",
"P  c #EFCD42",
"I  c #E1C34B",
"U  c #E9CA4E",
"Y  c #F1CE44",
"T  c #F4D145",
"R  c #FAD542",
"E  c #FFD944",
"W  c #F9D64A",
"Q  c #FEDA4A",
"!  c #E3C758",
"~  c #F0D157",
"^  c #FFDD54",
"/  c #FFDE5A",
"(  c #D8C168",
")  c #FDDE62",
"_  c #E7D072",
"`  c #E8D379",
"'  c #FFE067",
"]  c #FFE26B",
"[  c #FFE475",
"{  c #FFE57D",
"}  c #E4D185",
"|  c #EAD684",
" . c #ECD98D",
".. c #EEDF9E",
"X. c #FFE787",
"o. c #F8E28B",
"O. c #FFE88B",
"+. c #F1E3AC",
"@. c #FFEEA8",
"#. c #F3E7B6",
"$. c #FFF0B6",
"%. c #FFF1BA",
"&. c #F6EDC6",
"*. c #F7EFCE",
"=. c #FFF5CB",
"-. c #FFF6D3",
";. c #FCF5DC",
":. c #FFF9DE",
">. c #FBF6E4",
",. c #FEF9E6",
"<. c #FBF7E9",
"1. c #FEFBEE",
"2. c #FEFCF4",
"3. c #FFFFFF",
/* pixels */
"                                        ^ ^ ^ ^ ^ ^ ^ ^ ^ ^                                         ",
"                                ^ ^ / ^ ^ ^ ^ ^ ^ ^ ^ ^ ^ ^ ^ ^ ^ ^                                 ",
"                            ^ ^ ^ ^ Q E J G G G B B G G G J E Q Q ^ ^ ^                             ",
"                        ^ / ^ Q J G B B B B N B B B B B B B B G G K Q ^ / ^                         ",
"                    ^ ^ ^ E G B N B B B B B B B B B B B B B B B B B B G E Q ^ ^                     ",
"                  ^ ^ E G B B B B B B N B B B G B B B B B B B B B B B B B J E ^ ^                   ",
"                ^ ^ J B N B B B B B B B B N n v v v b M N B B B B B B B B B B J ^ ^                 ",
"              ^ E G B B B B B B B B b r 7 + X . . . . X $ 7 p n B B B B B B B B G E ^               ",
"            ^ E B B B B B B B B j = . . o & & & * * * & & o . . 7 z B B B B B B B B E ^             ",
"          ^ E G B B B B B B z = . o * : > > > > > > > > > > > & o X 7 v B B B B B N G E ^           ",
"        ^ E B B B G B B N 0 . o * > > > > > > > > > > > > > > > > : # X p B B B B B B B E ^         ",
"      ^ Q G B N J $.$.' 7 . * > > > > > > > > > > , > > > > > > > > > * o 0 M B B B B B G Q /       ",
"      ^ G B B N B @.3.1.( * > > > > > : > e x S P T T F A g 3 > > > > > > o 8 B B B B B B J Q       ",
"    ^ K B B B E K G } ;.&.0 > > > > > d T E E J G G G G K E W C 3 > > > > > o q B B B B B B K ^     ",
"    Q B B B ' :.=.s o d d > > > > 3 F E G B B B B B B B B B B K T r > > > > : o j B B B B B B Q     ",
"  ^ J B B G =.3.3.L * > > > > > 3 H J N B B B B B B B B B B B B G R r > > > > : = n B B B B B J ^   ",
"  Q B B B / 2.3.3.` > > > > > < F G B B B B G N v z v B G B B B B B H 2 > > > > & q B B B B B B Q   ",
"  K B B N { 3.3.3._ > > > > > x G N B B B M w + X + X = e N B B B B G c > > > > > ; b B B B B B J   ",
"Q G B B N X.3.3.3.I > > > > 3 G B B B B n % X * > > > : & 0 M B B B B G 3 > > > > * p B B B B B G Q ",
"E B B B N [ 3.3.*.0 > > > > p G B B B B 6 o > > > > > > > : h B B B M c < > > > > > < N B B B B B E ",
"K B B B B E -.<.! > > > > > m B B B B z o > > > > > > > > > 4 z e 5 + X & > > > > > < n B B B B B J ",
"G B B B B B A s > > > > > 2 m B B B B w & > > > > > > > > > > o o & * > > > > > > > > k B B B B B J ",
"G B B B B B t * > > > > > 3 N B B B B = : > > > > > > > > > > > > > > > > > > > > > > j B B B B B B ",
"B B B B B B q > > > > > > q B B B B n - > > > > > > > > > > > > > > > > > > > > > > > j B B B B B B ",
"B B B B B B u : > > > > > 4 N B B B m - > > > > > > > > > > > > > > > > > > > > > > > h B B B B B B ",
"B B B B B B u > > > > > > u B B B B m ; > > > > > > > > > > > > > > > > > > > > > > > h B B B B B B ",
"B B B B B B i > > > > > > 4 B B B B B < > > > > > > > > > > > > > > > > > > > > > > > j B B B B B B ",
"N B B B B B j > > > > > > 2 B B B B B q > > > > > > > > > > > 4 > > > > > > > > > > > j G B B B B B ",
"n B B B B B b > > > > > > 2 N B B B B z > > > > > > > > > > 4 T T V e 1 > > > > > > > b B B B B B b ",
"l B B B B B N 4 > > > > > > k B B B B M 3 > > > > > > > > > p G G K E T q > > > > 0 Z N B B B B B b ",
"j B B B B B B y > > > > > > u B B B B G c > > > > > > > > < D B B B B m ; > > > < ..<.Q N B B B B j ",
"u N B B B B B k > > > > > > 2 N B B B B H x > > > > > > 3 F G B B B B e # > > > d <.2./ N B B B N y ",
"  b B B B B B N 4 > > > > > > i B B B B B K P d q q q x T G B B B B M + * > > > f 2.-.K B B B B l   ",
"  i B B B B B B k > > > > > > > z B B B B B G E Q W W K G B B B B B w o > > > > 1 o.' B B B B B h   ",
"  4 n B B B B B B y > > > > > > ; j B B B B B B B B B B B B B B N d . > > > 8 f U ^ G B B B B n 4   ",
"    i B B B B B B N 4 > > > > > > : e B B B B B B B B B B B B N w . : > d | *.1.3.2.$.K B B B i     ",
"    2 b B B B B B B b 2 > > > > > > * - r n B B B B B B B M z @ X : 3 ` ;.3.3.3.3.3.3.' N B b 2     ",
"      y B B B B B B B l 2 > > > > > > : & $ 5 w e r w w 5 + . & > e +.3.3.3.3.3.3.3.2./ N B y       ",
"      > h B B B B B B B N 4 > > > > > > > > * & & o o & & : > > w #.3.3.3.3.3.3.3.3.$.G B h >       ",
"        , k B B B B B N N N h < > > > > > > > > > > > > > > > >  .3.3.3.3.3.3.3.3.:.^ N k 2         ",
"          2 l B B B B B B B B n h > > > > > > > > > > > > > > d <.3.3.3.3.3.3.3.-./ B l 2           ",
"            2 b B B B B B B B N B n j 4 2 > > > > > > > > , 4 ~ 3.3.3.3.3.3.3.$.Q B b 2             ",
"              2 k B B B B B B B B B B B N l j j h u h j l n N E =.3.3.3.1.%.] G B l 2               ",
"                > j N B B B B B B B B B B B B B G B B B B B B B E { O.[ ^ G N N h >                 ",
"                  > t b B N B B B B B B B B B B N B B B B B B B B N N N N B b t >                   ",
"                    > 2 h b B B B B B B B B B B B B B B B B B B B B B B n i 2 >                     ",
"                        > 2 h l N B B B B B B B B B B B B B B B B N b u 2 >                         ",
"                            > > 4 h l N N B B B B B B B B N N b h 4 , >                             ",
"                                > > > 2 4 y i h h h h u u 4 , > > >                                 ",
"                                        > > > > > > > > > >                                         "
};
