/* XPM */
static char *_5ada814af8f452081b154915adebc22knBEJiUvdLzXdMIN[] = {
/* columns rows colors chars-per-pixel */
"80 80 231 2 ",
"   c None",
".  c #040406",
"X  c #06050A",
"o  c #07080C",
"O  c #0A0A0D",
"+  c #08070E",
"@  c #070B12",
"#  c #0B0C14",
"$  c #0C0E1B",
"%  c #100F13",
"&  c #100F1B",
"*  c #0E121C",
"=  c #0B1617",
"-  c #12141D",
";  c #17191F",
":  c #141414",
">  c #0E1324",
",  c #131622",
"<  c #151922",
"1  c #181A22",
"2  c #151A2B",
"3  c #1A1E2B",
"4  c #11172F",
"5  c #151A31",
"6  c #171D3A",
"7  c #1C212D",
"8  c #1E2431",
"9  c #182438",
"0  c #292A2C",
"q  c #212634",
"w  c #232835",
"e  c #2A2D3A",
"r  c #232838",
"t  c #2E303B",
"y  c #3E3E3F",
"u  c #303237",
"i  c #192943",
"p  c #1B3842",
"a  c #1D2A5B",
"s  c #1B2856",
"d  c #1C3358",
"f  c #252D43",
"g  c #292C43",
"h  c #242A47",
"j  c #2C3546",
"k  c #2D354B",
"l  c #2E384B",
"z  c #27304F",
"x  c #30364B",
"c  c #333A4B",
"v  c #343A45",
"b  c #222D5D",
"n  c #272D58",
"m  c #2A3256",
"M  c #24325D",
"N  c #2A355E",
"B  c #2D395A",
"V  c #343B54",
"C  c #323C5C",
"Z  c #363B56",
"A  c #1C3B68",
"S  c #1F2C60",
"D  c #232E60",
"F  c #282F61",
"G  c #243463",
"H  c #2B3562",
"J  c #253A65",
"K  c #2C3A64",
"L  c #2E3C69",
"P  c #223B6B",
"I  c #323D65",
"U  c #393E63",
"Y  c #313E69",
"T  c #223F74",
"R  c #394155",
"E  c #3A425A",
"W  c #3C485C",
"Q  c #37425B",
"!  c #2E424A",
"~  c #1F4271",
"^  c #26466A",
"/  c #3A4264",
"(  c #35426C",
")  c #3A466D",
"_  c #3D496C",
"`  c #394564",
"'  c #254373",
"]  c #2C4C7A",
"[  c #274874",
"{  c #3A4571",
"}  c #3D4B73",
"|  c #3A4A74",
" . c #295477",
".. c #38527A",
"X. c #2C556B",
"o. c #336568",
"O. c #414242",
"+. c #47464B",
"@. c #4A4A4C",
"#. c #48474D",
"$. c #464C58",
"%. c #5B5A5B",
"&. c #52575B",
"*. c #4D5159",
"=. c #444D63",
"-. c #424C6C",
";. c #454B6A",
":. c #465066",
">. c #46546C",
",. c #49536B",
"<. c #4B576B",
"1. c #5C5E66",
"2. c #414D75",
"3. c #424F79",
"4. c #435175",
"5. c #4A5572",
"6. c #4D5972",
"7. c #45547A",
"8. c #49567C",
"9. c #47597E",
"0. c #4B5A7C",
"q. c #515B75",
"w. c #525C7D",
"e. c #585E72",
"r. c #54627C",
"t. c #5F637E",
"y. c #6B6D74",
"u. c #7C7B7C",
"i. c #6A6B6F",
"p. c #2A578A",
"a. c #385B8B",
"s. c #375D93",
"d. c #2E6788",
"f. c #316B8D",
"g. c #31658C",
"h. c #2D6195",
"j. c #317192",
"k. c #3977A9",
"l. c #3A7BB2",
"z. c #337BB4",
"x. c #4D5C82",
"c. c #485881",
"v. c #515D84",
"b. c #4E6184",
"n. c #406D8C",
"m. c #536484",
"M. c #5A6585",
"N. c #566986",
"B. c #5B6A86",
"V. c #56678A",
"C. c #556589",
"Z. c #59668A",
"A. c #56698A",
"S. c #566A8B",
"D. c #596A8A",
"F. c #5A6A8D",
"G. c #5A6C8D",
"H. c #5A6B8C",
"J. c #5B6B90",
"K. c #427B9F",
"L. c #626B85",
"P. c #636C89",
"I. c #666A83",
"U. c #69728D",
"Y. c #65708A",
"T. c #7D7E87",
"R. c #747B95",
"E. c #6F7490",
"W. c #3C858E",
"Q. c #4C8C8F",
"!. c #79809C",
"~. c #5494B5",
"^. c #4D8EB7",
"/. c #56AAB5",
"(. c #398DC9",
"). c #3EA2E1",
"_. c #4195CC",
"`. c #5197CE",
"'. c #46A2DB",
"]. c #45AAD9",
"[. c #55BBD9",
"{. c #46ACEA",
"}. c #45B6E9",
"|. c #5CC7D7",
" X c #7DC6D4",
".X c #63D3E5",
"XX c #61D9F3",
"oX c #67E3EA",
"OX c #67EAF6",
"+X c #6CEDF4",
"@X c #89898A",
"#X c #878889",
"$X c #838796",
"%X c #929293",
"&X c #989897",
"*X c #999999",
"=X c #979798",
"-X c #899595",
";X c #878CA3",
":X c #8C91A5",
">X c #9296AB",
",X c #989AA8",
"<X c #A4A4A8",
"1X c #A1A5B4",
"2X c #AFB2B8",
"3X c #B0B0AE",
"4X c #C0C0BF",
"5X c #BABDC7",
"6X c #AEB5CA",
"7X c #8DEAED",
"8X c #C3C2C3",
"9X c #C2C3CD",
"0X c #CCCCCC",
"qX c #C4C9D3",
"wX c #CED2DC",
"eX c #D5D4D7",
"rX c #D0CFD3",
"tX c #DADCE2",
"yX c #C5D5E1",
"uX c #DEE3E6",
"iX c #DDF1F1",
"pX c #E6E6E6",
"aX c #EAEBEB",
"sX c #E6E8EA",
"dX c #ECF9F9",
"fX c #F6F6F6",
"gX c #F5F8F6",
"hX c #F6FAFA",
"jX c #FFFFFF",
"kX c #F7F9F8",
"lX c #E5EBF0",
/* pixels */
"                                                                                                                                                                ",
"                                                                                                                                                                ",
"                                                                                                                                                                ",
"                                                                                                                                                                ",
"                                                                    :                                                                                           ",
"                                                                  , 7 8 8 8 7 7 7 7 8 8 8 8 2 ,                                                                 ",
"                                                      $ - $ * - 5 m w.N.N.N.N.N.N.N.N.N.M.N.-.i , - $ * - &                                                     ",
"                                          # @ @ @ @ 4 m 5.m _ r.4.K x.A.S.S.F.F.F.F.F.D.D.F.} K 0.q.C / >.h * @ @ @ @ #                                         ",
"                              X X X . O c :.;.=.:.:.U I C.N 7.H.C.9.( 9.A.F.F.F.F.F.F.D.C.} } x.D.H.I } c.M -.:.:.:.:.=.8 X X X X X                             ",
"                            j j j l l x 5.x.} } C.G.3.K C.4.} 8.F.m.N 7.G.m.} ) ) ) } F.A.Y } H.A.} } c.0.N m.H.c.} } m.W l l x x j e                           ",
"                w 8 q q 7 2 5.N.b.7.c.C.H.4.a b v.H.9.( 7.C.( { F.C.) } 7.0.P.U.U.U.B.7.7.{ 7.H.C.H 8.m.} ) C.H.} s M m.H.m.7.c.D.B.Z 2 8 q q q e               ",
"              w r.N.N.B.0.N x.H.7.a G x.F.7.H D 8.C.S.c.H v.} { m.A.A.( I R.lXhXhXhXqX5.N 7.D.C.x.Y x.| L C.N.m.{ b I m.H.} b H C.D._ I M.B.B.N.=.3             ",
"            g r.C.C.C.A.x.H v.J.7.b b x.F.D.8.M b 7.A.0.H v.Z.2.L m.C.I R.uXaXfXfXfXaXqX-.4.D.0.K x.Z.| I C.m.( D Y m.D.Z.| b H C.F.} Y Z.A.C.S.C.>.2           ",
"        - c 0.m.Y K K } x.N x.G.m.3.G K 0.D.0.M b 7.A.m.8.( x.3.K b.( M x ! y O.O.O.y v n H 7.8.H v.| | x.N.C.L b I Z.Z.| G K 0.A.F.{ I m.( K K } m.:.q         ",
"        c 5.D.x.N ;Xw.I m.2.{ x.F.x.G a 7.A.m.} } x.D.D.C.H L z 4 r 5 I.,X#X#X@X@X@X@X@X>XZ 5 9 5 C H | G.D.F.7.2.8.D.M.Y a Y A.N.4.} 8.x.N !.M.I A.N.W e       ",
"      # ,.H.H.x.I >XM.I D.C.H 4.F.x.{ Y 0.N.A.H.H.x.-.R V i 6.y.%.%.1.8XjXjXjXjXjXjXjXjXhX%X%.%.1.I.V f R R 2.C.F.F.D.N.} Y } N.N.K } D.x.N :XP.I A.N.P.j @     ",
"      - $.m.D.x.L K K } S.C.H 4.D.A.A.C.m.w.6.6.6.5.R 0 0 u 3XjXjXjXkXjXjXjXjXjXjXjXjXjXjXkXhXjXjXfXi.0 0 t =.5.6.6.q.v.C.C.A.A.m.K | G.m.I K H ) S.N.q.t       ",
"        - R D.A.C.C.C.C.F.C.K 2.C.r.r.m.-.g < ; 1 ,XsXpXpXpXfXjXjXjXjXjXjXjXjXjXjXjXjXjXjXjXjXjXjXhXaXpXpXsXtX&.; < 3 V 0.m.r.m.m.L 2.G.F.Z.C.C.m.S.m.8         ",
"        O r 2.A.D.D.D.F.F.C.K H z < < 3 $X9X8X4X8XpXjXjXjXjXjXjXjXjXjXjXjXjXjXjXjXjXjXjXjXjXjXjXjXjXjXjXjXjXkXrX5X8X8X9X*.< < 3 N F 2.G.G.H.H.N.A.m.C ,         ",
"        # i.R._ N.D.F.F.F.C.h I.,X%X%X%XrXjXjXjXjXjXjXjXjXjXjXjXjXjXjXjXjXjXjXjXjXjXjXjXjXjXjXjXjXjXjXjXjXjXjXjXjXjXjXkX3X%X%X=X,XZ C G.G.F.F.F.0.4.:Xt         ",
"        O &XwXY.8.C.F.F.F.m.< &XjXjXjXjXjXjXjXjXjXjXjXjXjXjXjXjXjXjXjXjXjXjXjXjXjXjXjXjXjXjXjXjXjXjXjXjXjXjXjXjXjXjXjXhXjXjXjXjXfX#.l H.G.F.F.x.w.$XuX+.        ",
"        O %XjXwX/ v.F.F.F.m., &XjXjXjXjXjXjXjXjXjXjXjXjXjXjXjXjXjXjXjXjXjXjXjXjXjXjXjXjXjXjXjXjXjXjXjXjXjXjXjXjXjXjXjXjXjXjXjXjXfX+.j D.F.G.G.) P.hXaXO.        ",
"        O -XdXyX( x.F.F.F.m., *XjXjXjXjXjXjXjXjXjXjXjXjXjXjXjXjXjXjXjXjXjXjXjXjXjXjXjXjXjXjXjXjXjXjXjXjXjXjXjXjXjXjXjXjXjXjXjXjXfX+.j D.F.G.G.( Y.dXiXO.        ",
"        # Q.7X XL x.H.F.F.m.< *XjXjXjXjXjXjXjXjXjXjXjXjXjXjXjXjXjXjXjXjXjXjXjXjXjXjXjXjXjXjXjXjXjXjXjXjXjXjXjXjXjXjXjXjXjXjXjXjXfX+.j D.F.G.F.( n.7X7X!         ",
"        @ Q.+X|.P x.H.F.F.m.< *XjXjXjXjXjXjXjXjXjXjXjXjXjXjXjXjXjXjXjXjXjXjXjXjXjXjXjXjXjXjXjXjXjXjXjXjXjXjXjXjXjXjXjXjXjXjXjXjXfX+.j D.F.F.G.{ f.oXoXp         ",
"        @ W.OX|.A x.F.F.F.m., *XjXjXjXjXjXjXjXjXjXjXjXjXjXjXjXjXjXjXjXjXjXjXjXjXjXjXjXjXjXjXjXjXjXjXjXjXjXjXjXjXjXjXjXjXjXjXjXjXfX+.j D.F.F.F.( f.oXoXp         ",
"        @ W.OX[.^ x.F.F.F.m., *XjXjXjXjXjXjXjXjXjXjXjXjXjXjXjXjXjXjXjXjXjXjXjXjXjXjXjXjXjXjXjXjXjXjXjXjXjXjXjXjXjXjXjXjXjXjXjXjXfX+.j D.F.F.F.( g.XX.Xp         ",
"        O d.}._.P x.F.F.F.m., *XjXjXjXjXjXjXjXjXjXjXjXjXjXjXjXjXjXjXjXjXjXjXjXjXjXjXjXjXjXjXjXjXjXjXjXjXjXjXjXjXjXjXjXjXjXjXjXjXfX+.j D.F.F.J.{ p.{.].i         ",
"        @ d.{.(.A x.F.F.J.m., *XjXjXjXjXjXjXjXjXjXjXjXjXjXjXjXjXjXjXjXjXjXjXjXjXjXjXjXjXjXjXjXjXjXjXjXjXjXjXjXjXjXjXjXjXjXjXjXjXfX+.j G.F.F.F.{ p.{.'.i         ",
"        @ d.{.).l...0.F.F.m., *XjXjXjXjXjXjXjXjXjXjXjXjXjXjXjXjXjXjXjXjXjXjXjXjXjXjXjXjXjXjXjXjXjXjXjXjXjXjXjXjXjXjXjXjXjXjXjXjXfX+.j B.D.A.} s.(.{.'.i         ",
"        # ^ l.z.k.P ( x.H.m., *XjXjXjXjXjXjXjXjXjXjXjXjXjXjXjXjXjXjXjXjXjXjXjXjXjXjXjXjXjXjXjXjXjXjXjXjXjXjXjXjXjXjXjXjXjXjXjXjXfX+.j G.A.7.H p.l.l.k.9         ",
"        O 6 D S a b a L x.5.- &XjXjXjXjXjXjXjXjXjXjXjXjXjXjXjXjXjXjXjXjXjXjXjXjXjXjXjXjXjXjXjXjXjXjXjXjXjXjXjXjXjXjXjXjXjXjXjXjXfX+.f v.7.M a a a a a $ %       ",
"      , # 6 b D D D D G H M $ &XjXjXjXjXjXjXjXjXjXjXjXjXjXjXjXjXjXjXjXjXjXjXjXjXjXjXjXjXjXjXjXjXjXjXjXjXjXjXjXjXjXjXjXjXjXjXjXjXfX#.4 N H D D b b b n > # 1     ",
"    7 :.5.0.x.x.x.x.x.x.x.8., &XjXjXjXjXjXjXjXjXjXjXjXjXjXjXjXjXjXjXjXjXjXjXjXjXjXjXjXjXjXjXjXjXjXjXjXjXjXjXjXjXjXjXjXjXjXjXjXjXfX#.f v.x.x.x.x.x.x.c.5.<.R #   ",
"    - r.G.F.F.F.G.G.G.H.H.m., &XjXjXjXjXjXjXjXjXjXjXjXjXjXjXjXjXjXjXjXjXjXjXjXjXjXjXjXjXjXjXjXjXjXjXjXjXjXjXjXjXjXjXjXjXjXjXjXjXfX+.j B.F.F.F.F.F.F.F.F.G.W o   ",
"    - r.H.D.F.F.F.F.F.F.F.m., &XjXjXjXjXjXjXjXjXjXjXjXjXjXjXjXjXjXjXjXjXjXjXjXjXjXjXjXjXjXjXjXjXjXjXjXjXjXjXjXjXjXjXjXjXjXjXjXjXfX+.j D.F.F.F.F.F.F.H.D.B.W o   ",
"    * $.0.x.m.D.D.F.F.F.F.m., &XjXjXjXjXjXjXjXjXjXjXjXjXjXjXjXjXjXjXjXjXjXjXjXjXjXjXjXjXjXjXjXjXjXjXjXjXjXjXjXjXjXjXjXjXjXjXjXjXfX+.j D.F.F.F.D.N.A.x.x.6.v O   ",
"    o $ k U -.C.D.F.F.F.F.m., &XjXjXjXjXjXjXjXjXjXjXjXjXjXjXjXjXjXjXjXjXjXjXjXjXjXjXjXjXjXjXjXjXjXjXjXjXjXjXjXjXjXjXjXjXjXjXjXjXfX+.j D.F.F.F.D.A.v.` U q O O   ",
"      : <XtX>X( C.D.F.F.F.m., &XjXjXjXjXjXjXjXjXjXjXjXjXjXjXjXjXjXjXjXjXjXjXjXjXjXjXjXjXjXjXjXjXjXjXjXjXjXjXjXjXjXjXjXjXjXjXjXjXfX+.j H.F.F.F.D.8.4.9XeX%..     ",
"      : 0XjX2XN m.F.F.F.F.m., &XjXjXjXjXjXjXjXjXjXjXjXjXjXjXjXjXjXjXjXjXjXjXjXjXjXjXjXjXjXjXjXjXjXjXjXjXjXjXjXjXjXjXjXjXjXjXjXjXfX+.j H.F.F.F.D.7.-.aXjXy..     ",
"      % T.1XE.K C.F.F.F.F.m., &XjXjXjXjXjXjXjXjXjXjXjXjXjXjXjXjXjXjXjXjXjXjXjXjXjXjXjXjXjXjXjXjXjXjXjXjXjXjXjXjXjXjXjXjXjXjXjXjXfX+.j D.F.F.F.D.7.I >X1X#..     ",
"      O !  .^ K C.F.F.F.F.m.< *XjXjXjXjXjXjXjXjXjXjXjXjXjXjXjXjXjXjXjXjXjXjXjXjXjXjXjXjXjXjXjXjXjXjXjXjXjXjXjXjXjXjXjXjXjXjXjXjXfX+.j D.F.D.F.D.7.M  . .9 X     ",
"      = /.oX~.H C.F.F.D.N.q.w <XjXjXjXjXjXjXjXjXjXjXjXjXjXjXjXjXjXjXjXjXjXjXjXjXjXjXjXjXjXjXjXjXjXjXjXjXjXjXjXjXjXjXjXjXjXjXjXjXfX%.c m.A.D.D.D.7.[ |.oXo..     ",
"      = /.+X/.J C.F.F.F.5.w <XaXjXjXjXjXjXjXjXjXjXjXjXjXjXjXjXjXjXjXjXjXjXjXjXjXjXjXjXjXjXjXjXjXjXjXjXjXjXjXjXjXjXjXjXjXjXjXjXjXkXeXy.f N.D.D.D.7.[ .X+Xo..     ",
"      # X.j. .H C.D.F.H.:.< 0XjXjXjXjXjXjXjXjXjXjXjXjXjXjXjXjXjXjXjXjXjXjXjXjXjXjXjXjXjXjXjXjXjXjXjXjXjXjXjXjXjXjXjXjXjXjXjXjXjXjXjXu.7 N.F.D.D.8.G g.f.p X     ",
"      # [ h.] H C.D.F.H.>.< 0XjXjXjXjXjXjXjXjXjXjXjXjXjXjXjXjXjXjXjXjXjXjXjXjXjXjXjXjXjXjXjXjXjXjXjXjXjXjXjXjXjXjXjXjXjXjXjXjXjXjXjXu.7 N.F.F.D.7.J p.h.i X     ",
"      * ^.{.l.J C.D.D.F.>.1 0XjXjXjXjXjXjXjXjXjXjXjXjXjXjXjXjXjXjXjXjXjXjXjXjXjXjXjXjXjXjXjXjXjXjXjXjXjXjXjXjXjXjXjXjXjXjXjXjXjXjXjXu.7 N.F.F.A.7.T '.{.^ +     ",
"      * k.'.k.J C.D.D.F.>.1 0XjXjXjXjXjXjXjXjXjXjXjXjXjXjXjXjXjXjXjXjXjXjXjXjXjXjXjXjXjXjXjXjXjXjXjXjXjXjXjXjXjXjXjXjXjXjXjXjXjXjXjXu.7 N.F.F.A.7.' _.'.^ #     ",
"    # # d ~ ] x.S.D.D.H.>.1 0XjXjXjXjXjXjXjXjXjXjXjXjXjXjXjXjXjXjXjXjXjXjXjXjXjXjXjXjXjXjXjXjXjXjXjXjXjXjXjXjXjXjXjXjXjXjXjXjXjXjXjXu.7 N.F.F.A.C.c.' ' 9 @ %   ",
"    $ R >.4.0.F.F.F.F.H.>.1 0XjXjXjXjXjXjXjXjXjXjXjXjXjXjXjXjXjXjXjXjXjXjXjXjXjXjXjXjXjXjXjXjXjXjXjXjXjXjXjXjXjXjXjXjXjXjXjXjXjXjXjXu.7 D.F.F.F.F.C.7.7.-.e X   ",
"    - r.D.H.A.A.F.F.F.H.>.1 0XjXjXjXjXjXjXjXjXjXjXjXjXjXjXjXjXjXjXjXjXjXjXjXjXjXjXjXjXjXjXjXjXjXjXjXjXjXjXjXjXjXjXjXjXjXjXjXjXjXjXjXu.7 N.S.F.F.F.F.J.H.G.$.O   ",
"    - r.D.D.S.S.S.S.D.F.>.1 0XjXjXjXjXjXjXjXjXjXjXjXjXjXjXjXjXjXjXjXjXjXjXjXjXjXjXjXjXjXjXjXjXjXjXjXjXjXjXjXjXjXjXjXjXjXjXjXjXjXjXjXu.7 N.S.F.F.F.F.A.A.H.W o   ",
"    - 0.C.C.C.C.C.m.m.C.-.1 0XjXjXjXjXjXjXjXjXjXjXjXjXjXjXjXjXjXjXjXjXjXjXjXjXjXjXjXjXjXjXjXjXjXjXjXjXjXjXjXjXjXjXjXjXjXjXjXjXjXjXjXu.3 m.C.C.C.C.C.C.C.C.E o   ",
"    $ m H N H H H H H H h < 0XjXjXjXjXjXjXjXjXjXjXjXjXjXjXjXjXjXjXjXjXjXjXjXjXjXjXjXjXjXjXjXjXjXjXjXjXjXjXjXjXjXjXjXjXjXjXjXjXjXjXjXu.> N H H K H H N H H i @   ",
"  e ` 4.7.7.8.7.7.7.7.7.Q 1 0XjXjXjXjXjXjXjXjXjXjXjXjXjXjXjXjXjXjXjXjXjXjXjXjXjXjXjXjXjXjXjXjXjXjXjXjXjXjXjXjXjXjXjXjXjXjXjXjXjXjXjXu.2 4.7.7.7.7.7.7.7.7.4.R 1 ",
"# r D.F.H.H.H.H.H.H.H.G.,.1 0XjXjXjXjXjXjXjXjXjXjXjXjXjXjXjXjXjXjXjXjXjXjXjXjXjXjXjXjXjXjXjXjXjXjXjXjXjXjXjXjXjXjXjXjXjXjXjXjXjXjXjXu.3 M.G.F.F.F.F.H.F.F.H.q.* ",
"O q D.F.A.b.c.9.0.C.D.S.>.1 0XjXjXjXjXjXjXjXjXjXjXjXjXjXjXjXjXjXjXjXjXjXjXjXjXjXjXjXjXjXjXjXjXjXjXjXjXjXjXjXjXjXjXjXjXjXjXjXjXjXjXjXu.7 N.F.F.m.c.8.0.C.D.H.6.# ",
"O w F.F.A.{ K ( N v.D.S.>.1 0XjXjXjXjXjXjXjXjXjXjXjXjXjXjXjXjXjXjXjXjXjXjXjXjXjXjXjXjXjXjXjXjXjXjXjXjXjXjXjXjXjXjXjXjXjXjXjXjXjXjXjXu.7 N.F.F.| K U M c.D.H.6.# ",
"O w D.D.S.( P.6XI x.D.N.>.1 0XjXjXjXjXjXjXjXjXjXjXjXjXjXjXjXjXjXjXjXjXjXjXjXjXjXjXjXjXjXjXjXjXjXjXjXjXjXjXjXjXjXjXjXjXjXjXjXjXjXjXjXu.7 N.F.D.{ M.5X( c.F.H.6.# ",
"O q D.F.S.( ) Z.N x.D.A.>.1 0XjXjXjXjXjXjXjXjXjXjXjXjXjXjXjXjXjXjXjXjXjXjXjXjXjXjXjXjXjXjXjXjXjXjXjXjXjXjXjXjXjXjXjXjXjXjXjXjXjXjXjXu.7 N.F.F.{ ( B.N 9.D.F.6.# ",
"O q D.F.A.7.{ { } m.D.D.>.; 0XjXjXjXjXjXjXjXjXjXjXjXjXjXjXjXjXjXjXjXjXjXjXjXjXjXjXjXjXjXjXjXjXjXjXjXjXjXjXjXjXjXjXjXjXjXjXjXjXjXjXjXu.7 N.F.F.c.} ( ) b.D.F.6.# ",
"O q D.F.D.D.F.F.S.N.N.D.>.; 0XjXjXjXjXjXjXjXjXjXjXjXjXjXjXjXjXjXjXjXjXjXjXjXjXjXjXjXjXjXjXjXjXjXjXjXjXjXjXjXjXjXjXjXjXjXjXjXjXjXjXjXu.7 N.F.F.S.S.F.D.D.F.J.6.# ",
"O q D.F.D.C.C.C.m.N.D.A.>.3 0XjXjXjXjXjXjXjXjXjXjXjXjXjXjXjXjXjXjXjXjXjXjXjXjXjXjXjXjXjXjXjXjXjXjXjXjXjXjXjXjXjXjXjXjXjXjXjXjXjXjXjXT.9 Z.F.F.C.C.C.m.C.F.F.6.# ",
"O q F.F.D.} J J K b.D.S.0.V eXjXjXjXjXjXjXjXjXjXjXjXjXjXjXjXjXjXjXjXjXjXjXjXjXjXjXjXjXjXjXjXjXjXjXjXjXjXjXjXjXjXjXjXjXjXjXjXjXjXjXjX:XB S.F.F.} J J H x.D.F.6.# ",
"O q F.F.A.( p.~.J x.D.S.x.U eXjXjXjXjXjXjXjXjXjXjXjXjXjXjXjXjXjXjXjXjXjXjXjXjXjXjXjXjXjXjXjXjXjXjXjXjXjXjXjXjXjXjXjXjXjXjXjXjXjXjXjX:XI S.F.D.) ..~.J 0.D.G.6.# ",
"O q D.F.D.( ] K.J v.D.F.0.g rXjXjXjXjXjXjXjXjXjXjXjXjXjXjXjXjXjXjXjXjXjXjXjXjXjXjXjXjXjXjXjXjXjXjXjXjXjXjXjXjXjXjXjXjXjXjXjXjXjXjXjX$Xf N.F.D.) [ K.A 0.D.G.6.# ",
"O q F.D.N.2.L L ( m.D.F.>.1 0XjXjXjXjXjXjXjXjXjXjXjXjXjXjXjXjXjXjXjXjXjXjXjXjXjXjXjXjXjXjXjXjXjXjXjXjXjXjXjXjXjXjXjXjXjXjXjXjXjXjXjXu.7 N.F.F.7.I L Y v.D.H.6.# ",
"O q F.D.N.D.Z.Z.D.A.D.F.>.1 0XjXjXjXjXjXjXjXjXjXjXjXjXjXjXjXjXjXjXjXjXjXjXjXjXjXjXjXjXjXjXjXjXjXjXjXjXjXjXjXjXjXjXjXjXjXjXjXjXjXjXjXu.7 N.F.F.D.D.Z.Z.D.D.G.6.# ",
"O q F.F.N.D.Z.Z.Z.A.D.D.,.1 8XkXfXfXgXgXfXfXfXfXfXfXfXfXfXfXfXfXfXfXfXfXfXfXfXfXfXfXfXfXfXfXfXfXfXfXfXfXfXfXfXfXfXfXfXfXgXhXfXfXfXkXu.7 N.F.D.D.Z.Z.C.N.D.F.6.# ",
"O q F.F.D.2.L L ( b.D.D.,.# y @.@.*.t.L.<.@.@.@.@.@.@.@.@.@.@.@.@.@.@.@.@.@.@.@.@.@.@.@.@.@.@.@.@.@.@.@.@.@.@.@.@.@.@.@.e.L.e.@.@.@.0 8 N.F.F.7.I L Y 0.D.F.6.# ",
"O w D.S.A.( ' s.H x.D.D.6.6 j j j l ) ) V j j j j j j j j j j j j j j j j j j j j j j j j j j j j j j j j j j j j j j j ` } Q j l c r z N.A.F.) ' s.J 9.D.F.6.# ",
"  e L.N.N.) a.~.L w.H.H.w.C r.L.L.B.P.B.B.B.B.B.B.B.B.B.B.B.B.B.B.B.B.                        B.B.B.B.B.B.B.B.B.B.B.B.B.B.B.L.L.P.P.;./ L.B.B._ a.`.^ w.P.P.q.- ",
"                                                                                                                                                                ",
"                                                                                                                                                                ",
"                                                                                                                                                                ",
"                                                                                                                                                                ",
"                                                                                                                                                                ",
"                                                                                                                                                                ",
"                                                                                                                                                                ",
"                                                                                                                                                                "
};
