/* XPM */
static char *_a38c14a74d140dbbc72ac66fcb6f8315ncjFIuFIcricnB2[] = {
/* columns rows colors chars-per-pixel */
"80 80 218 2 ",
"   c None",
".  c #050307",
"X  c #06050B",
"o  c #08060C",
"O  c #06080D",
"+  c #0A090D",
"@  c #070612",
"#  c #0A0714",
"$  c #070913",
"%  c #0B0B13",
"&  c #0B0D1A",
"*  c #100F11",
"=  c #0E121B",
"-  c #0D1016",
";  c #12131D",
":  c #0B0D21",
">  c #0D1124",
",  c #0E132E",
"<  c #131523",
"1  c #171B25",
"2  c #191B26",
"3  c #14152B",
"4  c #151A2B",
"5  c #181C2B",
"6  c #181727",
"7  c #0F1F38",
"8  c #131731",
"9  c #151A34",
"0  c #1A1B34",
"q  c #161B3A",
"w  c #1A1E3A",
"e  c #1E232F",
"r  c #1D2431",
"t  c #1C233B",
"y  c #162838",
"u  c #22252F",
"i  c #222735",
"p  c #252A37",
"a  c #242A3B",
"s  c #292D3A",
"d  c #141D43",
"f  c #1C2243",
"g  c #1D244B",
"h  c #162745",
"j  c #1E3F43",
"k  c #193348",
"l  c #1E2957",
"z  c #1E2A5C",
"x  c #1E275B",
"c  c #15385E",
"v  c #212445",
"b  c #2B2F44",
"n  c #21264B",
"m  c #232B4D",
"M  c #282E46",
"N  c #2E3546",
"B  c #2E354A",
"V  c #27374D",
"C  c #303747",
"Z  c #303749",
"A  c #34394A",
"S  c #313846",
"D  c #212752",
"F  c #222952",
"G  c #232C5D",
"H  c #292E5F",
"J  c #263153",
"K  c #25325E",
"L  c #2A355E",
"P  c #2C385D",
"I  c #2C3556",
"U  c #333C55",
"Y  c #373D58",
"T  c #1E2B61",
"R  c #1E3767",
"E  c #252E60",
"W  c #243362",
"Q  c #2A3562",
"!  c #243A64",
"~  c #2C3A65",
"^  c #22346B",
"/  c #29366A",
"(  c #253C6C",
")  c #2D3B6A",
"_  c #323D65",
"`  c #323E69",
"'  c #233472",
"]  c #273B78",
"[  c #1E4144",
"{  c #22424A",
"}  c #3B4256",
"|  c #3B455B",
" . c #38455C",
".. c #1F406C",
"X. c #1B477A",
"o. c #23416C",
"O. c #2B406C",
"+. c #264669",
"@. c #3A4464",
"#. c #34436C",
"$. c #39466D",
"%. c #3B496E",
"&. c #3A4463",
"*. c #2F5761",
"=. c #284678",
"-. c #374672",
";. c #3B4671",
":. c #364B72",
">. c #3C4A73",
",. c #33457B",
"<. c #3F4E79",
"1. c #3C5072",
"2. c #2C5773",
"3. c #37686D",
"4. c #41485B",
"5. c #434D64",
"6. c #434D6B",
"7. c #465066",
"8. c #47546C",
"9. c #49556D",
"0. c #4C596D",
"q. c #485165",
"w. c #505A6E",
"e. c #424E75",
"r. c #414E79",
"t. c #445376",
"y. c #4A5674",
"u. c #4E5974",
"i. c #45537A",
"p. c #49567B",
"a. c #45597D",
"s. c #4B5B7D",
"d. c #475870",
"f. c #545F7C",
"g. c #515D75",
"h. c #53637C",
"j. c #58617D",
"k. c #263E88",
"l. c #224184",
"z. c #2A448A",
"x. c #314788",
"c. c #24548C",
"v. c #2B5A87",
"b. c #365F8B",
"n. c #395B82",
"m. c #2B4894",
"M. c #315C94",
"N. c #2C6887",
"B. c #3A658A",
"V. c #346A8B",
"C. c #3E6187",
"Z. c #34728E",
"A. c #334FA1",
"S. c #2C51AC",
"D. c #2D51A4",
"F. c #3251A7",
"G. c #355CBC",
"H. c #2F53B1",
"J. c #3979AA",
"K. c #3461BF",
"L. c #495680",
"P. c #4D5C83",
"I. c #475881",
"U. c #515E84",
"Y. c #4E6284",
"T. c #406E8F",
"R. c #546384",
"E. c #5A6783",
"W. c #566A86",
"Q. c #5B6986",
"!. c #556589",
"~. c #59678A",
"^. c #56698A",
"/. c #566A8A",
"(. c #596A8A",
"). c #5A6B8D",
"_. c #5A6D8C",
"`. c #5A6A8C",
"'. c #5B6C90",
"]. c #576B91",
"[. c #437A9A",
"{. c #626B86",
"}. c #616D88",
"|. c #445EA6",
" X c #4578A4",
".X c #4473AA",
"XX c #3765C9",
"oX c #346CD9",
"OX c #376AD4",
"+X c #3672D6",
"@X c #3D809B",
"#X c #3C898F",
"$X c #478C8F",
"%X c #4888A9",
"&X c #499AB4",
"*X c #4C96A1",
"=X c #50A3BD",
"-X c #5AB6BC",
";X c #4195CC",
":X c #4696D7",
">X c #4385CD",
",X c #45A5DA",
"<X c #55B2D0",
"1X c #65B0CC",
"2X c #489CE8",
"3X c #47A8E4",
"4X c #44B6E6",
"5X c #50ABEA",
"6X c #5EC4D4",
"7X c #5AC0D9",
"8X c #68D2DD",
"9X c #60C2D4",
"0X c #64DAE6",
"qX c #66E0E6",
"wX c #67E3EE",
"eX c #63E6F1",
"rX c #61ECF8",
"tX c #6DF1F6",
/* pixels */
"                                                                                                                                                                ",
"                                                                                                                                                                ",
"                                                                                                                                                                ",
"                                                                                                                                                                ",
"                                                                                                                                                                ",
"                                                                6 2 e e e e e e e e e e e e <                                                                   ",
"                                                    & = = & ; < v 6.Q.Q.Q.Q.Q.Q.Q.Q.Q.E.Q.U.J 4 ; ; & ; &                                                       ",
"                                        & # # # # : n 6.&.P s.s._ >.^.(.`.`.`.`.`.`.`.^.^.U.P t.h.6.I y.I 4 # # % % %                                           ",
"                            X X X . X i 5.5.7.7.5.5.K P.>.) `.(.P.;.%.^.(.(.`.).).).(.^.s.#.s.R._.i.Q R.~ &.7.7.7.7.7.A $ . . . . +                             ",
"                          s N N Z Z B | R.<.;.P._.R.W s.P.;.e.!.`.;._ (.(.e.;.;.;.;.R.(.t.Q !.`.a.;.t.R.~ i._.!.>.;.P.d.A B B B C S                             ",
"              p i r u u 4 U W.W.s.i.R._.Y.W z >.`.R.$.<.U.p.Q !.`.i.$.i.i.C.V.V.V.B.n.i.>.$.R.`.$.` !.i.$.s._.P.G l <._.(.s.L.R._.u.9 r i r r p                 ",
"            5 5.Q.E.E.E._ %.`.!.Q z ;.`.!._ G -.R.^.!.) >.s.` P.^./.i.W =.<XeXeXeX0XZ.! #.~.W.R.;.;.P.Q P.(.R.i.E L t.(.U.K G i._.s.L s.E.Q.Q.h.i               ",
"          5 8.R.^.!.^.^._ >.'.!.Q G ;.!.(.R.` G #.W.R.` >.~.P.Q s.W.i.=.1X0XqXqXqX0X8XT.` !.R.` r.!.P.Q s.^.i.W E p.^.(.P.G G t._.P.L P.(.^.^.!.h.s             ",
"        i 7.!.;.~ ~ ` R.#.>.'.`.P.) Q ;.^.!.) z ` ^.W.P.>.>.U.Q s.t.Q G V [ { j j [ [ k H #.R.~ r.P.` L.R.^.i.G G P.^.a.) G e.R._.U.L P.e.~ ~ O.R.u.A ;         ",
"      s | W./.) n.[.K U.i.>.r.^.^.` x ~ !.W.i.<.i.^._._.>.Q ` 9 a t d g @ +         . 8 g 9 M 9 J _ Q !.(.(.R.e.e.R./.i.G G P.(.s.>.e.!.#.v. X! s._.9.A         ",
"    O N _.`.~.` B.%XW P.`.;.~ !.W.<.` ;.W.W._.`.!.t.| } M f g $ + . > v #           # 9 w . # @ 9 n v Y } 6.P./.^._./.a.#.#.P.(.<.~ R.(.O.v.%X! P._._.8.&       ",
"      s g.(.!.-.Q Q ) R.`.>._ ^.W.^./.R.s.d.0.u.e.F $ + O > n $     3 t #           o 6 w +   O 0 w O # O 9 _ u.0.0.s.Y./.~.^.(.e.~ !.(.>.Q Q ) Y.(.R.4.;       ",
"        i R.^.!.!.R.R.(.).>.~ R.R.h.R.y.J < - & 3 v $     < v @       $ #           + + =     O 0 w #   O 9 f & - & t $.R.h.h.R.<.) ~.).~.!.!.R./.(.} ;         ",
"        = _ R.(.Q./.W.(.`.e.K P r 1 1 t g &   % > v $       < O                               O $ 6     . 9 w O   @ 0 v 4 1 4 m Q ~ ~.).).).(.W./.:.y +         ",
"        y %X:.s.`.^.^.^.`.Y q g $   o : n $       < $                                                   O & 4     X 0 0 O   O 9 f f R.).).`.Q.!.:.[.3.+         ",
"        [ 8X@Xn.P.).`.^._.Z : n &     6 0 O         %                                                     +       . < 0     O q q < E.).).).R.a.V.6X$X+         ",
"        [ qXwXV.$.`.`.`.).Z & t $       # o                                                                       + .       o 8 3 < R.`.).).P.o.9XtX$XO         ",
"        [ 0XwXV.$.`.`.`.).Z X % +                                                                                           % $ # < R.`.`.).P.o.7XrX#XO         ",
"        k 4X4Xv.;.`.`.`.).Z o                                                                                                     < h.`.(.).P.( ;X4XZ.O         ",
"        k ,X3Xc.-.`.`.`._.B O                                                                                                     < R.`.`.`.P.( ;X4XN.O         ",
"        k ,X3Xc.$.`./.(._.N O                                                                                                     6 R.`.`.`.P.( ;X4XN.$         ",
"        h :X2Xc.$.).`.(._.N O                                                                                                     < R.`.`.`.P.( >X2Xv.$         ",
"        h XXOXl.;.).`.(._.N O                                                                                                     < R.`.`.`.P.' K.+X=.@         ",
"        d XXOXk.;._._.(._.N .                                                                                                     6 R.(.(.`.P.' G.oX] @         ",
"        d XXoXG.x.1.W.Q._.N .                                                                                                     < R.`.(.s.,.D.OXoXk.@         ",
"        9 A.S.S.k.Q i.!.'.Z X                                                                                                     < R.`.P.#.^ F.S.F.E @         ",
"      * : G T G G G K p.U.b .                                                                                                     < p.P.) z G T z E q O         ",
"    2 $ 3 F G G E G W Q Q 0 .                                                                                                     & J Q W E E E G G w $ ;       ",
"  & } y.y.P.P.P.P.P.P.P.U.b .                                                                                                     < y.P.P.P.P.P.P.P.s.9.q.2     ",
"  O | '.`._.].'.'.'.'.`._.C .                                                                                                     < R.`.`.`.`.`.(.^.(._.h.<     ",
"  O | _._._.`.'.'.'.`.`._.B .                                                                                                     < R.`.`.`.`.`.(.^./._.h.;     ",
"  O S u.P.P.^.`.'.'.`.`._.B .                                                                                                     6 R.`.`.`.`./.`.U.P.s.5.=     ",
"  . $ y ! O.P.`.`.'.'.`._.B .                                                                                                     6 R.`.`.`.(.`.!.:.! k & .     ",
"    O *.6X<X:.p.`.`.`.`._.N .                                                                                                     < R.`.`.`.(.!.#.%X6X*X=       ",
"    . 3.tX0X+.t.`.(._.`._.N .                                                                                                     < R.`.`.`.(.!.! =XtX-X=       ",
"    . { &X%X! t.`.(.^.`._.N .                                                                                                     < R.`.`.`.`.!.Q Z.&XZ.%       ",
"    O 7 X.X.W i.`.(.^._._.Z O                                                                                                     6 h.`.`.`./.!.Q R X.c #       ",
"    X +.,X:X( i.`.(.`.W.R.A %                                                                                                     5 g.W.(.(._.!./ J.3XJ.&       ",
"    X +.5X:X( t.).`.(.E.N 2                                                                                                         5 d.`.).(.!./ .X5X%X&       ",
"    @ h v.c.W i.).`.`.Q.e                                                                                                           # 8._.`.`.!.Q =.M.o.#       ",
"    @ d z.z.W i.`.`.`.Q.r                                                                                                           $ 8.'.`.`.!./ ] m.^ $       ",
"    @ T OXXX' i.`.`.`.W.r                                                                                                           # 8.'.`.`.!./ F.oXD.&       ",
"    $ z XXG.' i.`.`.`.W.r                                                                                                           # 8.'.`./.!.) A.XXm.&       ",
"  % $ q / ] L.!.`.`.`.W.r                                                                                                           # 8.'.`.`.^.U.,.' z $ %     ",
"  . s 6.i.p.~.`.`.`.`.W.r                                                                                                           $ 8.'.`.`.`.`.P.i.e.Y =     ",
"  O 4._.`.`.`.`.`.`.`.Q.r                                                                                                           # 8._.`.`.`.`._._.`.j.<     ",
"  O | _.`.`.^.`././.`.W.r                                                                                                           # 8._.`./././././.(.f.;     ",
"  O } !.!.!.R.R.R.R.R.R.r                                                                                                           # 6.!.!.!.!.!.R.R.!.s.;     ",
"  $ f Q Q Q Q L L L L L <                                                                                                           $ m Q Q Q Q Q Q Q Q K :     ",
"2 } e.p.p.p.i.p.p.t.i.t.5                                                                                                           #  .i.i.t.t.p.i.i.i.t.@.s   ",
"= u./.^._._._._._._.(.~.r                                                                                                           # 9.).(.`.`._._._.`.`.`.p o ",
"& u./.W.R.P.p.s.Y.(.(.^.r                                                                                                           % 8._.`.!.P.P.I.U.(.(.Q.i . ",
"% u._.^.a.W ( W >.`.(.^.r                                                                                                           # 8.`.`.P.W ( W $.Q.(.Q.i . ",
"% u.`.`.I...1Xb.-._.(.^.r                                                                                                           # 8._.`.P.( 1XB.#.(.(.`.i . ",
"% u._.^.a.R b.o.;.`.`.W.r                                                                                                           # 9.`.`.P.W b.O.#.(.(.(.i . ",
"% u._.^.Y.;.-.-.s.`.`.W.r                                                                                                           # 8.).`.!.>.$.$.t.(.`.(.i . ",
"% u._./.^.`._.`.`.`.`.W.e                                                                                                           # 8.).`.(.(.`.^.W.(.`.Q.i . ",
"% u._.^.^.!.!.!.!.`.`.W.i ;                                                                                                         = y.).`.^.R.R.R.!.`.(.Q.i . ",
"% u._.^.s.! ^ W e.`./.^._ 9 ;                                                                                                     < n P._.`.U.Q ! W >.~.(.(.i X ",
"% u._.(.s.^ .X=.;.).`./.#.n w <                                                                                                 5 f H P./.`.P.W .X=.#.`.(.(.i X ",
"% u._.(.s.R M.o.;.`.`.`.V f g 9                                                                                               3 f D w u.^.`.U.W b.o.#.`.(.(.i X ",
"% u._.^.P.` ) _ t.`.`.(.r > g F 3                                                                                           6 f D q & 9.`.`.R.#.) ` e.(.(.(.i O ",
"% u._.W.(././.(.`.`.`.(.r O 3 m m 3                                                                                       & g F w @ # 9._.`.`.`.(.^.^.(.`.(.i O ",
"% u._.W.W.^./.^.`.`.`.(.e +   > n n 9 <                                                                                 3 f F 8 <   & 9.`.`.`.`.`.^.R.(.`.(.i O ",
"% u._.^.s.#.) ) t.`.`.~.r . + O : g g 0 % o X . . . . . . . . . . . . . . . . . . . . . . . . . . . . . X X . . O O + 3 f D , @ # # $ 9.`.`.R.#.` ) >.^.`.(.i O ",
"% u.`./.a.W z.' ;.).`.~.V t C Z B @.>.&.B C C C C C C C C C C C C Z C C C C C C C C C C C C C Z C C C C C C C C Z Z C U >.>.U Z A b w u._.`.P.W z.' #.^./.(.i . ",
"; w.Q.Q.s./ |.,.>.`.Q.Q.@.6.{.{.{.}.Q.{.{.}.}.}.}.}.}.}.}.}.}.}.}.}.}.}.}.}.}.}.}.}.}.}.}.}.}.}.}.}.}.}.}.}.}.}.{.}.}.{.Q.Q.{.{.{.f.I f._.Q.f./ |.x.%.Q.(.Q.p   ",
"                                                                                                                                                                ",
"                                                                                                                                                                ",
"                                                                                                                                                                ",
"                                                                                                                                                                ",
"                                                                                                                                                                ",
"                                                                                                                                                                ",
"                                                                                                                                                                ",
"                                                                                                                                                                "
};
