/* XPM */
static char *enemy1710261099[] = {
/* columns rows colors chars-per-pixel */
"50 50 224 2 ",
"   c None",
".  c #080F17",
"X  c #091017",
"o  c #0A121A",
"O  c #071119",
"+  c #0F1A24",
"@  c #0D1720",
"#  c #121F29",
"$  c #111D25",
"%  c #15222C",
"&  c #1B242C",
"*  c #1B2A35",
"=  c #162D3A",
"-  c #182935",
";  c #1C313E",
":  c #24323C",
">  c #1C3343",
",  c #1D384A",
"<  c #1E3E52",
"1  c #193E58",
"2  c #223644",
"3  c #243D4C",
"4  c #283B47",
"5  c #233F51",
"6  c #1D425B",
"7  c #1E4157",
"8  c #2C424D",
"9  c #254254",
"0  c #2A4455",
"q  c #23455B",
"w  c #2B4659",
"e  c #26485E",
"r  c #2D4A5D",
"t  c #334D5D",
"y  c #3C4E5B",
"u  c #3D535E",
"i  c #244B63",
"p  c #2C4D63",
"a  c #244E69",
"s  c #294F69",
"d  c #314F62",
"f  c #2D536C",
"g  c #29526A",
"h  c #325165",
"j  c #3A5565",
"k  c #34556B",
"l  c #35586F",
"z  c #3B5A6D",
"x  c #3A576B",
"c  c #2C5974",
"v  c #2A5975",
"b  c #345B73",
"n  c #3A5C73",
"m  c #365D79",
"M  c #365B75",
"N  c #2F617D",
"B  c #3F6176",
"V  c #35617B",
"C  c #3C627B",
"Z  c #336177",
"A  c #4A575F",
"S  c #435967",
"D  c #405D71",
"F  c #575E65",
"G  c #426275",
"H  c #43647B",
"J  c #44697E",
"K  c #4A6A7F",
"L  c #48677C",
"P  c #576C79",
"I  c #576D77",
"U  c #697176",
"Y  c #356584",
"T  c #3C6582",
"R  c #3D6A85",
"E  c #3D6C8B",
"W  c #366B8A",
"Q  c #3C7294",
"!  c #3F779A",
"~  c #336D8E",
"^  c #3F79A1",
"/  c #446983",
"(  c #4A6C84",
")  c #446E8A",
"_  c #4A6E89",
"`  c #4D7284",
"'  c #4C738C",
"]  c #48748B",
"[  c #52758B",
"{  c #53798E",
"}  c #577588",
"|  c #447493",
" . c #457699",
".. c #457A9A",
"X. c #4B7B9C",
"o. c #4B7792",
"O. c #537B95",
"+. c #5A7E93",
"@. c #547E9B",
"#. c #547A96",
"$. c #647987",
"%. c #497DA2",
"&. c #398AAE",
"*. c #4C819C",
"=. c #5B839B",
"-. c #55879C",
";. c #5E828E",
":. c #7A858C",
">. c #62859A",
",. c #67899A",
"<. c #768D9B",
"1. c #6A909D",
"2. c #4A88AD",
"3. c #4A85A6",
"4. c #5383A4",
"5. c #5A86A2",
"6. c #5D89A5",
"7. c #548BAD",
"8. c #5589A8",
"9. c #5D93AD",
"0. c #4C8CB5",
"q. c #498AB3",
"w. c #538CB2",
"e. c #508FB8",
"r. c #5996B7",
"t. c #4393B0",
"y. c #638CA4",
"u. c #648CA7",
"i. c #6A92A6",
"p. c #6492AC",
"a. c #6A96AB",
"s. c #7496A9",
"d. c #6A9BB2",
"f. c #6599B6",
"g. c #739BB1",
"h. c #5DA0BF",
"j. c #68A4BC",
"k. c #73A4BC",
"l. c #79A5B8",
"z. c #4992C1",
"x. c #569AC1",
"c. c #5AA7C6",
"v. c #4AABCC",
"b. c #63A4C3",
"n. c #6AACCA",
"m. c #7CADC3",
"M. c #6CB1CB",
"N. c #76B2C9",
"B. c #79BBD3",
"V. c #6BB8D1",
"C. c #78C6DB",
"Z. c #7CCDE1",
"A. c #7FD1E4",
"S. c #838E96",
"D. c #8A9EA9",
"F. c #9AA5AB",
"G. c #83A5B6",
"H. c #86ABBB",
"J. c #97ACB9",
"K. c #ADB5BB",
"L. c #8BAFC1",
"P. c #8CBBCC",
"I. c #84B6C8",
"U. c #95B9C8",
"Y. c #8ABED3",
"T. c #93B7CD",
"R. c #A8BCC5",
"E. c #98C1CE",
"W. c #83C5DB",
"Q. c #8BCBDC",
"!. c #87C5D8",
"~. c #94C3D4",
"^. c #93CADA",
"/. c #9AC8D7",
"(. c #B8C5CD",
"). c #A4CCDA",
"_. c #A5C8D5",
"`. c #B7CCD4",
"'. c #A5D1DE",
"]. c #B5D0DA",
"[. c #89CEE2",
"{. c #86D1E3",
"}. c #8BD2E4",
"|. c #93D4E4",
" X c #9ED6E4",
".X c #9BDCEB",
"XX c #96D9E9",
"oX c #ABD8E4",
"OX c #A3DDEB",
"+X c #ACDEEA",
"@X c #A5D7E5",
"#X c #B6DBE6",
"$X c #ADE1ED",
"%X c #A6E2EE",
"&X c #B4E2ED",
"*X c #BBE4ED",
"=X c #ADE5F1",
"-X c #BCE9F2",
";X c #C8D3D9",
":X c #D4DADE",
">X c #C6DBE5",
",X c #D5DEE3",
"<X c #DADFE1",
"1X c #C1E4ED",
"2X c #CDE2EA",
"3X c #D8E4E9",
"4X c #C5E9F1",
"5X c #CCEBF3",
"6X c #D3EDF4",
"7X c #DCEEF3",
"8X c #DBF1F6",
"9X c #DFF4F8",
"0X c #D3F2F7",
"qX c #C1F4F9",
"wX c #E5EEF2",
"eX c #E3F2F6",
"rX c #ECF2F5",
"tX c #E4F5F9",
"yX c #EAF6F9",
"uX c #ECF9FC",
"iX c #F5FBFC",
"pX c #FCFEFE",
"aX c #F1F5F6",
"sX c #E3E9EB",
/* pixels */
"                                                                                                    ",
"                                      rX                                                            ",
"                                      >X          ,X                                                ",
"      ,XiXpX      +X&X4X0XeX0X6X4X*X-XtXiXiX      ;XrX                          iX                  ",
"          rX7X  s.l.l.I.T.,XiX6X@X  @X&X8XuXuXtX`._.iX            tX              pX                ",
"          U.7X2X>.( ) Q %.>.;XiX>X        @X1X4X5X).uX7X4X        1XpX            yXpX              ",
"            L.6X>X+./ T R / ( ).wXi.@.4.e.          6XyX4X5X4X@Xd.).tXpX          oXyX              ",
"              I.+X/.p.' ( D x =.5X(.[ _ _ %.w.f.k.a.).iX6X+X&X4X].P.5XiX          /.-XuX            ",
"              o.M.A.{.Q.U.i.L L P.tX<.( / ( )  .X.( g.yXiX#X+X*X#XG.@X9X            OX8X            ",
"                @.    [.    =.D o.#X;X} ( ( / ( ) n y.#XiX3X    P.d.I.&X3X          +X-X8X          ",
"                  X.e.x.c.n.f.D G r.*XJ.( L ( K ( D _ /.yXiXJ.y.#XG.i.|.tX).C.      5XXX8X          ",
"                  n C E Q ! X.H D J n.|.l.i.} ( / D L m.6XpX,XJ.  ~.;.B.5X2XI.}.  `.uX{.5XtX        ",
"                  0 0 w r p k x z D Q C.OXXX[.P.g.` D d.+XiXpX3X    >.d. XeXH.^.^.`.iXXX.XtX        ",
"                  r 0 9 9 5 5 5 0 z n | 7.r.x.b.n.=.n 5.Q.7XpXiX_.  l.+.C.6X(.a.oX3XiX*X{.0XyX      ",
"                  h h h d r w 5 3 w h d k M m m n n x #.M.}.tXpX3Xs.l.#.j.%X3X>.  2XiX5X.X%X6X      ",
"                  G n n n l k p 0 3 3 9 5 5 9 w 5 5 w (   n.OXeXiX;X+.[ =.{.6X<.p.*XiX0X-X%X>X      ",
"                ].E.I.I.k.d.i.[ B r w [ n p r p 5 > > s #.    .X0XiX;X} ( V.XX(.s.wXuX      f.      ",
"              iXpXiXiXuX0X&X5X  k.J t [ u.( H D 5 = S , r _     [.4XiX<X:.f.A.7XR.9X        @._     ",
"            pXpXpXpXpXpXtX8X2X    d.z x s.=.{ D > = P P > w T w.  W.-XuXsXs.C.$XI.        X./       ",
"          aXeX3X<X3X:X2X2X;X        [ j l.d.#.( 5 , q l , = 5 l %.  B.#XyXJ.k.}.l.      %.B d       ",
"        G.s.i.i.i.s.i.,.1.1.        J ;.^.l.5.U.i.q N ~ Y 1 = , k  .0.b.Y.u.( y.-.r.x.! b e p       ",
"        *.o.X.*.3.r.r.-.*.K a.    8.J I.~.  u.m.  1.a &.v.v.v > 2 p T  . .B t x r W E Z N s /       ",
"      ' R R R Q Q ..*...R H K k.  ` 6.!.    p.@.l.  >.W c.v.&.a = ; 2 0 t 3 9 h p r h 3.t.C -.      ",
"      n Z Z V V C C Y R C z n [ =.G M.B.    8._ ( d.  p.-.E c f h w 5 4 3 9 d x l t r N B ;.[       ",
"    B r e i s g f f f k n h d z j o.M.    w. ./ [ =.p.    x.p.L.J.s.o.' 5.l.G.H.s.=.G.H.L.J.        ",
"  ' p q 7 7 7 q q q 9 9 9 3 2 2 > 4.b.    %./ n G p.8.e.    #XwX3XD.u.6.    -XOXoXH.  -X=X5X        ",
"  n e i 6 1 6 6 1 5 > # @ o o o % ] b.  w.) D p > {   0.  n.rXpXF.4 ' 7.B.  *X5XeX<.d.%X%X9XrX      ",
"{ n g g a 6 6 6 6 5 = @ X O O O $ J M.   ./ x * o 3 d.r.z.T.pX,X4 o w w.M.  5XiXF.y #.  %X0XiX      ",
"n l l k f 6 1 7 5 w 2 @ . . o . o n N.9./ M > & o @ x b.0.2XrXS o o % / M.-XtX;X: * G l.  2XuX      ",
"x n l l k i 7 q p d 3 o o o . O o u k.) n 5 + $.:.@ $ ( j.yXS.o X X X ; 9.=X9XU X o w =.` I aX      ",
"h z n k k i q a p z w o . O O . O 8 =.B p $ - J.rXS . : G.F.& . @ 4 % o h OXK.& . . & j - -         ",
"  l l l c a i p l L y @ o o . . . : ` h - % h H.pX;X2 . 4 : . o 2 K.$.o & U.A . . @ % * +           ",
"  n n M M f s f C ( j % . X X X O $ 2 % + w / l.9XpXF.% . o X * ( #X,X4 . : @ . o y D.# $           ",
"  n l M m M k M n H G * X X X X X X X O 2 C X.b.1XiXpX:.@ . $ z 4.^.tXS.@ . . . % y.6XU @           ",
"  z n m C J G H C ' >.8 o X . . X X X % z @.2.b.$XtXpXaXI $ w X.0.W.#XsXA . . @ r f.+X;X& %         ",
"  z n m J ' { y.a.H.).P.;.j 8 * % o @ 0 o.8.2.r.OX5XiXpX3XP / X.e.[.}.9XR.& o ; _ p.{.tXF $ j ;XiX  ",
"    n n / #.l.  oX X|.}.|.}.Q.!.d.` z H 5.2.q.2.XX4X9X8X0XG.J  .  W.{.=XuX$.% h 4.r.Z.0XK.8 G ~.5X  ",
"    n m T _ H.  oX@X X|.}.{.{.[.|.Q.y.-.5.7.2.2.}.&X5X-X).[ m | 0.W.XX}.&X_.D _ X.e.C.XX2XP K Y.+X  ",
"    z n M m Y 9.  ^.~.E.~.~.!.^./.H.=.6.9.  e.t.Q.OX*X#Xg.H B E q.Y..X}.{.oXs.( ..r.Z.Z.*X,.( E.    ",
"    x l M M c m M.C.!.    p.y.a.y.,.y.d.      r.M..X&X  } G B Y ^ B..X{.|./.+.H W 2.XXXXm.[ [ Y.    ",
"    h k l n f a T B.C.!.    8.4.E M n / | 8.7.  b.Q.^.a.L H H Y Q M.XX|.'.g.H n M ~ C.f.T l H +.    ",
"    r k k p p a s Q C.Z.      X.Y b c k f l V E 3.n.  u./ H n V ~ j..X XI.@.B k g v ~ ~ T k d k     ",
"      p q q q q i g *.C.W.    X.C n n b c l c c Y 7.  p.( L n C W 2.[.^.  O.H d g v v Q R h p       ",
"      < 5 5 9 9 e a v 3.C.!.  r. .Y b b l k f N Y 4.  p._ D C C Y !       o.H k g v Y %.] k b       ",
"        < < 5 5 q e a v 9.W.    9. .T n l x l c m  .  6.( H / T Y !       5._ H R R ..  @.m         ",
"            < < 9 q e a b j.Q.    p.o.G z x k k k R 6.5./ J ( _ | 3.        +.' ) ) 4.  o.M         ",
"              < 9 9 w p p B k.      =.( B j h h h n X.@./ n n J ) X.      u.#.( ( / o.@.)           ",
"                7 9 0 w t h `       y.=.( h p r p l _ _ B p k n C / o.#.@.@.[ J B n J               ",
"                    5 9 w x ` { ' ` ( J B k h r 0 0 n C b i p k l n n B (                           ",
"                      9 0 p l                                     t j                               "
};
