/* XPM */
static char *grass1710272397[] = {
/* columns rows colors chars-per-pixel */
"50 50 83 1 ",
"  c #0F4000",
". c #144500",
"X c #164800",
"o c #1C4C00",
"O c #1F5200",
"+ c #204F00",
"@ c #245400",
"# c #285700",
"$ c #265900",
"% c #2B5C01",
"& c #2E5D0B",
"* c #305F01",
"= c #325F0A",
"- c #2E6101",
"; c #2E6009",
": c #336402",
"> c #386707",
", c #366902",
"< c #3B6C03",
"1 c #34640B",
"2 c #38660B",
"3 c #36690B",
"4 c #3B6C0B",
"5 c #3E7103",
"6 c #3E710C",
"7 c #356413",
"8 c #386510",
"9 c #3C6C12",
"0 c #3C6C1B",
"q c #3F7112",
"w c #406F0F",
"e c #427404",
"r c #467904",
"t c #4A7D04",
"y c #43740C",
"u c #46790C",
"i c #4A7C0C",
"p c #416F13",
"a c #437513",
"s c #487717",
"d c #467913",
"f c #4B7C13",
"g c #44751A",
"h c #48771C",
"j c #47791A",
"k c #4B7C1B",
"l c #507F1F",
"z c #4C7D22",
"x c #4D8103",
"c c #4E810C",
"v c #518507",
"b c #51840D",
"n c #55890C",
"m c #598D0F",
"M c #4E8114",
"N c #4E811B",
"B c #528414",
"V c #568915",
"C c #598C14",
"Z c #53841B",
"A c #58871D",
"S c #56891C",
"D c #5A8C1B",
"F c #5D9113",
"G c #5D911B",
"H c #61941D",
"J c #679B1F",
"K c #4F8122",
"L c #548523",
"P c #568923",
"I c #5B8C23",
"U c #54842A",
"Y c #58862C",
"T c #57892A",
"R c #5B8C2B",
"E c #5F9123",
"W c #5E902D",
"Q c #5D8D31",
"! c #619324",
"~ c #6B9F20",
"^ c #61922B",
"/ c #629531",
"( c #6FA22B",
/* pixels */
"08WN,4;:-faj77&93*kp4sLfs,Sa6O-Oyky3a$83;9j33j%6N3",
"73a66@$@MP,3;;;g@pw24*:w:<Pa--K3/<63-#z%;z9-4--q3;",
"%:-5--@5S5:#1@q,wp>%#%#@%L4@:9;NZ-%#-%43jq$%-o>k1&",
"3o,u@q66e5:,-6-yLpy+#e:*4,$----d,,*%6,-Nqy-.o6fp1o",
"y,<#DD,5ibS*yy,Df:B*,f!s-O1q:$5NVfle<<fA:S%@4Iesw:",
"Sir<MNL,ViDi%brD<li<HCAiq;UNO-EBlfD*ee!eeB%ZAfwI<u",
"bSbteBdyi*BueuFxrleiHib*NQKO35BS<yi:ViCruirV<akfrF",
"erDruk%>uree!VCFiieCitr<Nj9$,<ucefeV!VVVr5Bf<f>urv",
"<eVt<,ppw,yfD<Jv-,,GcC5M33p4a:<t<<uHriGr:,f,,,<,ui",
"i<rr:LR#:Biiwuc<<,c,cB5--.3P4<<uu<iu<Br,,e,%k6$3>,",
"e<ey4s8@fw@ly4,5W65-6P,-$:ZE<u%ue-<ue,<!u<:yIa<4<<",
">w:esa%%w<*w3%:DS6O66POOBVDM,Ae<<y55*%i^y*,kAaq3,w",
"w>-,NUg1%>a:;@,W--O-89:$DHrrBl<l:65-O-Lk:%1pj33-**",
">4y6Pq19>o4k@#6L,$.O%&aaievJbew>#-f%OqUj*X%3;-3$##",
"%affq@O3,$PKX;kq$oo0&=26retnHA*+-fW$@gg%&o9%X$-$::",
":%6yo%3$dMR%1g,-$;UU%14<treeVE*=LD6,a:1$#gYoO3-6Qk",
"O-q-dK@aNi,4I::<,6P,o%ZAue%rA5wlwyelr%5,,L4@$-5NU9",
"-M--a3-W,ykefeiV-SS$*:fIyZ,,y%S<,iefurM56/,O-O5Pq%",
"SPo-q-,Sa:,,VDBuuE5-PISueI:>$,Iu<<,iIVZ,NL-6N,MP,:",
"P5$-%:6jq%,,bbee6--,Zku<IAsy%d6d*,eff<u6u--UK3q<,y",
"6-N3$$,6O,k5e<<A6-dNc6yfAyA*5:$q,ufe,:MN$-jK33q-5d",
"-qd,g1@@,,6yy,eAq-q3,5-y<yf:6:-a<4y<5,NN-qg1333q,6",
"$,--Tj$%6-5N4#eB-39$O-OriGfa1q3,-,BMc,uq-3$@-$$q&@",
"O$qNj3o3,-aP:*fy$$$$$-,iVu4-%43%-6P6666@$3%$Oo-$&$",
"$-gq;$,-33Pa$Ee%0&Up+y<l><e*e%#14w^*Z:%@39KO$333T9",
"$33$;K,-qqk,Mc<k&@a>@w<e:,fZa*@9Ly,uA,y6-j7 1;$qa%",
"33q;WK$,6-aNSua4%%g2#>iffeLl-3%kw<ZMuf6,-99O33q3g-",
"-9;Pj$X,$66KdI:%:2z4#yfVVua+.4:q4:NNZ,-:3qK93jK-K,",
";-q6,X,-6Muu,L--66L6,ffs,<a$:y,qa-S-c6O,,jT-qj53T:",
"0,33$j3,M5M-ky:5:,Pu<f>y,ykfN,,L,q:uP-,,-NP-N6OqK-",
"9-3O66;6d$def<S,O:S5*:<ses4y,O3NOMc6udd$,qK3<O-6E4",
"OK,O3-$W4a,:<iSc,uu,**iI:f%-@%N:6<-,ucN56dd$Oo,6d$",
"cNOO3-5M6-@%AVAurHi%eBVe<I*##*w::**rGVlel^%e,eAE4%",
"N,$36--S3,,6Duyefi*,EfeeDZpp=hw<*:<Vfeelf<*DBfA<-6",
"6-K/3-qqOqq5r,,wy,*ffyiiI>Rp2#*+*w4ee,<w>#wywf<:5u",
"$jdNK-3X1Uy4,w:w#<ss*:ii<2Yg=%#*llp*>*<**ss:s:#ru,",
"$9-66O;$Yl:%ws*:*aw*>%+:%kh=88wAI>>2*o,:ws#&p.,f%;",
";O,dO,qqlw:#w*#:ff>o*:##*s=+2=,ws*#=##yuf@%#o#su%+",
"----3P;qwes42*:Bfwk#*yl<::+8%2:yuy>*>yAA<@L*#Lwe9@",
"du5-Pj6,fGBl*aeGy<L4lZEie#ws=#iZZAf,l,uZ:Lw#lRef>p",
"SN5B<PS5n,Du#ybC<A<f^fVei<Aw+,!SeeV:r:EyfieDi,il<F",
"uVn5MW<5etb:fAnvbefAubb,CDA,#ubn<V<:CnrZuyffrfVitn",
"uuGcSV-uieet(Dn:%eefiinmHVf*+fbrr,tJHme**<ie<Vi*et",
"6,cb5,,6eitFnnn%:<efurCbr<iw:ueruuFnnne#esVeeleesu",
",-,6%:5:yfrrvnv<ieZ<iier:ellL>#fBfieFb<ewlewie*wY&",
"3,$--a%6L4yebti,%if#f:*i<uskk@,Bf<uViie*eL*>s#*lgo",
"93XO74$k>2Ze<rV,*wa:*+fiws2=##fy,uy>>lf#wy#+=+:s1&",
"3TOO1:aA#p+#iVBAyll*,wfA:L@o+;a%<##>LAVell2#2>ZL9@",
"S6Oo9-q3-$36Gcc6Vcd-MMc<cB-%O93q%:%AAiucSu>kfAVf:w",
"6,-jN-5q-3quB555c,,,BrriCnaj3431#4,Ze55i5::ffre,,f"
};
