/* XPM */
static char *_63b2a02f44e42a9978892fb9c9f4de72D6qrlCjkZIj6t3L[] = {
/* columns rows colors chars-per-pixel */
"80 80 226 2 ",
"   c None",
".  c #050405",
"X  c #06050C",
"o  c #09060C",
"O  c #0B0A0D",
"+  c #07080A",
"@  c #180607",
"#  c #0B0713",
"$  c #0C0A14",
"%  c #0C0B1A",
"&  c #080A19",
"*  c #110B14",
"=  c #160C18",
"-  c #09131A",
";  c #171319",
":  c #27090A",
">  c #241209",
",  c #36170C",
"<  c #280F1D",
"1  c #350D15",
"2  c #231618",
"3  c #3A171A",
"4  c #09221E",
"5  c #352212",
"6  c #0B0D22",
"7  c #0A0F29",
"8  c #0D122A",
"9  c #0A1926",
"0  c #121323",
"q  c #12152A",
"w  c #131B2C",
"e  c #171925",
"r  c #0D1535",
"t  c #0D1A38",
"y  c #131B33",
"u  c #121C3B",
"i  c #161A34",
"p  c #140F22",
"a  c #351C25",
"s  c #2C1E2B",
"d  c #0C272B",
"f  c #14262C",
"g  c #0C2833",
"h  c #1C2335",
"j  c #1A2639",
"k  c #183A3D",
"l  c #0C3536",
"z  c #29252B",
"x  c #392829",
"c  c #262B34",
"v  c #272836",
"b  c #372D33",
"n  c #28343E",
"m  c #37363B",
"M  c #4D0E17",
"N  c #471719",
"B  c #55151B",
"V  c #571808",
"C  c #7A1D16",
"Z  c #482A18",
"A  c #542515",
"S  c #752A14",
"D  c #793617",
"F  c #6D3118",
"G  c #4A1A22",
"H  c #561322",
"J  c #43252A",
"K  c #462626",
"L  c #57242A",
"P  c #473233",
"I  c #563735",
"U  c #52302C",
"Y  c #623235",
"T  c #652C35",
"R  c #6A1629",
"E  c #74481F",
"W  c #784B2A",
"Q  c #7D552E",
"!  c #0E1E45",
"~  c #0E1E49",
"^  c #111E44",
"/  c #121E4A",
"(  c #0C2145",
")  c #122148",
"_  c #173D4A",
"`  c #2A2E45",
"'  c #2D344C",
"]  c #263148",
"[  c #30344C",
"{  c #2D3A56",
"}  c #343D5D",
"|  c #393B5B",
" . c #343854",
".. c #312F49",
"X. c #353E61",
"o. c #3B3E64",
"O. c #2D3F63",
"+. c #563D45",
"@. c #443541",
"#. c #753F43",
"$. c #0E4349",
"%. c #16464A",
"&. c #154A54",
"*. c #18565B",
"=. c #28455C",
"-. c #34415D",
";. c #3B405B",
":. c #21525E",
">. c #1C5C6D",
",. c #185B64",
"<. c #1E5F72",
"1. c #2E4464",
"2. c #274864",
"3. c #324060",
"4. c #24536C",
"5. c #25576C",
"6. c #235971",
"7. c #14666C",
"8. c #1A666E",
"9. c #156667",
"0. c #156C74",
"q. c #156D7C",
"w. c #1C6A75",
"e. c #0E777D",
"r. c #14737B",
"t. c #137A7D",
"y. c #1B7477",
"u. c #226D75",
"i. c #474147",
"p. c #564E52",
"a. c #594E51",
"s. c #6B4544",
"d. c #6D5655",
"f. c #6F5A63",
"g. c #7B6C77",
"h. c #716D72",
"j. c #813A19",
"k. c #973519",
"l. c #8B2A10",
"z. c #A43418",
"x. c #943225",
"c. c #C73A13",
"v. c #844C17",
"b. c #B94614",
"n. c #A64518",
"m. c #8B562B",
"M. c #854220",
"N. c #B85924",
"B. c #AD532A",
"V. c #BA7229",
"C. c #CA5319",
"Z. c #DB5417",
"A. c #CB4A0E",
"S. c #E55E1A",
"D. c #F15E13",
"F. c #DF641B",
"G. c #D4751E",
"H. c #EE690B",
"J. c #F66D04",
"K. c #FA6A04",
"L. c #FB670B",
"P. c #F56C0C",
"I. c #FA6A0B",
"U. c #FE6705",
"Y. c #EF780C",
"T. c #F57609",
"R. c #EB6716",
"E. c #F36912",
"W. c #F76610",
"Q. c #E87717",
"!. c #F57311",
"~. c #D25A24",
"^. c #C5782B",
"/. c #D97725",
"(. c #C9712B",
"). c #EB6425",
"_. c #82474B",
"`. c #8B5456",
"'. c #A44D5D",
"]. c #936D6C",
"[. c #A57270",
"{. c #DF8614",
"}. c #F28913",
"|. c #E48210",
" X c #D9832B",
".X c #C7822B",
"XX c #B9867D",
"oX c #C6887D",
"OX c #0B7D85",
"+X c #0B7E89",
"@X c #077E86",
"#X c #157583",
"$X c #137B83",
"%X c #157C88",
"&X c #1B6780",
"*X c #857E88",
"=X c #04818A",
"-X c #0D818B",
";X c #088186",
":X c #068590",
">X c #8C8891",
",X c #938F95",
"<X c #B18780",
"1X c #9E9DA2",
"2X c #B89DA5",
"3X c #AEABB1",
"4X c #B6B3BC",
"5X c #AEA5AC",
"6X c #D1918D",
"7X c #CA918D",
"8X c #D8A298",
"9X c #F3B59E",
"0X c #E9A999",
"qX c #F5B5A5",
"wX c #F6B8A7",
"eX c #EAB3A8",
"rX c #C0BDC3",
"tX c #C7C3C8",
"yX c #CED2D7",
"uX c #D8D7DE",
"iX c #CACCD2",
"pX c #DBDDE3",
"aX c #D7DBE2",
"sX c #E0DDE0",
"dX c #DBE0E6",
"fX c #E3E2E9",
/* pixels */
"                                                                                                                                                                ",
"                                                                                                                                                                ",
"                                                                                                                                                                ",
"                                                                                                                                                                ",
"                                                                        W Z   Z W                                                                               ",
"                                                                X @ : V N.V.A D ^.W                                                                             ",
"                                                                : F B.C.c.F.G.C.A./.v.Q 5                                                                       ",
"                                                                , S z.Z.R.P.I.E.H.K.R. XF                                                                       ",
"                                                              Z v./.R.W.J.K.K.J.K.L.I.Y..X5                                                                     ",
"                                                            D  X}.!.W.L.K.K.K.K.K.U.I.T. X,                                                                     ",
"                                                          E /.!.S.A.E.I.K.L.U.U.U.U.K.J.Q.m.                                                                    ",
"                                                        @ B./.b.b.F.P.P.I.I.K.U.U.J.T.T.!..X>                                                                   ",
"                                                          A D (.Q.!.I.P.P.H.T.K.L.J.Y.}.Y.^.>                                                                   ",
"                                                          m.V.Q.T.P.I.E.S.A.Y.J.U.L.P.{.|.^.>                                                                   ",
"                                                          3 S F.K.K.E.S.z.(.Y.I.I.D.~.D N.B.,                                                                   ",
"                                                            N B.Z.E.).k.S /.R.A.b.l.C S B.V                                                                     ",
"                                                          @ 1 B l.).n.F ^.Q.B.L +.3 M j.M.,                                                                     ",
"                                                            o 2 A ~.S U j.k.B f.2XT L 1 @                                                                       ",
"                                                              K m.x.M J Y B s.8XeXoX[.G                                                                         ",
"                                                              @ Z B H Y 7XoX8XqX9XqX0XXXJ                                                                       ",
"                                                                  1 R N [.wXqXqX9X9XqX8XP                                                                       ",
"                                                                  : G 1 I 6X0XqXqXqXwXs.                                                                        ",
"                                                                    1 G G Y _.6X0XwX7XU                                                                         ",
"                                                                    @ Y `.L K I `.6Xs.                                                                          ",
"                                                                    1 L _.'._.> x U 3                                                                           ",
"                                                                    < 3 G T ].2                                                                                 ",
"                                                                  g *.k ; a U @                                                                                 ",
"                                                                  $.$Xr.,.c 3 :                                                                                 ",
"                                                                d 0.-X+XOX7.c N :                                                                               ",
"                                                                d t.OXOXOXOX8.v < @                                                                             ",
"                                                                d t.OXt.+XOX0.8._ d                                                                             ",
"                                                                g $XOXe.+X>._ t.%X%.                                                                            ",
"                                                                *.OXOX;X#X=.d q.+X0.l                                                                           ",
"                                                              d y.+X+X%X6.h j >.OX$X%.                                                                          ",
"                                                              4 r.=X=XOX,.q ' 4.OXOXw.f                                                                         ",
"                                                              l e.=XOX$X:.q { 4.OX=X$X$.                                                                        ",
"                                                            - *.OX=XOXq._ i  .4.$X=XOX8.f                                                                       ",
"                                                            9 w.;X=XOX>.y ` } 1.w.@X+Xr.g                                                                       ",
"                                                            %.t.OXOXq.=.e ' } } >.OX@XOX&.                                                                      ",
"                                                          - 9.-X+XOX8.{ e ] 3.} 4.#X+XOXw.9                                                                     ",
"                                                          9 8.-X+XOX<.j f } X.} 2.w.+XOXy.9                                                                     ",
"                                                          %.t.=X+Xq.2.i v 3.o.} O.6.$XOX0.9                                                                     ",
"                                                        + *.-X@XOX6. .h ` } -.-.} =.>.7.*.9                                                                     ",
"                                                        d 9.$XOXq.2.h e  .o.| } } [ c c z O                                                                     ",
"                                                        %.$XOXe.>.-.v 2 z v v v v a J I K @                                                                     ",
"                                                      d 9.@X=Xq.:.[ ; 2 x K K K J J J x n k                                                                     ",
"                                                      k t.+Xq.5.-.v 0 v s a 3 3 a z c &.#X8.-                                                                   ",
"                                                      k y.#X>.-.| j j -.' ` ` n ` { 5.%X:X7.-                                                                   ",
"                                                      w &.>.1.;.' h  .| } X.o.3.-.1.&X+X;X,.-                                                                   ",
"                                                        - h ....v h |  .} } | } 1.4.$X+Xr.g - X                                                                 ",
"                                                        P +.J a e | X.X.X.3.} } 2.0.OXOXu.w q X                                                                 ",
"                                                        ].eX7X_.; ` -.X.X.X.X.X.4.$XOXOX&.d t %                                                                 ",
"                                                      i.7XwX9X`.= % f ] ;.;.} } 4.$X;Xt.d g ^ q .                                                               ",
"                                                      d.eXqX8XI 0 $ O - q w [ | 2.8.e.y.d t / u X                                                               ",
"                                                      P I <X[.2 9 & * $ $ # ; p 0 9 d d r ( ( ^ %                                                               ",
"                                                          x 2 = w % % $ $ $ X X $ # $ $ u ( ~ / 6                                                               ",
"                                                              $ r % * % $ $ X O $ $ $ & u ! ~ / r &                                                             ",
"                                                              6 r % * % % % X X $ $ $ & y t ~ ~ u %                                                             ",
"                                                            + w 8 % $ % % % $ X $ $ $ & 8 t ~ ! ^ 6                                                             ",
"                                                            $ y 6 % % % % % $ X $ $ $ 6 r ^ ! ! ^ 7                                                             ",
"                                                            q y & % $ % % $ $ X $ % % 6 u ) ! ! ^ t &                                                           ",
"                                                          $ i 8 % % $ $ $ $ O o $ $ % q ^ ! ! ! / ^ &                                                           ",
"                                                          - i 6 % $ * $ $ $ . $ O $ % r ^ ! ! ~ / ^ %                                                           ",
"                                                        $ 0 0 % % $ $ % $ $ .   o $ & 8 u ^ ^ ^ ^ ) 8                                                           ",
"                                                        O % % % % $ % % $ $ .   o % # % t ! ! ! ! / t $                                                         ",
"                                                      * $ & % % % % % % $ O * O $ % $ % t ! ) t r ^ u $                                                         ",
"                                                      O $ % % % % % % $ $ .   O $ $ * & 8 t u 7 6 t y $                                                         ",
"                                                      ; $ $ $ $ $ $ % $ $ .   O $ $ $ % % 6 6 & % 6 q #                                                         ",
"                                                    p.3Xp.; % $ $ $ % $ $ X   . O $ $ $ $ $ $ $ $ $ $                                                           ",
"                                                  b h.tXtX1Xc . O $ $ $ $ .       . . . O O $ ; c ;                                                             ",
"                                                m rX5Xf.,Xp.      . . . .             . . . ; h.yXa.                                                            ",
"                                                c yXdXuXg.=                                 i.uXtXi.2                                                           ",
"                                                c ,XdXdXg.=                                 b >X*Xg.b ;                                                         ",
"                                                  m >XpX3X@.2                               z *X4XfX1Xb *                                                       ",
"                                                    m ,XfX4X>Xz                             i.pXdXdXpX3X,Xg.                                                    ",
"                                                      h.fXpXiX                              m iXaXuXaXfXsX5X                                                    ",
"                                                                                                                                                                ",
"                                                                                                                                                                ",
"                                                                                                                                                                ",
"                                                                                                                                                                "
};
