/* XPM */
static char *player1710261099[] = {
/* columns rows colors chars-per-pixel */
"50 50 199 2 ",
"   c #040202",
".  c #0C0C0D",
"X  c #141313",
"o  c #1D1B1C",
"O  c #181718",
"+  c #0D161B",
"@  c #201E1E",
"#  c #2D271E",
"$  c #0B1B24",
"%  c #201F20",
"&  c #09232F",
"*  c #082C3C",
"=  c #242323",
"-  c #282726",
";  c #2C2B2B",
":  c #282828",
">  c #302F2F",
",  c #343333",
"<  c #3B3B3B",
"1  c #363739",
"2  c #3B332A",
"3  c #4A3C2C",
"4  c #403F3F",
"5  c #3C403F",
"6  c #5E462E",
"7  c #54483B",
"8  c #45483E",
"9  c #674E35",
"0  c #735333",
"q  c #7D5B39",
"w  c #685435",
"e  c #0A3A53",
"r  c #06334B",
"t  c #28484C",
"y  c #044461",
"u  c #14576A",
"i  c #034E76",
"p  c #1B5B78",
"a  c #035979",
"s  c #365967",
"d  c #14606A",
"f  c #176B77",
"g  c #29626F",
"h  c #346067",
"j  c #296773",
"k  c #337271",
"l  c #444444",
"z  c #4B4B4B",
"x  c #4D5553",
"c  c #545454",
"v  c #5C5C5C",
"b  c #5E5A55",
"n  c #5A554D",
"m  c #755C42",
"M  c #576456",
"N  c #766B5C",
"B  c #6F6458",
"V  c #4E6D6D",
"C  c #656565",
"Z  c #6C6C6C",
"A  c #6B716E",
"S  c #797269",
"D  c #747473",
"F  c #7D7D7D",
"G  c #7E7A72",
"H  c #835D37",
"J  c #9A6A3D",
"K  c #8B6139",
"L  c #996D43",
"P  c #977649",
"I  c #886E52",
"U  c #82715F",
"Y  c #967B5C",
"T  c #997651",
"R  c #A37444",
"E  c #A27D55",
"W  c #887963",
"Q  c #837C72",
"!  c #AB8358",
"~  c #84827F",
"^  c #958675",
"/  c #A28A66",
"(  c #A58969",
")  c #BC996E",
"_  c #B49167",
"`  c #A3937D",
"'  c #B49A75",
"]  c #A8906B",
"[  c #D18E50",
"{  c #C0925A",
"}  c #D39255",
"|  c #E59A54",
" . c #D7A75F",
".. c #EEA15B",
"X. c #F3A75E",
"o. c #D09D66",
"O. c #C09868",
"+. c #DFB27E",
"@. c #D1A97B",
"#. c #EBAC67",
"$. c #F4B162",
"%. c #F7BA66",
"&. c #EDB478",
"*. c #F3B879",
"=. c #E9BA6D",
"-. c #FFCA6E",
";. c #FBC36B",
":. c #FFC270",
">. c #125384",
",. c #156687",
"<. c #026F91",
"1. c #036F8F",
"2. c #007EA4",
"3. c #0077B0",
"4. c #0076CD",
"5. c #007BCE",
"6. c #007CD2",
"7. c #05899E",
"8. c #03819C",
"9. c #32838C",
"0. c #288B9A",
"q. c #1B95A2",
"w. c #159FAB",
"e. c #0081BF",
"r. c #15A3AE",
"t. c #0087C8",
"y. c #0085D5",
"u. c #008DD3",
"i. c #008BD8",
"p. c #0084D9",
"a. c #0092DB",
"s. c #0098DF",
"d. c #009CE0",
"f. c #00A3E4",
"g. c #00ABE9",
"h. c #01ADE7",
"j. c #01B5EB",
"k. c #01B9ED",
"l. c #01BBF1",
"z. c #01C5E8",
"x. c #01C3F1",
"c. c #02CBF4",
"v. c #03D3F5",
"b. c #05DAF9",
"n. c #06E2FC",
"m. c #08EAFF",
"M. c #09F2FF",
"N. c #838383",
"B. c #8D8D8D",
"V. c #8E8983",
"C. c #939292",
"Z. c #9C9C9B",
"A. c #999792",
"S. c #B29F86",
"D. c #A79D8F",
"F. c #B9A689",
"G. c #A4A19D",
"H. c #ACA292",
"J. c #B2A894",
"K. c #A4A4A4",
"L. c #ACACAC",
"P. c #A8A6A3",
"I. c #B4ACA2",
"U. c #B7B2AD",
"Y. c #B5B5B5",
"T. c #BCBCBC",
"R. c #B8B7B4",
"E. c #CCAE8E",
"W. c #DCBC8D",
"Q. c #D7B587",
"!. c #D5B891",
"~. c #F2BF81",
"^. c #E1B885",
"/. c #CABAA6",
"(. c #C6BDB2",
"). c #ECCD9B",
"_. c #E8C492",
"`. c #F2CE98",
"'. c #FAD69F",
"]. c #F7D09A",
"[. c #F1C38B",
"{. c #D6C5B1",
"}. c #E9D0A0",
"|. c #F9DBA5",
" X c #FCE5B5",
".X c #C5C5C5",
"XX c #CCCCCC",
"oX c #C9C7C4",
"OX c #CFD0D1",
"+X c #D4D4D4",
"@X c #DCDCDC",
"#X c #E1DEDD",
"$X c #E4E4E4",
"%X c #EDEDED",
"&X c #E8E7E7",
"*X c #EDEEF0",
"=X c #F4F4F4",
"-X c #FCFCFC",
";X c #F7F8FA",
/* pixels */
"-X-X*X%X-X-X=X*X;X-X=X%X=X-X;X%X=X-X-X%X=X-X-X=X%X-X-X=X%X-X-X=X%X;X-X=X%X=X-X=X%X=X-X-X%X=X-X-X*X%X",
"-X-X=X%X-X-X=X%X-X-X;X%X;X-X;X%X=X-X-X%X=X-X-X%X=X-X-X=X%X-X-X=X%X-X-X=X%X;X-X;X%X=X-X-X%X=X-X-X*X%X",
";X;X;X;X=X;X;X=X=X=X=X=X;X=X;X;X;X=X=X;X;X=X;X;X=X=X=X=X;X=X;X=X=X;X;X;X;X;X;X;X;X=X;X=X;X=X=X=X;X;X",
"*X*X-X-X=X%X-X-X=X%X-X-X;X%X=X-X;X%X=X-X;X*X*X;X=X%X=X;X-X=X%X-X-X=X%X;X-X=X%X=X-X;X%X=X-X-X%X=X-X-X",
"=X%X-X-X=X*X-X-X=X=X=X-X;X*X;X-X;X%X=X$XZ.%X;X(.Z $X=X;X-X=X*X;X-X=X%X;X-X=X=X=X-X;X%X=X-X-X*X=X-X-X",
"-X-X=X%X;X-X=X%X=X-X=X=X;X-X=X*X%X-X-XL., +X-XF ; Z.-X=X=X;X-X=X=X=X-X=X=X=X-X;X=X=X-X;X%X=X-X-X=X*X",
"-X-X=X%X-X-X=X%X-X-X=X%X;X-X;X&X~ #X-XF , V.*Xz l z @X&X(.-X-X=X%X-X-X=X%X=X-X;X%X=X-X-X%X=X-X-X%X%X",
";X=X;X=X;X;X=X=X=X;X;X;X;X=X;X+X, A &Xx l c L.; z l C.+Xl +X;X;X;X=X;X;X=X;X;X=X=X=X;X;X=X;X=X;X;X=X",
"%X%X-X-X=X%X;X-X=X%X-X-X=X%X;XT.< l D , z l l > l c c L.; N.=X;X-X=X%X;X-X=X%X=X-X-X%X=X-X-X%X*X-X-X",
"=X%X-X-X=X%X;X-X=X*X=X-X;X%X=XB., c @ = z < X > 4 x l v 1 z @X&XY.=X*X;X-X;X=X=X-X;X%X=X-X;X=X=X-X-X",
"-X-X=X*X-X-X=X*X;X-X=X=X;X@XZ.v > c > - l < @ , < l < o < 4 Y.C.l %X-X=X=X;X-X;X%X=X-X;X*X=X-X-X=X*X",
"-X-X=X%X-X-X=X%X-X-X=X%X-X.X; = > z < ; 1 1 - > , l , X < l c 4 8 @X-X=X%X=X-X;X%X=X-X-X%X=X-X-X%X*X",
";X;X;X=X;X=X=X;X=X=X;X=X-XU.; o ; 4 , - > , ; > ; < ; o 1 < X 4 l T.;X;X;X=X=X-X=X;X=X;X=X;X=X=X;X=X",
"%X%X-X-X=X%X-X-X=X%X;X-X-XB.; ; = , ; - ; > - - ; > ; - > , - l l P.*X;X-X;X%X=X-X-X%X=X-X-X%X=X-X-X",
"=X*X-X-X=X%X-X-X=X*X=X-X;XG % = @ ; = = = = - - - ; ; ; ; > , < < K.=X=X-X;X*X=X-X=X%X=X-X-X%X=X-X-X",
"-X-X=X%X-X-X=X%X-X-X=X=X;XC O o o @ o o @ O o O o o o o o o @ ; ; R.-X=X=X=X-X=X=X=X-X-X*X=X-X-X=X*X",
"-X-X=X%X-X-X=X%X-X-X=X*X*Xz . + $ & * r e y i a 1.1.2.2.8.7.7.7.u XX-X=X%X;X-X;X%X=X-X-X%X=X-X-X=X*X",
";X=X=X;X;X=X=X;X;X=X;X;X#Xj 2.3.3.u.u.i.6.i.a.f.l.x.b.b.n.n.m.M.r.(.-X;X;X;X=X;X;X;X;X=X;X=X;X=X=X=X",
"*X*X-X-X=X%X-X-X=X%X;X-XOXq.k.i.y.y.i.i.6.p.a.f.j.x.c.v.b.b.n.m.w.(.=X;X-X;X%X=X-X;X%X=X-X-X%X*X-X-X",
"%X=X-X-X=X%X;X-X=X%X;X-XOXq.h.5.5.y.y.a.4.6.i.d.g.k.x.x.v.b.b.n.q.XX=X=X-X;X*X=X-X;X%X=X-X;X=X=X-X-X",
"-X-X=X*X-X-X=X*X;X-X=X=X+X0.k.y.y.i.a.u.4.6.p.i.d.f.h.j.z.v.v.z.9.&X-X;X=X=X-X;X*X=X-X;X=X=X-X-X=X*X",
"-X-X=X*X-X-X=X%X;X-X=X%X#X0.c.a.u.t.,.M s >.>.p p g g g h d k M A ;X-X=X%X;X-X=X%X=X-X-X%X%X-X-X%X%X",
";X;X=X=X=X=X=X;X;X;X;X=X%XV f s x 8 9 J R L 0 q _ W._.Q.P q J K I.-X=X;X=X;X=X;X;X=X=X;X=X;X=X=X;X;X",
"%X*X-X-X=X%X-X-X=X%X;X-X;XL.L | ..[ 0 9 0 H J R P ] '.Y H q q B $X=X%X;X-X=X%X=X-X-X%X=X-X-X*X=X-X-X",
"=X%X-X-X=X%X-X-X=X=X=X-X=XR.I [ .... .H.L.V.N 6 0 / ).q W b D C.-X=X%X;X-X;X=X=X-X;X%X=X-X-X%X=X-X-X",
"-X-X=X*X;X-X=X%X;X-X=X=XXX) +.O. .$.;./.;X-XT., ~ Q.'.S.*XOXV.P.=X=X-X=X=X=X-X=X=X=X-X;X%X=X-X-X=X*X",
"-X-X=X%X-X-X=X%X;X-X=X=XoX@.[.^.&.%.-.=.!.{./.` E.].|.W.R.{.` T.*X-X-X=X%X;X-X-X%X=X-X-X%X=X-X-X%X%X",
";X=X=X;X;X=X;X=X;X=X;X;X#XF.`.Q.*.%.-.-.%.#.#.&.&.( ' |._.}.F.@X-X=X;X;X=X=X;X=X=X=X;X=X;X=X;X=X=X;X",
"*X*X-X-X=X%X-X-X=X%X;X-X=XI.W.).E X.-.-.-.:.#.! 7 , 1 W }. XJ.%X-X=X%X=X-X=X%X=X-X-X%X=X-X-X%X*X-X-X",
"=X*X-X-X=X%X;X-X=X*X=X-X;X#XH.S.G.{ -.:. .P 3 - , < l l n N G =X-X=X&X;X-X=X=X=X-X;X%X=X-X-X*X=X-X-X",
"-X-X=X%X-X-X=X*X;X-X=X*X;X-X*X$X=XI.P w - X o : > 2 l x c l F =X%XZ.XX;X=X;X-X;X*X=X-X;X*X=X-X-X=X*X",
"-X-X*X%X-X-X=X%X-X-X=X%X;X-X;X%X=X-XG., % O o = - > < z l v &X&XN.C *X=X%X=X-X;X%X=X-X-X%X=X-X-X*X*X",
";X;X=X;X=X=X=X;X=X;X;X;X=X;X;X=X=X=X-X+X~ , X O @ = > 1 A #X$XD C L.;X=X;X;X=X;X;X;X=X=X=X;X;X=X;X;X",
"%X%X-X-X=X%X-X-X=X%X;X-X;X%X=X-X;X%X=X-X-XB.@ X o = = P.-XOXC D V.@X%X;X-X=X%X=X-X;X%X=X-X-X%X=X-X-X",
"%X=X-X-X=X%X-X-X=X=X=X-X;X*X=X-X;X=X=X-X&Xv - = ; > , Y.-XD A C.Z.=X=X=X-X;X%X=X-X-X%X=X-X;X*X=X-X-X",
"-X-X=X*X-X-X=X*X;X-X=X%X;X-X=X=X=X-X;X=XK.5 = = o o ; Z OXZ A.~ .X-X-X=X%X;X-X;X%X=X-X-X%X=X-X-X%X=X",
"-X-X=X%X;X-X=X%X-X-X=X%X;X-X;X%X=X-X;X&XA 1 o ; o o - < U ^ B.A.&X;X-X=X%X;X-X;X%X=X-X-X%X=X-X-X*X%X",
"=X;X;X;X=X;X=X;X;X=X;X=X=X;X=X;X;X;X;X#Xb 7 2 - ; > , 3 E / R.%X;X=X;X;X=X;X;X;X=X;X=X=X;X;X=X=X;X;X",
"*X%X-X-X=X%X-X-X=X%X-X-X=X%X=X-X;X%X;XU.O.~.' u ,.x h V T ~ &X-X-X=X%X;X-X;X%X=X-X-X%X=X-X-X%X=X-X-X",
"=X%X-X-X=X%X;X-X=X*X=X-X=X=X=X-X-X%X;XU.o.*.! e y 5 t t N +X=X;X-X=X=X=X-X;X*X=X-X;X%X=X-X-X%X=X-X-X",
"-X-X*X=X-X-X=X*X;X-X=X=X=X-X;X%X=X-X;X@X^ Y 7       Z A +X;X-X*X%X=X-X=X*X;X-X;X*X=X-X;X=X*X-X-X=X%X",
"-X-X=X%X-X-X=X%X-X-X=X%X=X-X=X&X%X=X&X@X+X+XZ . : o Y.+X+X$X%X$X$X*X;X*X%X=X-X=X%X=X-X-X%X=X-X-X%X%X",
"=X;X=X;X=X;X=X=X=X=X=X=X*X%X%X$X@X+XOXXX.XY.; . o X z K.T..X.XOX+X@X#X&X%X%X=X=X=X=X;X=X=X=X=X;X;X;X",
"%X%X-X-X=X%X-X-X=X%X=X;X%X@X@X@XOXT.Y.Y.L.C.o   ; : : v P.K.P.Y..XoXoX@X%X&X$X%X-X-X%X=X-X-X%X=X-X-X",
"=X=X-X-X=X*X;X-X=X%X=X=X&X@X+X+X.XT.L.L.K.C.A C C C C F Z.Z.K.Y.T.T.oX+X$X$X&X%X-X;X%X=X-X-X*X=X-X-X",
"-X-X=X%X-X-X=X=X=X-X=X&X%X%X$X+XXXXXT.Y.L.L.L.K.G.K.K.K.G.U.Y.Y.T.XX@X@X@X%X=X=X%X=X-X;X*X=X-X-X*X=X",
"-X-X%X%X-X-X=X%X-X-X=X%X=X=X%X#X#X$X@X.X.XOX.XT.T..X.XT.T.XX+XXXOX$X%X&X&X=X-X=X%X=X-X-X%X=X-X-X*X%X",
";X=X;X=X=X;X=X=X;X=X;X=X=X=X=X=X*X%X%X&X&X$X$X$X@X@X@X@X$X&X&X%X%X*X*X=X=X=X=X;X=X=X;X=X;X=X;X=X;X;X",
"*X*X-X-X=X%X-X-X=X%X;X-X;X%X=X-X-X%X=X-X;X%X%X;X;X%X%X;X-X%X%X=X-X=X%X;X-X=X%X=X-X-X%X=X-X-X*X=X-X-X",
"%X=X-X-X*X%X-X-X=X*X=X-X;X%X=X-X;X%X=X-X-X*X=X-X-X%X%X-X-X=X%X-X-X=X%X;X-X;X%X=X-X-X%X=X-X-X*X*X-X-X"
};
