/* XPM */
static char *wall1710261099[] = {
/* columns rows colors chars-per-pixel */
"50 50 28 1 ",
"  c #191A1F",
". c #111621",
"X c #171B25",
"o c #1A1C24",
"O c #1A1F29",
"+ c #1C2027",
"@ c #172029",
"# c #1D232C",
"$ c #1E2631",
"% c #1F2832",
"& c #202126",
"* c #21252E",
"= c #23282F",
"- c #222732",
"; c #232A35",
": c #292D36",
"> c #262E39",
", c #292E3A",
"< c #2C3137",
"1 c #26303B",
"2 c #2A323D",
"3 c #31353E",
"4 c #2D3441",
"5 c #2E3944",
"6 c #313642",
"7 c #323A45",
"8 c #343D49",
"9 c #3B424E",
/* pixels */
";;>:-62>>>;#-:;#--O->>&-=-;>::42>>,;#-:;#=-#-:>==*",
"211>35>>>4;:867O;;-,>2->:111,24>>>2;:947#---,12-;>",
"12>>,>;>,>:84-O,>;-->;,>-;1>,,1>>>>;74-#11;%$>;,>-",
"421>242,>,-,4,$,>>;->>,>#221,122,>,-22>->>>-$>>>>$",
";--#:>$-%;O;;$#>;#=O-$--#-;;&1>#-;;O-;$$-;#=#$=*-#",
"&:2>1:;&-;,2;==;-;#2,26>-O>2:,::&-1:2;-=:=-#1,441-",
",714424;44442>>2>4,1>4,>>:411422-14442>>1>211>22>>",
",4>>>>-->%%;;;-;;;;;%>;;->4>>>>;->$>;;;-->->>-;>;-",
":2>;>;%-2%;>$$#;--->;;>%;:2>;;>-;4-;>$$$;$-->;;>;;",
";2>>;-$=,$$%;-$%OO=>>;>>>;4>;>;$O,$$;-%%$OO=>;>>>;",
"&:-#O=#>2;--oO##$OO=#O==;=:-#O#=>4---oO#$##O$#O#-;",
",82 <718711==2>44,O:*$->1173 <7>87>4#-4:44,O>#=->2",
">>>-9#%%$;%$7>%;;%;8>1;;;;;1-7-;$%;%#7>%;;%;8>,;;;",
">,;>1;>;;;-$,>;>;;;>>%%$;11>>>;;;;;%$2>;>-;;,--$--",
";;;>1;;;>%-$;>>>>;-;>>;;;%;;>1;;;>-$$->>>>;%;>>;;;",
";>%>2%%;$$$#->;-$-##%$@$%>;%:4$$;$$$$;;;;$%$$%#O%%",
"#--*=.Oo##-#*=O:,O&,;-6##=#-#=.OXO#=#=-#:,+&>--7##",
"2>24-27=1;#-,2-3,O*2%;5>;,>33-28=2;#$,,-2,##4;;6>;",
">>>,>;$-;#$#=#-2O$;#@;#-,>>>1>;$;;#$#$$-2#$;$@%#->",
"2>>>>%>->-%%$$-,%$%-#;$=>>>>>;->-;--$%$-2$#-%#%$-;",
"-#$;-#=+-#OO###&##Oo&##+>-#$;-%$O-&#O#*###&Oo&#+#-",
";$>>;2-26>>=---:,-o:;;2-+-->,;,=24>>=--=:,-o>-:1=+",
">1,-;;->;;-;%>>42>=,,>2>;2>2$;>;>;;%-;>122>=2,>,>-",
";>>$;>>>%;>-;>>>,2:,>>>>;;>>%->;,-;>%;;>>>4,>>>>>>",
">1>=->=:;;;--;>>>2-;>>2,=>>>%---:-;>--;>114-;>;2>-",
";;>>=21>>1;*->:*-=#-;>--=-;>>-71>>1-=>;>$$=#-;>--=",
"2,1,24>>>2;:947#>-;2,2=;>141122,>>2;-977#;;;,,2=>>",
"1>>11,;>,>;74$#,>;%%;;>>#%>>111>>1>;72-#1>;$#>;>;-",
"44>>242,>1;2,>$>>>%%>11>%142>2241>,-,2>$:>,-$>>,>#",
";;;#,:$-;;+-;$*:;#$$-#=-#$--&:>#$;;#;;$#;;#$#-$&;#",
"#-,;,,;&-,>2>*=;-;O,,23,;#;2>1,;&=>;2>==:-;#2:271-",
"1742224;,4424>>,,4,,>42>;;5,2224;,4442>,1,2:1>42;>",
",2,,>>=->;>;%%;%;%;;;;;;%>4>>>1;$>-;>%;%-;-;;--;;-",
":1;;;>-;2%>;$$$;-$;>;;>;;>,>;;>-;2%;;$%$;-$;>>>;;;",
";21>>-##1$$-;%%$OO*>;;>>;-4>>>;%#,%%-;%$%XO$>>;>>;",
"*:-#O-#>2>;-X@###OO-$O#->=,-Oo-#:2;>-X#$$$#O$OO$-;",
",86o36>851,#-2>64,&,==-,,>84X27>87>>--2:26,#,**->1",
">>;;8-%$$;-$7>%-%$>8>1;%;>>;>7%;$$;%#7>-;;$-8,,;;;",
";>>;>;;%;;-$2>;>;>;;;-%%;>>>:>;;;;;;$1>;>;;;;;--$;",
";;;>2;>>;-%$;>>>>;$;>;;;>;;%>1;;>;---->>>>;$;>>;;;",
";1-:2$#;%%*$;;;;#$-#;###%->-;2$#%%$##=>;;$*##;#O$$",
"#--*=.OOO$*##*O:>#+:--6##==-#=.OXO$==*=#-,##:--7=#",
"2>23-47=2-$$12=31##4;;4>;4>36-28=2-$$11-6,#$4;-5>-",
">11>>;$;>#-$#$-,#$-#O-$->;>>,,;#;>$%##$-,#%-$O-#->",
"2>1>>->%;--$-$-,%$%$#;==;>>>1>->-;--$%$-2%#=$#%$=-",
"=#$%--$+;#OO#####&+o##O#;%$$--%%O-##O#####&oo#$O#=",
";-,>;,-24;,$==-:,-o:;;2-&;->1-1=22-,=--::1-O,;;2:+",
"1>2$;>:>->-;;>14,>=2>>2>;,>,#;>>>;>-;-:121>-,1>,1-",
"->>%;>-1-;;;;;>>>4>>>;>>;;>>-;>-:;;>%;>;>>4>>>;>>;",
">11-;;-:>>;-%;>1>1;;>>>>->>>;;;->;;;%$;>1>4;->>11-"
};
