/* XPM */
static char *baa4efb25f1647d1fee5362230b7358cVak50r5Do9RzAqt0[] = {
/* columns rows colors chars-per-pixel */
"80 80 234 2 ",
"   c None",
".  c #030101",
"X  c #0B0200",
"o  c #0B0A01",
"O  c #04020A",
"+  c #020B0B",
"@  c #080907",
"#  c #120500",
"$  c #140A00",
"%  c #170902",
"&  c #161200",
"*  c #1D1400",
"=  c #1E1900",
"-  c #16120D",
";  c #151514",
":  c #1C1A15",
">  c #14151A",
",  c #1D1919",
"<  c #181815",
"1  c #0F140D",
"2  c #241500",
"3  c #231A01",
"4  c #2B1B00",
"5  c #321900",
"6  c #23170E",
"7  c #1F211E",
"8  c #2B2100",
"9  c #332300",
"0  c #372900",
"q  c #24211B",
"w  c #3D381A",
"e  c #241F21",
"r  c #32332C",
"t  c #36392B",
"y  c #363938",
"u  c #2D2F2C",
"i  c #453500",
"p  c #4D3C00",
"a  c #473702",
"s  c #533B02",
"d  c #4B3E17",
"f  c #463E2A",
"g  c #403931",
"h  c #3D423C",
"j  c #3F483F",
"k  c #494103",
"l  c #574803",
"z  c #4D421B",
"x  c #554C15",
"c  c #716819",
"v  c #544C28",
"b  c #41433D",
"n  c #4F4734",
"m  c #524A30",
"M  c #625D37",
"N  c #7D7836",
"B  c #7D7838",
"V  c #78733B",
"C  c #766A33",
"Z  c #6A5804",
"A  c #393D43",
"S  c #403E44",
"D  c #3B4444",
"F  c #454447",
"G  c #595553",
"H  c #555848",
"J  c #655E45",
"K  c #5E6059",
"L  c #767349",
"P  c #67655A",
"I  c #797254",
"U  c #736B54",
"Y  c #676465",
"T  c #766D69",
"R  c #6F716A",
"E  c #72726A",
"W  c #777769",
"Q  c #6B6C75",
"!  c #7B7D7B",
"~  c #767876",
"^  c #8A6F00",
"/  c #847407",
"(  c #937D03",
")  c #8B7412",
"_  c #8C791E",
"`  c #947D1D",
"'  c #887627",
"]  c #847A36",
"[  c #837251",
"{  c #79814E",
"}  c #7C807A",
"|  c #998601",
" . c #998716",
".. c #8F8410",
"X. c #A69211",
"o. c #948524",
"O. c #928924",
"+. c #8B842B",
"@. c #B29F2E",
"#. c #B49C22",
"$. c #A99D39",
"%. c #A9992F",
"&. c #B6A52B",
"*. c #B8A736",
"=. c #B8A614",
"-. c #CDB634",
";. c #D1B60D",
":. c #DDC81F",
">. c #E6CC00",
",. c #ECCD02",
"<. c #EDCD09",
"1. c #EED104",
"2. c #EDD20B",
"3. c #F5D406",
"4. c #FBD601",
"5. c #F6DA03",
"6. c #FADA05",
"7. c #F4D40B",
"8. c #F8D60C",
"9. c #F6D80C",
"0. c #FBDA0B",
"q. c #EED518",
"w. c #F5D512",
"e. c #F9D714",
"r. c #F6DA12",
"t. c #FADB13",
"y. c #F4D51D",
"u. c #F9D619",
"i. c #F5DB1D",
"p. c #FDDD1C",
"a. c #FEE115",
"s. c #F6E31C",
"d. c #FEE11D",
"f. c #FBE81E",
"g. c #DCCB39",
"h. c #D8C426",
"j. c #E8CC28",
"k. c #EED725",
"l. c #F6DA22",
"z. c #FEDE24",
"x. c #FCDE2A",
"c. c #F4D82B",
"v. c #E9CE3A",
"b. c #E5CC35",
"n. c #EBD837",
"m. c #F5DE34",
"M. c #FCDE33",
"N. c #F4DC3B",
"B. c #FDDF3C",
"V. c #F1D533",
"C. c #F0CD31",
"Z. c #FEE123",
"A. c #F4E12B",
"S. c #FDE22A",
"D. c #FAE826",
"F. c #ECE33B",
"G. c #FCE234",
"H. c #F6E33E",
"J. c #FCE23B",
"K. c #FFE83D",
"L. c #F7E533",
"P. c #9C9241",
"I. c #868254",
"U. c #998F58",
"Y. c #989453",
"T. c #90884A",
"R. c #A79D47",
"E. c #B7AA54",
"W. c #979163",
"Q. c #80837F",
"!. c #958C61",
"~. c #B7B17B",
"^. c #C3AB41",
"/. c #C4B648",
"(. c #CDBE5F",
"). c #C1BA7B",
"_. c #C2BA78",
"`. c #C2B46D",
"'. c #DBCA47",
"]. c #DCD049",
"[. c #DBC852",
"{. c #E9D748",
"}. c #F9DE45",
"|. c #E8D958",
" X c #E4CB45",
".X c #FEE544",
"XX c #FEEA45",
"oX c #F4E34A",
"OX c #FEE54B",
"+X c #FEE94C",
"@X c #F5E445",
"#X c #FDE552",
"$X c #FDEA54",
"%X c #FFE75D",
"&X c #FFEB5B",
"*X c #F3E45B",
"=X c #FFF35E",
"-X c #EDE447",
";X c #D5CE73",
":X c #E6DA74",
">X c #FFEB64",
",X c #FFED6C",
"<X c #F6E765",
"1X c #FFF165",
"2X c #FFF26C",
"3X c #FFED75",
"4X c #FEEE7B",
"5X c #F6EE7F",
"6X c #FFF172",
"7X c #FEF17C",
"8X c #F6F17B",
"9X c #EBE06C",
"0X c #7C7C85",
"qX c #7F8382",
"wX c #898783",
"eX c #BFB487",
"rX c #C4B981",
"tX c #DAD18C",
"yX c #CCC38C",
"uX c #E3D78B",
"iX c #E7DB93",
"pX c #FEED85",
"aX c #F7EE8E",
"sX c #FCEE8C",
"dX c #F7E986",
"fX c #FEF383",
"gX c #FBF18A",
"hX c #F6F18B",
"jX c #F8EF90",
"kX c #F5EC97",
"lX c #FDF294",
"zX c #F6F297",
"xX c #EBE199",
"cX c #F5F2A3",
/* pixels */
"                                                                                                                                                                ",
"                                                                                                                                                                ",
"                                                                                                                                                                ",
"                                                                                                                                                                ",
"                                                        wXF F F b h b b b h b b b h b b b b b F A                                                               ",
"                                                        G . . . . . . . . . . . . . . . . . . . O ~                                                             ",
"                                                        G . X . . . . . . . . . . . . . . . . . . E                                                             ",
"                                                        J . X X X . . . . . . . . . . . . . . . . W                                                             ",
"                                          } } ! ~ qX! W I.L V ] B N B N B N N N B N B N B N N B V { ! 0X~ ~ qX~ } Q.                                            ",
"                                        < . . . . . . & Y.kXcXzXjXjXaXaXaXaXaXlXjXjXjXjXjXjXjXzXcX{ . . . . . . . <                                             ",
"                                        , @ . O O . O X Y.lXdXdXpXpXpXpXpXpXpXpXpXpXpXpXpXpXpXsXzXT.. O . . O O . ;                                             ",
"                                        - . X . . . . # $.7X4X7X3X3X3X3X3X3X3X3X3X3X3X3X3X3X3X6X8X+.X # # X X X X &                                             ",
"                                        m z z d z z d l *.>X>X%X%X%X%X%X%X%X%X%X%X%X%X%X%X%X%X&X=X#.p p l p p p k x                                             ",
"                                1 < - n yXxXtXiXuXiXuX:X*X$X#XOXJ.J.J.J.J.J.J.J.J.J.J.J.J.J.J.J.m.N. X X'.'.|.].]./.9 - - ;                                     ",
"                                . . X f uXgXgXgXfXfXpXfX&X}.}.+XG.S.S.S.S.S.S.Z.S.S.S.S.S.S.S.Z.S.x.G.M.J.G.G.k.L.'.9 X O O                                     ",
"                                . . X a :X6X,X6X,X2X6X>X#XOXOXB.S.d.d.d.d.d.d.d.d.d.d.d.d.d.d.d.Z.t.Z.Z.Z.Z.d.f.s.g.5 # X .                                     ",
"                              wX3 2 3 l 9X2X>X1X=X&X&X&XOXB.B.G.z.a.p.p.p.p.p.p.p.a.p.p.p.p.p.a.a.a.d.Z.Z.x.Z.Z.S.j.s 5 4 =                                     ",
"                      Q.r u y U eX_.`.(.<X$XoX#X.XJ..X.Xc.k.q.w.7.7.7.7.w.w.7.7.7.7.7.7.7.7.7.3.1.9.d.Z.Z.Z.x.x.z.M.-.-.*.E.M r y y                             ",
"                      K o . X J cXlXgX4X*XoXOX.Xm.x.S.x.y.<.,.,.,.,.,.<.<.<.<.,.,.,.,.,.,.,.,.,.<.u.Z.d.a.d.Z.z.d.z.M.N.F.<Xl . . . E                           ",
"                      G . . X M aX4X4X6X{.+XOXN.G.Z.Z.d.9.,.,.,.,.,.,.,.<.<.,.,.,.,.,.,.,.,.,.,.<.u.Z.Z.a.a.d.d.d.d.z.S.D.-Xl X o . W                           ",
"                      Y X X X C sX6X7X,X#X.X.XJ.S.Z.a.t.7.1.,.,.,.,.,.,.,.<.<.<.,.,.,.,.,.,.,.,.,.w.z.Z.d.d.d.a.a.e.S.S.D.N.l # X X W                           ",
"                Q Y E W I.T.T.E.<X*X%X#X@Xm.J.J.y.w.7.7.7.7.0.7.w.w.w.9.9.9.r.u.w.r.w.9.9.r.w.w.8.0.w.w.w.r.p.d.Z.p.S.l.Z.G.#.` _ ] I T Q Q                     ",
"              t . . o W.zXgXfX<X$XXX.XJ.A.Z.Z.z.7.,.,.7.u.z.S.z.Z.d.a.a.a.a.a.d.d.d.a.a.d.d.Z.z.Z.t.,.>.,.2.p.Z.p.d.x.Z.d.l.N.}.N.*X' X . . h                   ",
"              t . . o U.hX6X,X>XH.J.J.G.i.Z.d.p.7.,.,.<.u.x.S.z.Z.Z.a.a.a.a.d.Z.Z.Z.d.d.d.Z.S.z.p.7.,.,.1.9.p.Z.d.p.S.z.d.d.x.A.Z.m._ # . . b                   ",
"              t . . X W.jXfX3X>XOXK.J.G.Z.a.a.a.,.,.,.,.u.z.d.d.S.z.Z.Z.Z.Z.S.x.x.S.x.z.Z.Z.Z.Z.Z.7.,.,.>.7.p.Z.Z.p.S.z.p.a.d.d.d.}.' # . . b                   ",
"              r . . X !.aX4X4X>X}.M.G.x.e.0.0.t.7.w.7.7.p.Z.a.d.G.J.K..X.X.X.X.X.X.X.XJ.J.S.z.d.p.8.7.7.9.r.e.e.e.e.z.Z.d.d.d.d.d.@X' X . . h                   ",
"              y . . X U.lXfX3X#XB.S.S.p.7.,.,.<.z.z.z.p.x.Z.d.D.+X&X,X3X3X3X,X,X,X,X,X>X&X.XA.d.a.a.p.z.p.r.1.,.,.<.p.Z.p.d.z.Z.D.F.' X . . D                   ",
"              u . X $ U.sX3X,X&Xx.z.Z.u.7.,.,.7.z.S.Z.Z.S.S.d.A.OX6X4XpXpXpX4X4X4X4X4X3X>XOXA.Z.a.d.z.z.Z.e.1.,.,.2.d.Z.Z.Z.Z.Z.s.-X' X . . A                   ",
"              y X X # U.lX7X,X#XS.d.d.e.7.,.,.,.u.d.a.a.Z.Z.s.A.$X6X7X4XfXpX4XfX7X4X4X6X1X+XL.D.d.Z.z.z.d.t.3.1.,.2.a.Z.d.Z.Z.Z.f.F._ # X . F                   ",
"              f * $ 8 P.4X6X>X+XZ.a.p.e.7.1.,.1.p.Z.a.d.G.J.G.H.$X>X>X>X>X>X>X>X>X>X>X&X+XK.A.Z.d.Z.S.Z.p.t.3.,.2.q.x.G.G.G.Z.s.s.XX( 2 2 & n                   ",
"      r q q w ~.tX;X;X9X*XoX@XG.2.,.7.7.e.p.a.a.Z.Z.d.S.+X%X>X%X.XM.x.Z.Z.l.x.x.M.M.x.z.p.e.w.7.7.r.Z.S.z.z.a.t.p.M.#X>X,X>XK.Z.Z.x.C.-.-.'.R.4 6 e b           ",
"      ; . X = ).zXgX7X<XoXXXK.k.<.,.,.7.u.d.d.a.z.Z.z.G.%X3X4X,X.Xl.9.0.5.5.r.r.u.e.0.8.0.6.3.7.9.9.Z.S.x.z.Z.d.S.B.>XpXsX3X.XZ.z.z.z.S.Z.H.*.$ X O ;           ",
"      > . . = ).zX4X3X>X.XJ.G.l.,.,.,.7.p.Z.d.d.d.Z.Z.G.%X3X4X6X.Xl.t.6.6.0.0.t.0.0.0.0.8.8.3.3.7.t.p.Z.Z.Z.Z.Z.Z.G.>X4X4X,X.Xx.z.Z.d.a.a.G.*.$ . . ,           ",
"      > . . = ).lX7X3X%X.XK.G.l.,.,.,.7.p.Z.d.d.d.d.Z.G.%X4X4X6X.Xl.t.6.6.0.0.0.8.8.6.0.0.9.3.3.7.t.p.Z.Z.Z.Z.Z.Z.G.>X4X4X,X.Xx.z.Z.a.a.a.G.*.$ . . ,           ",
"      > . . = _.gX7X,X&XJ.G.S.p.,.,.,.7.p.Z.d.d.d.d.Z.G.%X4X4X6X.Xl.t.6.6.0.0.0.8.6.6.0.0.9.3.3.7.t.p.Z.Z.Z.Z.Z.Z.G.>X4X4X,X.Xx.x.Z.a.0.0.x.*.# . . ,           ",
"      > . . = _.gX6X,X#XG.S.S.u.,.,.,.7.p.Z.d.d.d.d.Z.G.%X4X4X6X.Xl.t.6.6.0.0.0.8.6.6.0.0.9.3.3.7.t.p.Z.Z.Z.Z.Z.Z.G.>X4X4X,X.Xx.Z.Z.t.0.8.l.*.# . . ,           ",
"      > . . = _.gX6X,X#XG.Z.z.e.,.,.,.7.p.Z.d.d.d.d.Z.G.%X3X4X2X.Xl.t.6.6.0.0.0.8.8.6.0.0.7.3.3.3.t.p.d.Z.Z.Z.Z.Z.G.>X4X4X,X.Xx.Z.d.t.6.6.l.@.$ . . ,           ",
"      > . . = _.sX6X,X#XG.Z.z.e.,.,.,.7.p.Z.d.d.d.d.Z.G.%X4X4X6X.Xl.t.6.6.0.0.t.8.8.6.0.0.7.6.3.7.t.p.d.Z.Z.Z.Z.Z.G.>X4X4X,X.Xx.Z.d.t.6.5.l.@.$ . . ,           ",
"      > . . = _.gX6X,X#Xx.Z.d.e.,.,.,.7.p.Z.d.d.d.d.Z.G.%X3X4X6X.Xl.t.6.6.0.0.t.8.8.6.0.0.7.6.3.7.t.p.d.Z.Z.Z.Z.Z.G.>X7X4X,X.Xx.z.a.0.6.5.l.@.$ . . ,           ",
"      > . . = _.gX6X,X+Xx.Z.d.e.,.,.,.7.p.Z.d.d.Z.d.Z.G.%X4X4X6X.Xl.t.6.6.0.0.0.8.8.6.0.0.7.3.3.7.t.p.d.Z.Z.Z.Z.Z.G.>X4X4X,X.Xx.p.a.0.6.5.l.@.$ . . ,           ",
"      > . . = _.sX6X,X#XG.Z.d.t.,.,.,.7.p.d.d.d.d.d.Z.G.%X4X4X6X.Xl.t.6.0.0.0.t.0.8.6.0.0.7.3.3.3.t.p.Z.Z.Z.Z.Z.Z.G.>X4X4X,X.Xx.Z.a.0.5.6.l.&.$ . . ,           ",
"      > . . = _.sX6X,X#XM.Z.p.e.,.,.,.7.p.d.d.d.d.d.Z.G.%X4X4X6X.Xl.t.6.0.0.0.t.8.8.6.0.0.7.3.3.3.t.p.Z.Z.Z.Z.Z.Z.G.>X4X4X,X.Xx.Z.a.0.5.5.i.&.$ . . :           ",
"      > . . = _.sX7X,X#XM.Z.z.e.,.,.,.7.p.Z.d.d.Z.d.Z.G.%X4X4X6X.Xl.t.6.6.0.0.0.8.8.6.0.0.7.3.3.3.t.p.Z.Z.Z.Z.Z.Z.G.>X4X4X,X.Xx.Z.a.0.5.5.i.@.$ . . :           ",
"      > . . = ).sX6X,X#XM.Z.z.e.,.,.,.7.p.Z.d.d.Z.d.Z.G.%X4X4X6X.Xl.t.6.6.0.0.0.8.8.6.0.0.7.3.3.7.t.p.Z.Z.Z.Z.Z.Z.G.>X4X4X,X.Xx.Z.a.0.5.5.l.@.# . . :           ",
"      > . . = _.sX7X>X#Xx.Z.p.t.,.,.,.7.p.Z.d.d.d.d.Z.G.%X3X4X2X.Xl.t.6.6.0.0.0.8.8.6.0.0.9.3.3.7.t.p.Z.Z.Z.Z.Z.Z.G.>X4X4X,X.Xx.Z.a.0.5.5.l.@.# . . :           ",
"      > . . = _.sX6X>X#Xx.Z.p.t.,.,.,.7.p.Z.d.d.d.d.Z.G.%X3X4X2X.Xl.t.6.6.0.0.0.8.6.6.0.0.9.3.3.7.t.p.Z.Z.Z.Z.Z.Z.G.>X4X4X2X.Xx.Z.a.0.5.5.l.@.# . . :           ",
"      > . . = _.sX6X,X+Xx.d.p.t.,.,.,.7.p.Z.d.d.d.d.Z.G.%X4X4X2X.Xl.t.6.6.0.0.0.8.8.6.0.0.9.3.3.3.t.p.Z.Z.Z.Z.Z.Z.G.>X7X4X,X.Xx.Z.a.0.6.5.l.@.# . . :           ",
"      > . . = _.sX4X,X+Xx.Z.p.t.,.,.,.7.p.Z.d.d.d.Z.Z.G.%X3X4X6X.Xp.t.8.8.0.0.0.8.6.6.0.0.9.3.7.7.t.p.d.Z.Z.Z.Z.Z.G.>X7X7X,X.Xx.Z.d.0.6.5.l.@.# X . :           ",
"      ; . X 2 ).lX4X,XOXG.Z.d.0.,.1.,.7.p.d.d.d.d.Z.Z.G.%X3X4X2XK.u.t.0.0.8.6.0.6.6.6.8.8.8.7.7.7.e.a.d.d.Z.Z.z.Z.G.>X7X5X6XOXx.S.p.0.6.0.x.@.# X . q           ",
"      - . X * rXkXpX6X#XG.p.a.0.,.,.,.7.p.d.p.z.Z.Z.x.G.%X3X4X,XJ.e.t.t.0.0.6.6.6.6.0.8.8.7.7.7.e.e.a.d.d.Z.Z.z.x.M.&X6X7X6X.Xx.Z.d.a.0.7.k.@.$ . . <           ",
"      : . . 3 ~.kXgX3X$XK.a.a.7.,.,.,.2.p.d.p.Z.z.Z.x.B.&X,X3X>XK.e.t.0.8.0.6.6.5.6.6.8.8.7.7.7.u.u.p.d.p.Z.S.M.G.J.&X2X6X1X.Xz.Z.p.d.u.i.@X$.X . . <           ",
"      R P P U I.U.P.%.-.J.Z.d.e.7.7.w.w.r.r.e.u.p.Z.Z.G.OX&X%X$XS.w.w.9.7.8.5.5.5.5.5.9.9.0.t.e.p.p.d.d.Z.S..XOX+X+X+X$X$X+XS.t.t.Z.;.| | ..] L P Y R           ",
"              t X X 2  .N.A.z.z.p.d.d.u.2.,.,.<.e.a.d.d.S.G.G.S.z.7.7.7.7.7.3.3.3.3.7.7.7.t.p.p.Z.Z.d.a.Z.K.>X3X,X>X.XG.G.A.t.6.6.S.^ % # X f                   ",
"              y . X $ o.oXl.y.z.Z.d.Z.p.,.>.,.,.t.a.a.a.Z.Z.z.Z.u.7.7.7.7.7.3.3.3.7.7.7.7.p.d.Z.Z.Z.d.d.x..X3XpX4X>XJ.x.Z.t.0.6.4.l.) % # . A                   ",
"              y . . # o.H.d.p.Z.p.p.Z.p.1.>.2.2.p.a.a.a.Z.Z.Z.d.e.7.7.7.7.7.7.3.7.7.7.7.7.p.d.Z.Z.Z.Z.Z.x..X,X4X3X>XG.z.Z.p.0.6.6.y.) X . . F                   ",
"              r . X $ o.H.d.p.p.Z.z.z.p.2.1.9.2.p.p.t.t.z.Z.d.d.t.7.e.7.7.0.7.7.7.0.8.7.e.p.p.p.Z.S.G.J.J.OX>X,X>X&XS.Z.Z.t.0.4.6.l.) X . . D                   ",
"              y . . $ o.H.d.z.z.z.Z.z.Z.a.a.a.t.7.<.,.<.u.Z.d.d.p.p.p.p.p.a.a.a.a.p.p.p.d.p.p.z.S.K.%X>X>X%XOX}.J.K.Z.Z.p.t.6.6.4.l.) X . . y                   ",
"              y . . $ o.@XZ.Z.p.z.z.z.z.a.a.a.p.7.<.,.,.u.Z.d.d.d.d.d.d.d.d.d.d.d.d.d.d.Z.Z.Z.Z.x.XX,X3X3X%X.XM.A.Z.d.d.D.a.0.4.6.c.) X . . j                   ",
"              u . . X O.oXA.Z.Z.z.z.z.z.a.a.a.a.1.,.,.,.u.Z.z.Z.Z.Z.Z.Z.Z.Z.Z.Z.Z.Z.Z.Z.Z.Z.Z.x.M.+X,X7X3X%XJ.x.Z.d.d.t.a.t.9.t.9.G.) X . . t                   ",
"              F @ o = +.|.{.b.c.x.Z.S.Z.d.a.a.a.7.1.1.<.l.G.G.G.G.G.G.G.G.G.G.G.G.G.G.G.G.G.J.J.J.+X>X>X>X#XG.Z.p.a.f.a.a.D.j.b.b.'.c = o @ H                   ",
"                      L k p l  .M.Z.Z.z.d.d.d.p.p.u.l.c..X%X%X>X>X>X>X>X>X>X>X>X>X>X>X>X>X>X>X%X$X+X.X.XK.K.Z.a.d.a.a.0.t.c.^ l s s [                           ",
"                      P X X # Z N.p.Z.z.Z.Z.Z.Z.Z.Z.S.J.#X,X3X4X4X4X4X4X4X4X4X4X4X4X4X4X4X4X4X3X>X$XL.A.S.Z.p.d.d.t.6.6.8.V.l X # X T                           ",
"                      P . . . Z N.d.Z.z.z.d.Z.d.d.d.Z.G.$X2X3X4X4X4X4X4X4X4X4X4X4X4X4X4X4X4X4X4X6X%XL.l.z.z.z.z.Z.t.6.4.5.c.l X . . T                           ",
"                      K . o . c |.J.}.B.x.d.d.d.d.d.Z.G.+X1X,X6X6X6X2X2X6X6X6X6X6X6X6X6X6X2X,X,X>X$XS.p.d.p.p.Z.S.i.Z.p.l.{.k . . . E                           ",
"                        ~ R W U N _ _ X.M.Z.u.Z.Z.Z.S.S.G.XXOXOX+X+X+X+X+X+X+X+X+X+X+X+X+X+X+X+X+XM.z.t.0.0.0.t.t.c.( / / c L W E ~                             ",
"                                o X # s h.Z.Z.Z.Z.Z.A.S.Z.S.S.G.S.S.G.G.G.G.S.G.G.G.G.G.G.G.G.G.G.i.7.6.6.6.4.4.7.j.9 # X o                                     ",
"                                . . X p v.l.Z.Z.Z.i.S.D.s.s.p.Z.z.z.z.z.z.z.z.z.z.z.z.z.z.z.z.z.Z.t.5.5.5.5.6.0.r.h.9 X . .                                     ",
"                                . . . i ].H.J..X.XJ.XXL.S.d.a.a.d.d.d.d.d.d.d.d.d.d.d.d.d.d.d.Z.p.Z.s.s.r.i.l.q.A.g.2 X X .                                     ",
"                                A y u M R.-.^.*.^.^.-.&.j.G.a.a.a.a.a.a.a.a.a.a.t.t.a.a.a.t.t.p.Z.:.=.&.&.*.*.*.*.$.v g y y                                     ",
"                                        0 $ 2 2 2 2 4 0 | k.t.8.8.8.8.8.8.8.8.8.8.8.8.8.6.6.3.7.k.( 5 2 2 * * 3 = 8                                             ",
"                                        & . X . . X X % | c.t.6.6.6.6.6.6.6.6.6.5.6.6.5.4.4.4.3.c./ # X X . . . X $                                             ",
"                                        - . . . . . . $  .n.y.e.e.t.e.t.e.t.e.t.e.t.e.t.w.w.7.q.b./ # . . O . . . ,                                             ",
"                                        7 . + + + @ . & o.{. Xv.v.v.v.v.v.v.v.v.v.v.v.v.v.b.b.g.[.' & X . + O @ . q                                             ",
"                                                        C a i a a i i i i i i i i i i i i i i i i V                                                             ",
"                                                        J X X X X . . . . . . . . . . . . . . X X U                                                             ",
"                                                        G . X . . . . . . . . . . . . . . . . . X T                                                             ",
"                                                        G . . . . . . . . . . . . . . . . . . . . E                                                             ",
"                                                          ! ! ! ! ! ! ! ! ! !                 ! !                                                               ",
"                                                                                                                                                                ",
"                                                                                                                                                                "
};
