/* XPM */
static char *_48a5f6b7f4e408fb41311909f3eb9e9qfSw1rdZ8BVQupvr[] = {
/* columns rows colors chars-per-pixel */
"80 80 218 2 ",
"   c None",
".  c #0C0A07",
"X  c #0E0D0B",
"o  c #120E0D",
"O  c #140C09",
"+  c #0E110E",
"@  c #12100E",
"#  c #1B130E",
"$  c #1D1B0E",
"%  c #0F0F10",
"&  c #120F10",
"*  c #0E1313",
"=  c #0C1B16",
"-  c #0E1619",
";  c #0C1B1B",
":  c #071A17",
">  c #121211",
",  c #1A1512",
"<  c #1D1915",
"1  c #101619",
"2  c #111B1B",
"3  c #1C1B1A",
"4  c #171818",
"5  c #221C14",
"6  c #2C1D15",
"7  c #231E1A",
"8  c #261A17",
"9  c #311F13",
"0  c #21170E",
"q  c #0D231D",
"w  c #1C211F",
"e  c #25211C",
"r  c #2A231D",
"t  c #2C281E",
"y  c #2D2415",
"u  c #342316",
"i  c #3A271B",
"p  c #372B18",
"a  c #35321B",
"s  c #0D1F21",
"d  c #121F21",
"f  c #0D2324",
"g  c #0E2C23",
"h  c #122925",
"j  c #0F352A",
"k  c #0C3D2F",
"l  c #0E3C31",
"z  c #252422",
"x  c #2B2522",
"c  c #2D2823",
"v  c #2B2A29",
"b  c #322623",
"n  c #332C24",
"m  c #342D2A",
"M  c #3B2F2B",
"N  c #353027",
"B  c #35312B",
"V  c #3A342B",
"C  c #3C3929",
"Z  c #353432",
"A  c #3A3734",
"S  c #3D3935",
"D  c #3E3D3B",
"F  c #2E3433",
"G  c #432C1C",
"H  c #492F1E",
"J  c #413A2F",
"K  c #463725",
"L  c #5C3D27",
"P  c #573A27",
"I  c #423B32",
"U  c #483A35",
"Y  c #4D372E",
"T  c #124D3C",
"R  c #0F503E",
"E  c #484528",
"W  c #59462B",
"Q  c #464135",
"!  c #42413D",
"~  c #4D453B",
"^  c #4C4639",
"/  c #52453C",
"(  c #524B3D",
")  c #5E5934",
"_  c #645F38",
"`  c #7A5336",
"'  c #6C472F",
"]  c #6A6238",
"[  c #79713E",
"{  c #135844",
"}  c #14644D",
"|  c #166A55",
" . c #15755C",
".. c #157E66",
"X. c #454342",
"o. c #484745",
"O. c #494846",
"+. c #544C42",
"@. c #5A4742",
"#. c #5B5344",
"$. c #5B564A",
"%. c #614E47",
"&. c #644E4A",
"*. c #6A524A",
"=. c #645A4C",
"-. c #66554A",
";. c #635C51",
":. c #695F52",
">. c #7B7546",
",. c #6C6354",
"<. c #6E665B",
"1. c #696355",
"2. c #716656",
"3. c #726957",
"4. c #736B5B",
"5. c #7A6E5D",
"6. c #73675A",
"7. c #7A715F",
"8. c #7A6F61",
"9. c #746D63",
"0. c #7D7462",
"q. c #7D766A",
"w. c #717162",
"e. c #8B5D3C",
"r. c #945F3F",
"t. c #8D623E",
"y. c #8E5F41",
"u. c #946341",
"i. c #867F4A",
"p. c #837664",
"a. c #837966",
"s. c #897D69",
"d. c #857A6B",
"f. c #857B70",
"g. c #19886C",
"h. c #188E72",
"j. c #958E50",
"k. c #999356",
"l. c #948C4C",
"z. c #A49C54",
"x. c #A09755",
"c. c #8C816C",
"v. c #8E8372",
"b. c #928572",
"n. c #958A74",
"m. c #998C76",
"M. c #9A8E7B",
"N. c #978D7C",
"B. c #9D927C",
"V. c #90856E",
"C. c #A2947C",
"Z. c #A5977F",
"A. c #9C9385",
"S. c #A29681",
"D. c #A49A83",
"F. c #AB9E85",
"G. c #AA9D8B",
"H. c #A99E91",
"J. c #ADA28B",
"K. c #ACA186",
"L. c #B2A58C",
"P. c #B6A98E",
"I. c #BAAB8F",
"U. c #B0A387",
"Y. c #ACA393",
"T. c #B6AA92",
"R. c #BAAC91",
"E. c #BFB194",
"W. c #BBB29C",
"Q. c #BDB4A2",
"!. c #C2B395",
"~. c #C3B59A",
"^. c #C6B99D",
"/. c #CABA9D",
"(. c #C0AF94",
"). c #CCBDA2",
"_. c #C4BAA8",
"`. c #D3BFA2",
"'. c #CEC2A3",
"]. c #CAC0AE",
"[. c #D3C4A5",
"{. c #D5C5A9",
"}. c #D5C9A9",
"|. c #DBCCAC",
" X c #DCCEB0",
".X c #D2CAB8",
"XX c #DCD1B7",
"oX c #E3D3B3",
"OX c #ECDCBA",
"+X c #E8D8B8",
"@X c #F1DFBD",
"#X c #E0CDB0",
"$X c #EFE2BC",
"%X c #F4E4BE",
"&X c #F8E4BF",
"*X c #DDD5C4",
"=X c #DED8C6",
"-X c #E5DDCA",
";X c #F1DFC0",
":X c #E9E1CD",
">X c #F6E5C1",
",X c #F8E5C2",
"<X c #F9E9C3",
"1X c #F6E6C9",
"2X c #F6E8CB",
"3X c #F8E9CD",
"4X c #F7E8C4",
"5X c #F1E6D4",
"6X c #F6EAD2",
"7X c #FAECD4",
"8X c #FBEFDB",
"9X c #F7EEDA",
"0X c #FBF1DF",
"qX c #F9F1DE",
"wX c #FBF1DE",
"eX c #FBF2E0",
"rX c #FDF3E1",
"tX c #FCF2E1",
/* pixels */
"                                                                    f ; ; ; ; - ; s f                                                                           ",
"                                                          f ; 1 > > > o o o o o o o > * * - 2 f                                                                 ",
"                                                    f - > + o o o o + X O X X O O O o o O O o + - 2                                                             ",
"                                                ; - > O @ o X O o , e n Z S I S V c 5 , O X X X O o > - f                                                       ",
"                                            s - o o o X O < V ;.v.Y._..X=X:X:X-X*X.X_.H.f.$.n # X o o o + -                                                     ",
"                                          - o o O X > V 3.J.XX5X8XrXrXrXrXrXrXrXrXrXrXrX0X5X.XG.;.x O X o o * ;                                                 ",
"                                      s * O X X @ J b.{.%X,X,X>X>X4X2X2X7X8X8X0X0X0X0X0XeXeXrXrX5X_.q.n o o o @ -                                               ",
"                                    ; @ o o X N v.}.>X&X%X%X%X%X%X%X%X%X%X,X1X6X8X8X0X0X0X0X0XeXrXrX9X].<.< X & o *                                             ",
"                                  - X o o # $.).>X,X>X%X%X%X%X%X%X%X%X%X%X%X%X%X>X2X6X7X0X0X0X0X0XeXrXrX5XY.S o o o *                                           ",
"                                ; o O O 5 3.}.4X,X>X>X%X%X%X%X%X%X%X%X%X%X%X%X%X%X%X%X4X2X8X8XwX0XeXeXeXrXwX.X#.o o o @                                         ",
"                              ; + o X r 0.^.%X>X>X%X>X%X%X%X%X%X%X%X%X%X%X%X%X%X%X%X%X%X%X>X2X7XwXeX0X0X0X8XwX-X<.# X O >                                       ",
"                            q * o X e a.R.|.>X>X>X%X%X%X%X%X%X%X%X%X%X%X%X%X%X%X%X%X%X%X%X%X>X4X7XwX0X0X0XwX0XrX-X4.@ o o *                                     ",
"                            > o X 7 p.P.!.+XOXoX%X%X%X%X%X%X%X%X%X%X%X%X%X%X%X%X%X%X%X%X%X%X%X%X>X2X7X0XrX0X0XeXwX-X;.O o o -                                   ",
"                          - o o , <.T.I.`./.#.I D.%X%X%X%X%X%X%X%X%X%X%X%X%X%X%X%X%X%X%X%X%X%X%X>X%X4X7XrXeXeX0XeXwXXXQ X o o                                   ",
"                        d @ @ o ( J.R.R.#Xp.O . / +X%X%X%X%X%X%X%X%X%X%X%X%X%X%X%X%X%X%X%X%X%X%X%X%X%X+X].*XeX0X0X0XwXW.t o o *                                 ",
"                        - o O c N.R.R.!.OXs.O o 2.@X%X%X%X%X%X%X%X%X%X%X%X%X%X%X%X%X%X%X%X%X%X%X%X%XoX,.5 ( *XrXrXrXrX9Xf.@ & + :                               ",
"                      s X o O ,.R.R.I./.>X|.s.s.}.>X%X%X%X%X%X%X%X%X%X%X%X%X%X%X%X%X%X%X%X%X%X%X%X%X~.7 X # T.wXrXrXrXrXXXI X o *                               ",
"                      - o o n D.R.R.I.{.%X%X>X>X%X%X%X%X%X%X%X%X%X%X%X%X%X%X%X%X%X%X%X%X%X%X%X%X%X%X}.I @ Q {.3XwXeX0X0X0XN.@ o @                               ",
"                      > o @ 1.R.R.R.R.|.>X%X%X%X%X%X%X%X%X%X%X%X%X%X%X%X%X%X%X%X%X%X%X%X%X%X%X%X%X>X>X/.Z.'.%X%X3X8X0XeXeX*XS X @ -                             ",
"                    ; O o e N.R.R.I.R.+X>X%X%X%X%X%X%X%X%X%X%X%X%X%X%X%X%X%X%X%X%X%X%X%X%X%X%X%X%X%X%X>X,X>X%X%X>X7X0XeX0X8Xq.O o >                             ",
"                    - O O Q L.R.D.=.p.+X>X%X%X%X%X%X%X%X%X%X%X%X%X%X%X%X%X%X%X%X%X%X%X%X%X%X%X%X%X%X%X%X%X%X%X%X%X>X6X0XeXrX_.7 o @ -                           ",
"                    * O @ ,.I.T.:.O e R.>X%X%X%X%X%X%X%X%X%X%X%X%X%X%X%X%X%X%X%X%X%X%X%X%X%X%X%X%X%X%X%X%X%X%X%X%X%X4X7XeXrX-XQ X @ *                           ",
"                    > o , c.I.U.I X O b.4X%X%X%X%X%X%X%X%X%X%X%X%X%X%X%X%X%X%X%X%X%X%X%X%X%X%X%X%X%X%X%X%X%X%X%X%X%X%X3XwXeX8X9.X o +                           ",
"                  ; @ o r B.I.F.V X O s.>X%X%X%X%X%X%X%X%X%X%X%X%X%X%X%X%X%X%X%X%X%X%X%X%X%X%X%X%X%X%X%X%X%X%X%X%X%X%X>X7XeXwXA.@ o +                           ",
"                  - o X N F.I.L.Q X # D.,X%X%X%X%X%X%X%X%X%X%X%X%X%X%X%X%X%X%X%X%X%X%X%X%X%X%X%X%X%X%X%X%X%X%X%X%X%X%X%X1X8XrXQ.5 o X                           ",
"                  - o X I L.R.R.0.7 Q }.%X%X%X%X%X%X%X%X%X%X%X%X%X%X%X%X%X%X%X%X%X%X%X%X%X%X%X%X%X%X%X%X%X%X%X%X%X%X%X%X%X3XwX.Xc X o                           ",
"                  - o X Q T.R.R.L.n.D. X%X%X%X%X%X%X%X%X%X%X%X%X%X%X%X%X,X,X,X%X%X%X%X%X%X%X%X%X%X%X%X%X%X%X%X%X%X%X%X%X%X4XwX*XV X o >                         ",
"                  1 o X Q T.R.R.I.R.B.#.U.%X%X%X%X%X%X%X%X%X{.C.V.c.c.m.F.R.[.oX%X>X%X%X%X%X%X%X%X%X%X%X%X%X%X>X>X>X>X%X%X>X7X-XI X o -                         ",
"                  - o X Q P.R.R.I.I.=.. -.OX%X%X%X%X%X%X%XR.U # @ @ @ > , 5 n / 5.K.oX%X%X%X%X%X%X%X%X%X%X%X+X}.).).{.oX%X%X1X:XQ X o -                         ",
"                  1 o X I L.R.R.I.I.+.. ( OX%X%X%X%X%X>XE.V O o o o o o @ o O X O < #.{.>X%X%X%X%X%X%X+XR.0.( V n t n ~ m.OX>X:X+.X o -                         ",
"                  2 @ X N F.R.R.R.R.,.@ 5.%X%X%X%X%X%X|./ O o o o @ @ o X o X X X X o 2.OX%X%X%X%X>XOXa.e o X X X X X . 5 F.>XOX~ X o -                         ",
"                  2 @ X r C.R.I.R.R.F.5.R.%X%X%X%X%X>Xb.# o o , x v x x z 7 4 > o o o 5 P.>X%X%X%X>XR.r X X X X X X o X . ^ oX+XI X o -                         ",
"                    * o < b.R.I.R.I.R.R.!.OX%X%X%X%XoX~ X o @ z Z Z Z Z Z Z Z v 7 o X X ,.OX%X%X%X%X5.o > X @ 4 3 3 > X X , K.oXJ O o 1                         ",
"                    * o o 6.I.R.R.R.R.I.R.oX%X%X%X>XE.7 X o 3 B Z Z Z Z Z Z Z Z m > X X V |.>X%X>XoXQ X & > v Z Z Z z X o O 5.{.m o o -                         ",
"                    - o X ~ L.R.R.R.R.I.I.|.%X%X%X<XD., o + z Z Z Z Z Z Z Z Z Z Z 3 X X e /.,X%X>X'.t X X 3 Z Z Z Z v > X X #.!.r o o                           ",
"                    ; o o x B.R.R.R.R.R.I.[.%X%X%X<XB.@ o @ m ! ! ! ! ! ! D D A A e X o 7 !.>X%X>X~.e X X e Z Z Z A Z , X . ~ D., o +                           ",
"                      * o @ <.R.R.R.R.R.I.).%X%X%X,XC.@ o @ Z O.o.o.o.o.o.O.o.o.o.z o & 7 ~.,X%X>X~.r X X z X.X.X.o.! 3 X X ~ d.o o *                           ",
"                      > o X N D.R.R.R.I.I./.@X%X%X>XP.5 X o v o.o.o.o.o.o.o.o.o.o.e X X n [.>X%X%X[.n X X e o.o.o.O.! 4 X X +.=.O o >                           ",
"                      ; + X @ ,.T.R.R.I.I.~.@X%X%X>X}.V X o 4 D O.o.o.o.o.o.o.O.A > o X +.OX%X%X>XoX^ X X > D O.O.O.Z > @ @ 1.I O @ -                           ",
"                        * o o r b.R.R.R.I.!.OX%X%X%X%X4.O X o z ! O.O.O.O.O.O.! e o o @ b.>X%X%X>X%Xa.O X O z D ! A 3 @ o 7 9.7 o > 2                           ",
"                          > o o V S.R.R.I.E.+X>X%X%X%X^.n X o o 3 v Z Z A A Z e o o X S }.>X%X>X>X,X^.c X O > 4 4 > o o O +.<.o @ >                             ",
"                          - o o o Q D.R.I.R.{.%X%X%X%X%Xn.< o o o o o @ @ > @ @ o O 5 S.>X%XoX).).oX$Xc.# X @ X X o o O t M.V X @ *                             ",
"                            * o o O Q S.R.R.E.}.@X>X>X%XOXs.e X o O o o o o o & X 5 s.OX%XJ.( t t ~ D. X4., X X X O @ n C.c.@ O o ;                             ",
"                              * @ o O V c.P.R.R./.|.OX%X%XOXL.=.V 7 , , # @ , < I B.OX%XD.t X @ X . 5 n.oXB.,.=.:.8.M.).'.V X @ -                               ",
"                                > o X X 7 =.D.T.R.R.!./.[.|.oX|.).G.M.v.v.n.S.P.|.%X,X{.V X 3 Z Z e X n /.,XOXOX@X%X,XOX2.o O @ ;                               ",
"                                  * o o X @ N 4.C.P.R.R.I.R.R.(.!.!.!.!.~.OX>X>X>X>X>Xm.@ 4 D O.O.I 4 o c.>X>X>X>X>X$Xb.< o o *                                 ",
"                                    * X o o o > n =.c.F.I.R.R.R.R.R.R.R.R.oX>X%X%X%X%X4.O 7 ! X.X.X.z X 3.%X%X%X%XOXn.7 o o *                                   ",
"                              2 > *     > & o o X o < V #.0.N.F.P.R.R.I.R.{.>X>X>X%X%Xc.o > 7 7 7 7 > O a.>X>X%X>XE.e O O * :                                   ",
"                              @ o o + +     * + O o X X O @ e V ~ ;.c.P.I./.%X>X;X>X%X[.+., o @ @ O @ e #.c.|.>X>XD.> o o -                                     ",
"                              o 5 E 5 O o *     * * @ @ o o O O o X x B.I.!. Xc.:.G.%X%X^.V O S v.b.v.I o o 0.%X>XB.@ o +           F 3 > -                     ",
"                            * o , _ >.W 5 O +       * @ @ o o o o X @ 0.R.R.v., X n '.>XB.# O r ^.<XoXI . X #.OX<Xv.o @ *         w > O o *                     ",
"                          * o o O @ a ] >.K @ * - * @ @ o o X o @ o O 1.R.R.,.o o 4 T.4Xc.O O , J.4XoXI X X #.OX}.#.O o >     1.< X < ( S X -                   ",
"                          - O C E $ X @ a E @ @ + @ @ @ @ 4 4 @ @ o X I K.R.,.o o < P.<Xc.O O , Y.<X XJ X X V <.V @ o O z 9.a.4.7 O #.P.3.o -                   ",
"                          - X C k.>.E < O @ @ @ @ @ @ @ M @.@.b o o o , ( 0.( o o , m.'.5.O o , 8.N.5.e X o @ X X o o @ +.d.q.  w X ~ I.s., *                   ",
"                          + X $ i.z.x.>.y o o @ @ @ O b &.*.*.~ @ o o o O @ > o o o 7 x 7 o o @ > @ O o o o o o o O , I w.        * N F.n.7 *                   ",
"                        2 o o O ] z.z.z.E X o @ @ @ @ M @.&.*./ , o o o o o o & o o o o o o o @ o o o o O O o , r I $.            > e C.B.e >                   ",
"                        - X @ K l.z.z.j.a X o @ @ @ o @ 5 7 m m @ o @ o o @ > o o o o o o o o o o o o o < V / =.4.                > 7 C.M.7 >                   ",
"                      * X 5 _ k.z.z.z.[ # X @ @ o o X @ o O O o @ @ o o o > j T j + O o o o e J t O X @ +.p.p.                    % t Z.8., -                   ",
"                      + O t ) [ i.j.j.E o @ @ @ @ # # @ o o X o o o o o o o q | h.{ * o o o < U U @ X O I ;.!                   - o #.C.V X -                   ",
"                        + X O @ 5 p p @ o o @ o 6 ` ` L G 9 # o o o o o o o O q } h.} = o o o # n , o o , > *                 - o n n.#.@ *                     ",
"                            - * + X X O o @ @ o 6 ' ` e.t.e.` H o o o r , o o o * R h. .g o o X O @ & o o X @ ;         ; - - o c c.3., +                       ",
"                                        + o @ o o O , 6 i K P i o o @ I U 8 o o O X l g.g.k + X O @ > @ @ @ @ + -     - o O X 7 s.7.5 X                         ",
"                                        - @ @ o o o o X X o O o o o # J %./ x @ o o X g  .g.T * X o > o o o o o o ; ; o u i @ 5 #.e X *                         ",
"                                        - @ o @ 5 , O X X o o o o o o < 5 7 3 @ @ @ o O = } h.{ = X @ o X r x o O * * o H e.i O o & -                           ",
"                                        * @ O ( R.D.0.#.I n r < o o o O O o o @ @ @ o o o * R h.| q O o X < +., X o X o # ' ` 5 & >                             ",
"                                        > o @ m.,X>X>XOXoX'.~.L.J O X o @ @ @ o o o o X @ o + k g...j X o o v , O o I I o y ` i o                               ",
"                                        * X 5 R.,X%X>X%X%X>X>X>X0.@ + @ @ @ o > x b b e @ X O X h  . .= o o , @ o o =.$.o O 5 # *                               ",
"                                        @ X e !.,X%X%X%X%X%X,X[.Q X @ @ > > o @ m &.*.%.M # X o X = { h o o @ @ o o < , O @ o *                                 ",
"                                        + X , B.>X%X%X%X%X,X@X<.X o o > 3 z 3 o > U *.*.*.U , X o o * 4 o o @ > X o o *                                         ",
"                                        * O O n B. XOX>X%XOXP.t X o o 4 v v v 4 O n *.*.*.*./ 7 o & & o @ o o @ o o X -                                         ",
"                                        ; X O o < J =.<.,.#.c o & o > 3 v v v 3 o r &.&.%.@.@.I < o @ @ @ @ @ @ o o +                                           ",
"                                          - o o o X X o O X X @ @ o > 4 3 3 3 > o , r e 7 < , , @ o @ @ @ @ @ @ o * -                                           ",
"                                            - + o o o & @ o @ @ @ o @ o o X X @ o X X X X X o o @ o > @ @ > > > 1                                               ",
"                                                  * @ o & & o O o o o o o o o o X o o o o O O O O o @ @ o > >                                                   ",
"                                                    > o o 8 u 9 6 0 o o > * * * * o o o # 6 u G 6 o @ >                                                         ",
"                                                    * @ @ L u.r.y.P @ o *         o o @ W e.u.u.K o @ >                                                         ",
"                                                    * o O 6 P L L u @ O >         > o o G L P G 0 o o >                                                         ",
"                                                    - & @ o O o o o @ @ -         * o o o o O O O & > -                                                         ",
"                                                      > @ o o o o o @ *           : + o o o O O o > -                                                           ",
"                                                        * > @ @ @ + *                 + @ @ @ * *                                                               "
};
