/* XPM */
static char *enemy21710969664[] = {
/* columns rows colors chars-per-pixel */
"80 80 238 2 ",
"   c None",
".  c #040201",
"X  c #0B0401",
"o  c #040A03",
"O  c #0C0A03",
"+  c #0B040A",
"@  c #040D0A",
"#  c #0D0C0B",
"$  c #06060A",
"%  c #120602",
"&  c #120B03",
"*  c #190D05",
"=  c #12060A",
"-  c #130D0A",
";  c #190E0B",
":  c #0E120D",
">  c #081307",
",  c #151105",
"<  c #1B1304",
"1  c #14120C",
"2  c #1A130C",
"3  c #1C190B",
"4  c #141804",
"5  c #130C12",
"6  c #190D11",
"7  c #0D1413",
"8  c #071915",
"9  c #141312",
"0  c #1B1512",
"q  c #1C1A15",
"w  c #1D1B1A",
"e  c #191719",
"r  c #0D0E12",
"t  c #231B0D",
"y  c #231708",
"u  c #231C15",
"i  c #221D1A",
"p  c #291E1B",
"a  c #261916",
"s  c #1E221D",
"d  c #2E2414",
"f  c #24211C",
"g  c #2B231C",
"h  c #28261A",
"j  c #342A1D",
"k  c #332617",
"l  c #302C16",
"z  c #271D26",
"x  c #192323",
"c  c #1A322B",
"v  c #252323",
"b  c #2A2522",
"n  c #2C2A26",
"m  c #2C2B2A",
"M  c #282828",
"N  c #322C24",
"B  c #332E2B",
"V  c #382C26",
"C  c #2A332A",
"Z  c #3C3322",
"A  c #33322E",
"S  c #3C352C",
"D  c #3A372B",
"F  c #322E32",
"G  c #353433",
"H  c #3A3533",
"J  c #3C3A35",
"K  c #3D3B3B",
"L  c #37383A",
"P  c #283632",
"I  c #443625",
"U  c #443E2C",
"Y  c #473C2D",
"T  c #443C34",
"R  c #423D3B",
"E  c #483936",
"W  c #423917",
"Q  c #47422D",
"!  c #4C4433",
"~  c #44423D",
"^  c #4A433B",
"/  c #4A4437",
"(  c #564B39",
")  c #564831",
"_  c #62583E",
"`  c #3F3F41",
"'  c #443E42",
"]  c #3D4D4B",
"[  c #444442",
"{  c #4A4443",
"}  c #4B4A43",
"|  c #4B4A4A",
" . c #464747",
".. c #534D45",
"X. c #534D4B",
"o. c #574A46",
"O. c #5C5344",
"+. c #55514D",
"@. c #5B544C",
"#. c #565545",
"$. c #514E51",
"%. c #5B5A55",
"&. c #5D5C5B",
"*. c #565453",
"=. c #4C5251",
"-. c #665A4A",
";. c #625A54",
":. c #6B5E53",
">. c #635857",
",. c #686248",
"<. c #6B645A",
"1. c #686358",
"2. c #756B5B",
"3. c #756B57",
"4. c #7A7458",
"5. c #716A43",
"6. c #595E61",
"7. c #635D61",
"8. c #546C66",
"9. c #656463",
"0. c #6C6B6A",
"q. c #696766",
"w. c #776E68",
"e. c #797468",
"r. c #737273",
"t. c #7A7877",
"y. c #6E7272",
"u. c #83725E",
"i. c #837563",
"p. c #867A69",
"a. c #837D73",
"s. c #867E76",
"d. c #73857C",
"f. c #8B8368",
"g. c #8D8472",
"h. c #8A8579",
"j. c #948B7B",
"k. c #998D76",
"l. c #9B9577",
"z. c #988B6C",
"x. c #A59D79",
"c. c #A7A578",
"v. c #94905F",
"b. c #807C81",
"n. c #748983",
"m. c #8B8B8A",
"M. c #928A83",
"N. c #9D9684",
"B. c #99958B",
"V. c #8D9090",
"C. c #A59B88",
"Z. c #A49D93",
"A. c #ADA28B",
"S. c #ABA285",
"D. c #BBAB8E",
"F. c #B4A68B",
"G. c #ACA393",
"H. c #ABA698",
"J. c #B1A593",
"K. c #B4AA94",
"L. c #BAAD93",
"P. c #B4AA9C",
"I. c #BBAE9A",
"U. c #B1A798",
"Y. c #BCB29D",
"T. c #BDB193",
"R. c #BEB08E",
"E. c #A9A6A3",
"W. c #B3ADA2",
"Q. c #B8AEA3",
"!. c #BAB1A4",
"~. c #BAB3A8",
"^. c #BEBEB7",
"/. c #C1B39C",
"(. c #C5B797",
"). c #C0AC93",
"_. c #C2B6A2",
"`. c #C4BAA5",
"'. c #C7BBAA",
"]. c #C4BCB4",
"[. c #CBC2AE",
"{. c #D5C6AA",
"}. c #CBC5B8",
"|. c #D4CCBA",
" X c #D7CAB4",
".X c #DCD2BC",
"XX c #D7D0B3",
"oX c #ECDDBC",
"OX c #E9D8B6",
"+X c #F3DEBB",
"@X c #F3DDB8",
"#X c #EEE2BD",
"$X c #F5E3BD",
"%X c #F9E3BD",
"&X c #F7E0B6",
"*X c #CBC09D",
"=X c #D4CAC3",
"-X c #DBD6C8",
";X c #CBCAC7",
":X c #E6DBC4",
">X c #EBDDC3",
",X c #EBDECB",
"<X c #E1D9C6",
"1X c #F3DEC2",
"2X c #F3DFC8",
"3X c #E5DED2",
"4X c #E0CEC0",
"5X c #EDE2C3",
"6X c #ECE3CB",
"7X c #E5E1CD",
"8X c #F4E4C3",
"9X c #F9E5C2",
"0X c #F5E9C4",
"qX c #FBE9C4",
"wX c #F3E4CA",
"eX c #FAE6CA",
"rX c #F6EACC",
"tX c #FAEBCC",
"yX c #EDE7D6",
"uX c #F4E6D2",
"iX c #F5EBD5",
"pX c #FBECD3",
"aX c #F4EDDA",
"sX c #FBEEDA",
"dX c #F9E5D1",
"fX c #FDF1D5",
"gX c #F7F1DD",
"hX c #FCF3DC",
"jX c #FFF9DF",
"kX c #FFF3CE",
"lX c #F5EFE1",
"zX c #F6F2E3",
"xX c #FDF5E2",
"cX c #FEFAE4",
"vX c #FFFCEC",
"bX c #F9F4EA",
"nX c #FFFEF1",
"mX c #E9E8E4",
/* pixels */
"                                                                                                                                                                ",
"                                                                                                                                                                ",
"                                                                  q.&.>.q.                                                                                      ",
"                                                    q.K M w : X o X o o o o O 1 # v [ r.                                                                        ",
"                                              9.m q # O O o O > o O O O O O # O 0 1 o O 1 A                                                                     ",
"                                           .9 . - O O O & O 4 s Z Q / / T D h 3 X . X 1 9 $ O e %.                                                              ",
"                                      | - O 1 < . & h ( e.K.|.7XyXiXxXcXxXyX-X|.H.t.~ 0 O X + 1 . f 9.                                                          ",
"                                    e O - & % * -.j..XxXcXjXjXjXjXjXsXgXhXxXxXcXnXnXzX=XB.~ - . - O . m                                                         ",
"                                H - & - % < 2.[.pXpXwXwX5X5X5XwX0XtXiXfXfXfXhXgXgXaXbXvXnXbXW.<.O X - X 1 &.                                                    ",
"                              f X % X * :.|.hXpXwX8X8X2X$X8X$X0X#X5X8X0XrXfXpXhXsXhXxXaXaXvXnXlX~.~ X 0 1 X ~                                                   ",
"                            f X 2 % d C.uXiXwXwX1X$X8X$X8X%X%X+X#X#X5X8X5XrXrXtXhXpXsXhXxXxXxXxXvXyXd.< X w o J                                                 ",
"                          9 . 0 X Z A.iXwX5X1X1X8X$X%X%X$X%X$X@X0X$X$X$X$X#X5X5X>XwXiXhXhXhXsXiXzXbXvXH.h . O O ~                                               ",
"                        q > 2 . ( U.-X-XwX1X8X$X9X9X%X+X%X$X%X%X$X$X%X#X%X0X$X0XwXqXrXrXtXpXfXcXgXgXyXvX^.C . 1 O |                                             ",
"                      A . 0 . ..Y./.oXiXhXwX8X0X+X$X%X+X@X$X9X8X$X$X%X%X%X#X$X0X$X5XoX#XeXfXfXfXgXgXcXgXzX|.D . : O                                             ",
"                    %.. q X J W.G.[.:Xx.z.#X5X0X$X$X+X%X$X8X$X$X$X$X$X#X$X$X0X$X0XqX8X#X8X8X8XwXjXcX7XzXvXbXW.f O O e                                           ",
"                    # 2 . h W.Q.U.:Xu.X % f.tX#X8X$X9X9X$X$X$X$X$X%X$X$X$X$X#X$X$X8X$X8XeX0X8XrX.XyXvXgXaXbXvXB.X 1 X  .                                        ",
"                  R X & < g._.G./.,X) X % i.fX8X8X#X$X$X$X$X%X0X%X$X%X$X$X$X$X$X$XqX+X+X+XeX%Xu.4 ! 7XvXgXcXyXvX1.. - $                                         ",
"                  - < X ( Y.L.L.'.dXK.( -.{.tX8X8X#X$X$X$X$X%X#X+X8X$X$X8X$X$X8XoX+X0XqX8X9X{.* X & U.jXaXgXjXvX}.f - + F                                       ",
"                { . < t j._.K.D.{.wXtXOXtXfXoX8X0X$X$X$X$X$X%X%X9X+X8X%X$X$X$X$X9X+X+XtX1XeXOX) % ! |.gXiXcXcXyXnXs.+ - $                                       ",
"                9 & X @.Q.J.'.S. X8XeX8XpXoXoXeX$X$X$X$X$X$X%X%X%X9X$X$X$X$X$X$X%X9X@X+XeX1XtX XL..XhX5XtXhXhXxXbX<Xi + # |                                     ",
"              0.X - O M.'.I./.).oX$XqX@X$X$X$X$X$X$X%X%X9X1X8X$X+X9X+X%X$X%X@X%XOXqX9X+XeX1XeXeXpXeXeX>X8XtXpXiXxXbXq.+ + w                                     ",
"              K = X I H.Q.J.-.i.8X$X#X#X$X$X$X$X%X9X$X8X+X%X1X0X%X+X9X+X%X$X%X$X$X%X9X$X9X1X1X1X1X9XeX9X+X8XhXjXxXvX!.1 # $                                     ",
"              q + . 7._.U.2.% y (.fXoX$X%X%XqX@X%X+X9X%X%X9X$X$X+X%X%X+X%X%X%X+XtX@X+X9X$X8X0XkX+X+X+X%XeX+XoXtXsXvX7XG # $ $.                                  ",
"              # ; = a.].U.I * % z.tX&X0X&X%X&X%X%X%X+X+X9X+X$X%X%X%X%X%X&X%X%X%X%X%X9X+X%XqX#X$X+X%X%X%X%X9X9XeXhXuXnX@.. : F                                   ",
"              X X f j.Q.I.I % % z.hX+X9X@X9X%X$X%X@XeX9X$X$X$X%XqX%X$X9X%X$X$X%X&XqX&X$X$X#X%X%X%X%X&X@X$X$X0X8XpXiXvXh.o O s                                   ",
"            r.X O q G.~.!.( % * ).2X1XqX$X@X%XqX$XqX+XeXOX0XtX#X$X%X0X$XqX%X$X0X#X&X$X$X%X$X#X$X&X&X%XqX9X+X+X#X5X5XvXY.O : #                                   ",
"            1.X , 3 U.~.Q.g.I -.uXdX>X1X9X%X%X@X1XeXeX8X5XpX5XqX>X8XrX5X#X#X#X&X$X#X%X#X#X$X#X%XqX%X+X$X8X9XeXtX0XrXjX[.2 1 . t.                                ",
"            &.o O f W.U._.'.F./.I.,XeXeX0X+X$X9X1X1XdXuX>XXX.XXX6X6XfXfX6XkXfX#X$X0X0X$X&X$X%X$X$X0XeXwXwXwX2XoX6X6XgX-Xf & $ t.                                ",
"            %.o O j P.H.A.Y./.p.% i.0X5X0X0X#XwX2XxX.X:.j d < l j Z ! 2.C.`.#XhXoX5XwX0X$X0X$X#XpXiXiX6X,XwXiXsXhX,XxX<Xt 1 + w.                                ",
"            9.X o h G.Y.I.K.(.( % ) tX.X0X0X8X8XsX'.E X % % , & X * & X , < _ Y.hX>XoX8X8X$X0XtX|.C.2.T j d Z ! U.iXaX<XN , O 7.                                ",
"            r.O & 3 C.Y.I.T.K.5.% _ tX#XqX0X#XwXdXE X a 6 ; = = O 1 & - 1 X O Z .XfX5X5XwX$XqXL.y O X % , % X X t K.xX3XE X = q.                                ",
"              O 2 O N.Y.A.Y.T.l.Y S.eX$X#X#X5XfXi.* = = a z q b v w e 2 - < * X 3.hX6X8X5XwX>Xl X & 1 - = * ; < . ( aX=Xg + 5 0.                                ",
"              X O O p.I.L.D.).).R.T.#X#X#X0XrX<Xj = 6 5 M R n E H G A A n 1 # O p  XtX#X#XfXj.* < O 1 q i b q & & , J.3Xg - + t.                                ",
"              f & & ..`.L.F.).F.F.R.#X0X#X5XrXT.X - = z R H B A F L G A A s 1 * X x.fX$X0XaX,.. 1 , h A H L b = < X t.;Xq # + b.                                ",
"              ~ O & d I.I.A.).).D.R.{.0X#X#XfXg.X 0 5 F H F H G G G A C G n - ; X p.fX$X#XrXQ & 1 1 C G F H F 0 9 . ;.~.- - +                                   ",
"              0.X & * g._.F.).L.R.F.*X0X#X0XjX4.X - 5 K ' ' | K R [ K J ~ L - ; X 4.tXwX0X5XZ & O 9 ] K L R R q 1 . @.B.X 5 e                                   ",
"                , 1 X ! _./.D.D.R.F.(.0X#X5XjXd.X - 0 ' $.| | [ } } } ~ } ~ 1 1 % u.tXqX0XwXY X O w  . . .|  .q 1 . @.r.. 1 v                                   ",
"                K O , & j.[.J.L.D.S.*X0X5X5XiXS.% < + m $.[ [ | [ ~ ] } } A , & % k.fX8X1XtX-.X 9 w [  .| $.' 0 # X <...X o K                                   ",
"                  1 < X Y J.J.Y.T.F.(.#X0X5X5X.Xd % + u { { { | } [ [ } / f , & t _.pX8X8XpXk.X - : m  .| ~ n & O 0 r.h O O 0.                                  ",
"                  K X < X 2.'.J.T.c.T.#X5X8X5XhX3.X < X i R ~ { } } [ ~ D O X & ( xX2X>XwXsX[.u - X 9 n M z 0 - & n h.X # 9                                     ",
"                    u X , < e.[.K.R.).XXqX$X8XrX.XZ X y ; - O h h v s 4 , 1 , < `.uXxXsXuXsXxXg.X 4 < O 2 , & < O M.+.. 1 # r.                                  ",
"                      # * , 1 2.T.K.c.[.wXwXwXwXxX).d X ; % a = o 4 1 9 1 O O j.cX,XJ.:.( :.`.aX#.O . > O O X X a.E.X = q O w     | v m                         ",
"                      q.. X 0 & 4.K.Y.S.L.:XpX>XpXsX'.O.* * X X O o . . o s h.cXuXa.y X % % < j.zXh.Z Z U Q <.Z.yX^ . i # 5 $     . @ # . e `                   ",
"                        *.. 2 & X Q j.[._.F.L.{.{.:XiX,X'.s.:.:./ } %.9.m.-XzXzXN.* % p E h . O G.vX-X.X7X-XaXvXs.+ 0 X e - X.    z q *.] 9 . . #  .            ",
"                          9.# O 2 X 3 O.C.Y.I.I.I.K.F.`. X}.=X].}.-XmX;XE.^.-XaXY X F o.' >.h . ( lXzXyXxXxXhXW.; X 6 = - 9 >.s.X.0 . 9.E.n.6.` 7 $ . w         ",
"                              M $ O O . y o.g.Z.Y.L.`.J.U.Q.e.J S ~ n # 3 > #.N.g X ' ' ' ' ~ . C ~.}.G.j.p.:.< * a = 6 = ; . . . ; . m V.V.V.V.b.8.G $ 5       ",
"                                | 1 X 9 0 . % j ( i.x.Z.Z.2.a . * X O 9 O O . > * ; a z z z 0 1 - 6 X X % X X * % 6 = a b b b H [ H r r 6.b.r.y.y.6.M $ w       ",
"                                     .O . - & & X % * p t % ; - & 0 # . 1 & < , * * + + 6 + # - a ; a g V Z E E { o.@.' X.X...~ K F r e $.0.&.6.M r . x         ",
"                          q.*.          1.s = 1 2 X 2 & % % ; 0 ; . & 1.`.3.* X % 0 = M ` [  .{ ^ o.O.E @.R E T Z B p a 0 1 7 $ X . 7 e 7.&. .9 . 9 &.          ",
"                        [ $ o . n #.      F + # 5 & < 1 * = a % - = 2.6XvX5XL.3.* & 5 G ' H N I j a k % ; < & % X X X ; 2 . q . L | @ v *.m $ # L               ",
"                        f o V D X X = b m = 5 6 = a * O * k :.a - X 2.hX>XtXxX.XI + 5 e + X O X * & X < 0 O & < * s.I.~.Z.q > O r.V.. e 9 . x                   ",
"                        q O / e.w.O.p X 0 5 O i ~ +.h % * j p.k % X -.hX:XoXeXhX-.X - - i >.w.T . 1 9 B 1 * 3 X Y ,XxXxXgX( . O [   9 . 7 7.                    ",
"                      n O O X & l ,.e.H 5 # 9 ^ ;.1.p % = a u.k * X Y dXwX8XwXpX2.% ; % B >.o.j 1 1 # : . , X < K.sX:X:XuX-.& X G                               ",
"                      f X Q Q < X % y a 5 9 3 } #.;.p % ; d u.I % X j ,XdXwX,XiX2.X ; - % & X X O 9 O 1 O 3 ,.U.pXpXwXpX7XY O X }                               ",
"                      ... Q S.f.5.W & = 5 - X 3 #.%.H - 6 a u.I % * d .XiX:XuXiX-.X - - 1 2 - u - # # 0 O D yXhX:X,X6XsX[.d & , 9.                              ",
"                      h & 4 4.c.c.z.U X # 9 O 4 4 q e - = a u.) % X k 4XhXuXxX|.t X q X 9 m & & # b A 1 O 3 |.aX6XwXwXsXC.O O X q.                              ",
"                      O < X ) x.v.c.Q O 1 o > > > o 5 5 6 6 k k , O < a.}.|.Q.Q X 1 : @ 7 G C # = 0 H - < O 1.aXxXsXsX3XV . w .                                 ",
"                    r.. O U f.z.v.v.l > > s C o o # 7 r = * < * 1 O , 3 < < , X > > . @ 8 8 o 7 1 = J g X & & ( i.a.p.S X w $ L                                 ",
"                    1 & #.B.P.x.c.d.4 > o | d.C > : 5 5 5 5 & O & # , O & 3 , 9 : v P 8 @ @ 8 8 = & b @.& # 1 % & X X . - r x                                   ",
"                    . 9 D Q Q #.,.l o 1 >  .d.h o : s F F M 2 , e w 1 & , & > : o  .n.8.x @ 8 @ e X 0 %.R q . O & & * X e $                                     ",
"                    K : . O . X o o o > # r x @ 4 # f ] ~ ~ ~ R T | X...N & # o @ 8 P 8.n.] 8 8 o : X m E.^.r.X.p = a V O w                                     ",
"                              <.%.q.~ . 7 r $ e @ o u R ~ S D N b b N g 0 1 1 9 8 @ . 8 ] d.8.c @ 9 > . V.bX;Xt.0 X w.t.+ L                                     ",
"                                      6.m 5 $ $ 9 : 2 9 < > O O - O * = X # & 1 > > 8 > > c 8.d.=.@ @ @ [ y.B . X o._.R X t.                                    ",
"                                            r.v # # 4 O , > O 1 & - O 1 2 , 1 1 4 8 @ 8 8 @ 8 c y.L o 7 @ . . v w.;Xt.% a                                       ",
"                                              G $ 1 9 # O 1 0 9 i 0 - - 1 O i { X.+.R i $ # : o x n o 1 o n h.E.].M.B . %.                                      ",
"                                              L : 9 9 m G n s b f q # 1 9 - 0 b @.>.>.X.B 0 1 : . # 1 1 - r.;XZ.%.1 . H                                         ",
"                                               .. r i  .~ f & , 0 - 1 w b s 1 & ' >.>.>.>.{ v # : e $ . 0 &.%.5 X X &.                                          ",
"                                              =.$ : w ~ n # - 0 , # 9 m A m q X V o.>.o.{ ^ m 1 # # 1 9 O O . X [                                               ",
"                                              &.. # q K B 1 * q 0 ; e n v f q 1 6 V k a 6 % & & 1 # # 9 9 m 9.                                                  ",
"                                                . # 9 ; a & & u e ; 1 9 9 # ; ; = 6 = % * * ; - 9 $ n                                                           ",
"                                                i # ; O 2 * % ; O # : # # : 1 - * 6 ; * * 6 y * # #                                                             ",
"                                                  ; & - ; X % % = : 1 : 1 q q 2 * ; % % % * 6 ; 1 $                                                             ",
"                                                  ; . & H o.^ ^ b $ 9 9 V.    A % ; a ;.w.a.;.& # .                                                             ",
"                                                  e 0 ; V @.o.;.b # O m       %.X ; g o.;.^ V 2 w $                                                             ",
"                                                  e X q O O % * - 9 . &.      r.& - ; = X % ; - . s                                                             ",
"                                                    q . = = * = . O e           n . X 0 0 % X . f                                                               ",
"                                                      %.A i 0 g n %.              | b e q v { q.                                                                ",
"                                                                                                                                                                ",
"                                                                                                                                                                ",
"                                                                                                                                                                "
};
