/* XPM */
static char *e13939869b064326d8ddf20b80ce7806IJqONPRKyLyBIK3o[] = {
/* columns rows colors chars-per-pixel */
"80 80 145 2 ",
"   c #8EAD2D",
".  c #90AD2F",
"X  c #8EB12C",
"o  c #91B32E",
"O  c #95B92E",
"+  c #99BB2F",
"@  c #8FAE30",
"#  c #92AE33",
"$  c #8FB330",
"%  c #94B533",
"&  c #98B637",
"*  c #96BA34",
"=  c #9ABD36",
"-  c #97B339",
";  c #99B53A",
":  c #96BA38",
">  c #9BBE3A",
",  c #A0BF3E",
"<  c #97C036",
"1  c #9CC136",
"2  c #9DC13B",
"3  c #9FC83E",
"4  c #A1C43D",
"5  c #A6CB3F",
"6  c #A5C93E",
"7  c #A4C93E",
"8  c #9FBF40",
"9  c #A2BF41",
"0  c #9DC040",
"q  c #9EC141",
"w  c #9FC240",
"e  c #9FC240",
"r  c #A2C340",
"t  c #A0C440",
"y  c #A1C541",
"u  c #A3C441",
"i  c #A2C640",
"p  c #A3C741",
"a  c #A1C442",
"s  c #A2C543",
"d  c #A1C642",
"f  c #A2C642",
"g  c #A3C743",
"h  c #A4C540",
"j  c #A5C641",
"k  c #A4C542",
"l  c #A5C643",
"z  c #A6C742",
"x  c #A3C644",
"c  c #A2C746",
"v  c #A4C745",
"b  c #A6C744",
"n  c #A3C541",
"m  c #A8C746",
"M  c #A3C940",
"N  c #A2C841",
"B  c #A4C840",
"V  c #A5C941",
"C  c #A6C840",
"Z  c #A7C941",
"A  c #A4CA41",
"S  c #A6CB40",
"D  c #A4C842",
"F  c #A5C943",
"G  c #A5CB42",
"H  c #A6CA42",
"J  c #A7CB43",
"K  c #A7CC41",
"L  c #A3C847",
"P  c #A4C844",
"I  c #A4C945",
"U  c #A5C945",
"Y  c #A7C845",
"T  c #A5CB44",
"R  c #A6CA44",
"E  c #A7CB45",
"W  c #A4C946",
"Q  c #A5CA47",
"!  c #A6CA46",
"~  c #A7CB47",
"^  c #A5C943",
"/  c #A8CA42",
"(  c #A8CD42",
")  c #A8C944",
"_  c #AACB46",
"`  c #A8CC44",
"'  c #A9CD45",
"]  c #A8CC46",
"[  c #A9CD47",
"{  c #A9CF46",
"}  c #ABCF47",
"|  c #ADCF47",
" . c #A9CC45",
".. c #A7CA48",
"X. c #A6C94B",
"o. c #A7CA48",
"O. c #A8CB49",
"+. c #A8CC48",
"@. c #A9CD49",
"#. c #AACE48",
"$. c #ABCF49",
"%. c #AACE4A",
"&. c #AACF4B",
"*. c #ABCF4B",
"=. c #AACD4D",
"-. c #ABCE4C",
";. c #AACD4F",
":. c #ABCE4E",
">. c #ACCF4D",
",. c #ACCF4F",
"<. c #ABCD4A",
"1. c #B0CF4E",
"2. c #ABD045",
"3. c #ABD045",
"4. c #ACD048",
"5. c #ADD149",
"6. c #ACD04A",
"7. c #ADD14B",
"8. c #AED24A",
"9. c #AFD34B",
"0. c #ACD04C",
"q. c #ADD14D",
"w. c #AED24C",
"e. c #ADD04E",
"r. c #AED24E",
"t. c #ADD14B",
"y. c #B0D248",
"u. c #B1D54F",
"i. c #B1D34E",
"p. c #AFCF50",
"a. c #ADD050",
"s. c #AFD250",
"d. c #AED151",
"f. c #B0D351",
"g. c #B0D450",
"h. c #B1D551",
"j. c #B1D452",
"k. c #B2D553",
"l. c #B2D553",
"z. c #B5D856",
"x. c #B7D954",
"c. c #B5D858",
"v. c #B5D85A",
"b. c #B5D858",
"n. c #BBDB5A",
/* pixels */
"~ t t ~ h.@.2 ~ @.~ ~ ~ @.@.@.@.7.7.@.~ ~ @.@.~ 0.~ t x t t b x x L ~ ~ ..O.O.O.h.O.t ~ ~ r 4 t t ~ ~ t ~ 0.@.D { ~ 7.{ 4 D 7.{ 7.4 4 4 4 D { D D t t ~ a.p.X.c.",
"t > > 2 ~ 2 X > > > 2 t ~ ~ t t 4 4 2 2 4 D ~ t t > > 2 > > 2 > : > > 2 2 2 w w * > > * * > r z > 2 2 > 2 t D 4 4 2 4 4 2 4 D 4 2 4 D { 4 2 2 2 > > > > w w > p.",
"t 2 t t ~ t > t 2 > > 2 2 2 t t 4 4 2 2 2 4 t 2 2 > > 2 > > 2 > 2 2 2 2 t t x D 7.~ 2 = > 2 = * 2 > > > > 2 4 4 2 > 2 4 2 4 D 4 > 4 { 7.J = * 2 2 2 2 > w > > a.",
"t > 2 t ~ t 2 ~ t 2 > 2 2 2 t t D t 4 4 4 4 2 > 2 > 2 t 2 2 2 2 1 2 2 2 4 4 t 4 7.1 * 4 / 4 = 4 2 2 2 2 2 2 2 t 2 2 2 4 4 D D 4 t t 4 D { 4 = 2 > > 2 > > > > p.",
"~ > 2 2 t t > 2 : : > 2 t 2 2 2 w 2 2 2 2 2 2 > 2 > 2 4 2 2 4 4 > = 1 1 2 1 2 1 = O 1 5 5 1 4 y.> > > 2 2 2 2 2 > 2 > > 2 4 2 2 ~ t 2 2 D 4 = 2 > > > > 2 > > :.",
"@.> w t ~ ~ t t 2 > > 2 2 2 2 2 w 2 > 2 2 2 > > 2 = 2 4 2 4 D t 1 1 2 2 2 1 1 1 1 7 J 5 4 4 4 1 * > > > > > > 2 2 4 2 > 2 2 = = t D t t 4 2 = 2 2 2 2 2 t w > :.",
"t * 2 t 2 ~ t t ~ t 2 2 > > > 2 w > > > 2 2 2 2 2 > 2 4 4 4 D 4 = = > = = = = = = 1 1 = 4 5 4 O 2 t t 2 > 2 2 > 4 ~ 4 > 4 2 2 2 2 t ~ t = = 2 = > > 2 > > > > >.",
"t : e t > 2 2 2 2 > > 2 2 > : * * % % : > 2 2 t t 2 2 D D 4 4 = = > > 1 2 2 2 2 > 2 4 z z 6 6 6 { 7.{ 4 > 2 2 = 2 D 2 = 2 2 = 2 2 2 2 2 * 2 4 = > 2 2 > 2 > w c.",
"~ > t > 2 > 2 ~ : > > 2 2 2 > * * * * * > t D t t 4 4 D ( D 4 = t 2 2 > 2 2 2 > 2 4 t t 4 4 4 z 2 2 > * = 2 2 = > 2 t > * > > 2 > > > 2 2 2 = = > t 2 2 2 2 O.f.",
"~ t ~ % * > 2 2 2 2 2 2 2 2 > > > > > * > 2 2 > 2 2 2 4 J J 5 4 2 2 > > 2 2 2 > > > t x z 4 4 > % * * = 4 { { ~ t 2 4 2 2 4 > > > > * = > 1 2 2 t ~ t 2 2 2 x :.",
"@.~ ..* > > 2 > 2 2 > > > 2 2 t 2 2 2 > > 2 2 2 4 4 4 4 4 4 4 2 * : : : : * * * % * > w z t 4 > 4 2 = 2 t ~ t 2 t 2 2 2 2 > % % % % % % % = 1 2 t 4 4 4 t t x a.",
"~ 2 t > 2 * * > * * * * > 2 t x 4 2 2 1 > 2 4 D D D 4 4 2 2 2 > : * : * % % % % * : > 2 r z b z D 4 = = t ~ D 2 4 2 4 2 > * X % % % % % * = 2 2 2 > 2 4 x t t h.",
"t * 2 * > % X % % % % * > 2 t t D 4 4 4 2 = 2 2 4 4 N t 4 2 2 2 2 2 2 > > : > > > 2 t 4 z z ) ) 7.4 = = 4 D ~ D t 2 t 2 > > * > * * * > 2 2 2 2 4 = 2 2 w 2 > @.",
"~ t ~ * > > > * * * > > > 2 2 4 5 D D D D 2 = = = 2 2 2 2 2 > > 2 2 2 1 2 2 2 2 > 2 4 4 z 4 4 2 7.D 2 = 2 2 2 2 2 > 2 > 2 t > > > > > t t 2 2 2 4 2 D 2 2 2 > 0.",
"@.~ ~ > 2 t t 2 2 2 2 2 2 t t 4 4 4 7 D 5 4 2 2 = = 2 2 > = > * > = > 1 2 2 2 > = = 2 4 D 6 1 * 2 = = = = 2 2 4 * = t > > t 2 > b > > t D > > t 4 4 { 4 2 t 2 h.",
"t * 2 > t 2 > 2 t t t t t t t D 4 2 1 1 1 = = 2 2 2 > 2 2 2 2 > 1 1 1 2 4 4 2 = 2 1 = 4 { 2.5 1 = = 2 2 2 = > 2 O 4 u.D > > 2 t >.2 > ~ D 2 2 { 4 4 6.2 > w > 0.",
"@.: N 4 2 D = 2 t 4 4 4 D D D 2 { 2 O = 4 = * 2 = 2 2 1 2 4 4 2 4 4 D 2 2 D D = 1 1 1 2 2 4 2 > 4 > > > > > = = O / { 2 2 1 1 2 t t t 2 t t 4 4 z 2 2 2 t 2 2 z.",
"~ 2 4 ~ D D 2 1 2 D 4 * * D ~ 2 4 { D = = = = 2 1 2 2 = = 4 D D 4 4 4 4 4 D ~ 2 4 2 > = = > > > > 4 2 = 4 | { 2 * 5 N 1 1 1 > 1 2 t 2 2 t t 2 t t t 4 > 2 2 > 0.",
"t t 2 E J 7 D = 4 { D * * 4 ) z = D D = * 2 2 2 = = 2 2 4 4 4 4 2 2 2 4 4 D ~ 4 t 4 t 2 2 2 2 2 4 * * * = 4 D 3.4 D 4 2 2 2 > 2 w t t 2 t 2 2 2 4 D t > 2 2 > O.",
"t e 4 N 7 N D = D D D 4 2 > 2 z > = = 2 4 2 = 2 2 = 2 2 4 4 2 2 2 = 2 4 4 4 t 2 = = > > > > > > > > D y.( 1 2 2.{ D 4 2 2 1 > 2 > 2 2 > 2 > * > = 2 2 = 2 2 > @.",
"~ 2 E 4 4 { 2 = D D D t > * > > D 2 2 D { 4 = 2 { 4 = = 1 2 2 2 2 1 4 4 2 > > > 2 * * * & * > r * D y.3.D 5 7 4 { 4 2 > * % % * $ % % % * * % % % % * = 2 > > 0.",
"~ : E N 4 { = = 4 ) D > * > > > 4 D { D D 4 2 4 7.4 = 2 4 2 = 2 1 2 4 4 * * > > z > * > > > > , 4 4 4 4 1 7 5 7 4 2 1 > $ X % % % % % o % % o o % O * = t > * >.",
"~ : 2 2 2 4 = = 4 4 4 * > r r > * D { D D 4 4 4 D 2 4 { { 4 = 2 * 2 N 2 % * 4 4 r > - ; ; - # % > 2 D 3.2.5 4 7 4 2 2 1 * * > : > > * % > > * * * * 2 2 t 2 > 0.",
"~ > % = = * 2 2 2 * % > r 2 > > > 2 4 4 D 4 2 4 4 4 4 { { 4 2 D O 1 D 2 % * z z O.> % % - # - & % ( y.4 = 2 7 2 4 2 2 2 > w x > > > * * r z z z > 4 ~ t ~ ~ x f.",
"~ 2 2 2 2 2 = 4 * > > 4 r > > r > 4 D D 4 4 4 4 4 4 4 4 2 = 4 { 7 1 = 2 2 2 z @.b % . - - ; ; % = = 1 1 4 4 1 1 = = 2 2 > > : % -   ; O.<.u 4 r ) 2 t ) @.~ O.z.",
"0.2 2 2 2 D 6 6 ) z * o % * * * > 2 D D D 4 4 4 D 4 2 2 4 2 2 4 { 4 2 2 t 4 t ~ > > u 9 - # - % > 1 1 1 1 1 1 1 2 2 2 2 > > * % & % & > > 4 z z z 4 z 4 2 ~ @.h.",
"7.> 4 4 > D ) z z > X X * - # * % * 2 4 2 = = 1 = = 2 4 2 = 4 { 2.D 4 4 t 4 4 z r ) <., # % > > 2 2 2 2 1 1 2 2 2 2 4 D z > % % - - - # % r <.m 4 > 4 2 2 w t h.",
"{ > D ~ > 4 D 4 4 4 * % * > - % O = = = = = = * * = 2 2 = = 4 7.J 7 4 4 t 4 4 z ) b 2 * % * > > > = = 1 2 4 7 7 4 2 4 { ) > * * # - - # * r m 4 > o > ~ t > > h.",
"~ 2 <.) * = z ) z i.b     ; ; @ > D D = = 4 D 2 D 2 = = 2 2 2 2 4 4 4 4 4 2 4 D 2 = * * > > * * * * * = 2 7 7 4 / 4 6 / z > * > - # - - % & > * * o > ) x > > 0.",
"D 2 ) 4 o % 4 ) > 4 > > ; % # * 4 { { = = D { 4 { 4 2 = = 2 = = 2 2 2 2 2 = 2 2 > = > 2 t > % * = * * 1 t D D 4 6 6 / | ) 4 * * # . @ # # - & * > > t 4 > > 2 @.",
"D 2 4 > o % * > > % * u o.; # > 4 D 4 2 2 4 D 4 4 4 4 2 = = 1 2 = = = 2 2 2 2 > 2 4 2 2 2 1 = 2 > > 2 4 N D D D 2 4 z / D 4 * % # # # # - > r , z r b 2 > 2 t 0.",
"{ 4 4 > > = o o z ) u > u o.r * D 4 4 4 4 4 D { 4 4 2 1 2 2 2 = 2 = = 2 4 D 4 2 > t 2 1 N N 1 > > 2 t t t N D { 4 4 2 = * > > > & > > > > b O.t ) 4 t z w 2 t h.",
"7.2 2 2 2 2 = = = 4 D t z t 4 > t D t 2 2 4 D D t 4 > = 2 4 2 4 4 2 = = 5 1 ( 4 2 4 4 2 4 t 4 > 1 * > J { = % 2 ) 4 > > 2 2 2 > = 1 2 2 2 2 2 2 ~ 2 4 r ) r > f.",
"{ 2 2 2 = 2 = 2 = 2 4 4 4 D D 4 2 4 4 2 2 2 4 4 > 4 2 2 > > 2 D 1 2 = 2 5 4 ( 4 2 D 4 = 2 D D 1 2 1 2 { { 2 * z = = > > 2 2 2 2 8.2.7 1 = = 2 t t t t > r r > <.",
"t = 2 2 > 2 4 D t D D t 4 t t 2 2 2 2 2 2 2 2 2 2 2 > > 4 4 2 4 1 4 1 5 4 5 D 4 = 4 N > > D D 1 * < 2 2 2 * * 4 4 4 4 > > > > * { J 7 2 2 1 2 2 2 2 4 > > > > @.",
"4 * > 2 > 4 t ~ ~ { ~ t 2 2 2 > = = = = * * * * 2 > = > t t 2 2 = 2 1 5 2 4 2 2 * 4 t 2 2 4 4 = 1 2 2 2 2 2 > z * > > > 4 { @.D 1 2 7 7 4 2 > = 2 > > > 4 > > f.",
"@.2 2 2 > 2 > 2 4 t D 4 4 2 2 2 * % O O O O O % * > 2 2 2 > > 4 2 2 = 4 > 4 = 2 2 2 2 2 > = > 1 2 2 2 1 t t z z ) D 4 > 4 { { 4 7 4 4 2 2 = 2 2 > 2 t 2 z z t z.",
"7.2 2 2 2 2 > > > 2 2 4 2 2 2 2 = * * * * * * = = 2 2 2 4 4 2 4 4 4 4 4 2 t 2 2 2 = * * % O * > 1 1 = = 2 t 4 4 / 6 > * 2 ~ { D 4 4 2 2 2 = 2 2 * 4 ~ > r O.) i.",
"~ 2 t t 2 2 2 2 2 2 2 2 2 > > > 2 2 > 2 2 2 2 2 4 2 = > D ~ 4 4 D 2 D 2 t D 2 2 2 > * % % % * > 2 2 2 2 t t t D 0.) 4 = * = = = 2 2 4 4 4 2 2 = = 2 t 2 ~ ~ r 0.",
"~ 2 t t 2 2 > 2 2 2 2 2 2 > > 2 2 = > 2 2 2 > > = 2 2 > 2 2 2 t 4 = t = t t 2 > 2 2 2 > 2 2 2 > > 2 2 2 t 2 2 t 2 > * * * * 2 6 t t D 4 4 2 2 = ~ > 2 @.0.t > k.",
"~ 2 t 2 2 2 * * > > * * * > 2 2 2 > 2 4 2 2 > 2 2 > > 2 2 2 2 t 2 2 2 2 2 2 2 > 4 = 1 > D 2 2 2 1 2 1 = N D = 2 4 = = 4 <.7.) 4 t 4 4 t 4 2 2 = * = 4 2 P P w :.",
"~ 2 2 2 > > * % % % * * > 2 2 2 2 2 2 t D D t t 2 2 > 2 2 > 2 2 > > > > > > > > * > 2 t D ~ 4 = 1 2 2 1 D E = 2 > 2 2 2 2 > > > r t t t 2 2 = 2 2 4 ~ 4 t t > ..",
"~ > 2 2 > 2 = = * = > > 2 2 2 > > = * 2 4 t 4 4 4 2 > 2 2 2 > > 2 2 = * % O O O * t 4 t 2 { 4 = 2 2 2 = 4 7 = 1 = 1 2 2 > * > z r z b z 2 = 1 1 2 7 D 4 t t 2 :.",
"D = 2 2 2 t 2 4 4 t t 2 2 2 2 2 2 > > 2 4 t t t 4 2 > 2 2 2 2 > 2 2 = * % O X X > ~ ~ D 2 4 4 4 D 2 2 = 1 2 1 2 2 1 > 2 4 4 u b > r t 4 2 2 1 1 1 2 4 2 e e 2 0.",
"t = 2 2 2 t 4 4 2 4 t 4 4 4 4 2 2 2 2 2 2 2 4 D 4 2 2 > 2 2 2 = 2 2 2 > > = = = = 4 7.{ { 4 7 4 ( 4 4 2 2 2 2 N t 2 > > > > > > * * > > 4 6 7 2 2 4 2 1 2 > > @.",
"D 2 4 4 4 t 4 2 2 4 D D t t 4 4 > 2 2 > = 2 4 D 2 2 2 > > 2 > = 2 2 2 2 2 2 2 2 2 2 D 4 5 1 D J 5 1 5 5 4 4 2 7 t e 2 > * X   %   % % * 2 D 5 4 4 4 2 1 2 > > :.",
"D 2 4 D 4 D 2 2 D { { D 4 D D D D ~ D 2 2 4 D ~ 2 2 2 > > 2 4 2 t t 4 2 2 2 2 2 4 4 1 * 1 7 ( ( 4 + 4 5 4 4 3 N P t r > * # # - @ % * * 2 D 5 4 1 1 2 1 2 2 > a.",
"t 1 4 4 t D 2 = @.{ ~ 4 2 4 @.0.~ ~ t > > 2 2 2 = 2 2 > 2 t ~ ~ D t 4 2 2 4 t D 4 D 2 = 2 u.3.4 4 + 4 5 2 7 J 6.6.~ 2 > > * - - * > > > 2 6 7 4 4 2 2 1 2 > : :.",
"~ * : 4 ~ N > 2 e 1 > 1 2 1 2 e 2 > 1 1 = 2 t > 4 = > D z * % 4 2 ~ t t <.) r ) D 4 > > 2 2 2 > = 2 = 4 2 ~ t t 4 0.2 > 2 > 2 2 2 2 > 2 2 4 2 = D 2 2 > > > w c.",
"e P @.t > > : 2 2 > > 2 2 > 2 2 2 1 2 2 1 t ~ 2 4 2 4 D z 4 4 z t @.t 2 b r > 4 4 2 > > 2 2 > > = 2 = 4 2 ~ 4 2 > 2 2 = 2 > * 4 4 2 2 2 4 4 2 2 D 2 2 2 w r x b.",
"@.t 2 * % > 1 2 1 1 1 2 2 > > 1 1 1 1 2 2 t D 2 2 t z z z D z 4 2 t > * > > % > * * * * : > 2 2 2 2 * 2 2 D 2 = 2 = t 2 4 4 = { D 4 2 4 4 4 4 4 2 > > > t ~ x a.",
"7.> = N 0.6.1 1 1 1 1 1 1 1 > > 1 > 1 1 1 2 2 2 4 t 4 2 4 z 4 > > > * % * % % % % % o o % > 2 ~ t 2 = > 2 2 2 > 2 > 4 2 2 2 > D ~ 4 2 4 4 2 4 D 2 = > > w b x :.",
"{ 2 4 ~ ~ 4 * 2 2 2 > > 1 1 1 > 2 2 > > 2 2 2 2 t 2 > > 2 4 4 > 2 > * % % % o % % % % % * > 2 D D t t 4 4 2 2 2 2 D 2 4 2 2 D 4 D 2 2 4 4 2 4 D 2 2 2 > 2 t x a.",
"E 4 2 O X * = 2 2 2 > > 2 2 2 > t 4 1 2 t t t ~ t 2 > 2 4 4 4 4 2 > > > > > > * * > > 4 2 2 2 2 D D { D ~ 2 2 > 2 D 2 4 2 2 @.2 t 2 2 2 4 2 2 4 2 > 2 > 2 w x k.",
"D 4 4 2 2 4 = = 2 2 > 2 4 D 2 = t D 2 2 ~ D 4 { 2 2 2 4 t 4 2 2 > = 2 2 4 4 4 > 4 4 4 4 t t 4 2 D 4 t 2 t > 2 > 2 = = 2 = > 4 = 4 2 1 1 2 1 = * * % * > > > w j.",
"7.4 4 D D 2 * 2 2 2 > 2 D { 4 = z D 2 2 ~ t 2 t > 2 4 4 4 4 2 = 2 2 4 t 4 4 4 > D 4 4 4 4 t D t D > > * > * 2 2 { = D D 4 D 2 2 2 2 1 = = = * X % X % > 2 2 w k.",
"t 4 { 0.~ > > > = 2 2 2 2 2 4 4 4 4 4 2 4 D D 4 > > 2 2 2 2 > > = 2 t t z D 4 = 4 ) z = > ~ ~ 2 D @.D > > 2 > = 4 t t 4 2 2 4 t t 2 2 2 2 2 = = > > 2 2 t r w j.",
"@.2 > 4 4 4 2 2 > 2 2 > > 2 2 2 4 4 2 > 2 2 4 2 2 2 2 2 1 2 2 2 2 t D D D ) z 4 z 6 4 4 2 2 4 D > 2 2 > 2 2 > 2 2 2 4 t t 4 2 4 4 2 = = 2 2 2 2 2 > 2 > t t x b.",
"l.t * > > > > > > > > > 2 4 t z 2 4 4 > > 2 2 2 2 2 > > 1 1 1 2 > 2 4 4 z z 4 = / z z 4 > * 2 t 2 2 2 t D 2 = 2 t 2 > 2 2 > 2 4 2 2 = 2 2 2 4 4 2 2 > > 2 w w k.",
">.z 4 > * o % * % o % * > > > 2 * > 4 4 2 2 2 2 2 2 2 2 1 1 1 1 > 4 D D ) D 4 = z | ) 4 * > 2 = 4 ~ ~ { { t 2 2 @.2 > 2 2 = = 2 4 4 4 4 4 4 4 4 t t 2 > > > > a.",
"r > > > % o % * % % % > > > > > 2 4 4 z 4 4 4 4 4 t N t 2 2 1 > 1 2 2 4 4 4 2 = 2 6 4 = = 2 2 * > ~ { D D D t 4 ~ 4 4 { { 2 = > t t 4 4 4 4 4 4 ~ D t 2 w > > :.",
"b > > > > > > * > * > > 2 > > 4 ) z z 4 4 4 4 D 4 D E E N 2 2 1 2 = * * * = = = = * * = 2 2 2 2 = D ~ 4 4 D t 2 D 4 4 ~ ~ 4 2 2 t t 2 = = 2 4 D t 4 t 2 r 2 > >.",
"O.r > > > > > > > * * * * * * > ) z 4 z z 4 4 t 2 D @.{ N 2 1 2 5 4 2 1 2 4 4 6 4 = * 2 2 2 = 2 > t D t t 4 2 2 t 4 2 2 2 2 2 4 4 2 2 = = 2 4 2 2 2 2 > 2 > > >.",
"4 > 4 4 > > 4 > > > * > * * > z 4 4 4 D / 6 2 2 > t E ~ 2 = 1 2 4 4 4 4 4 4 4 4 { { 6 2 = 2 2 = = 2 4 D z 2 2 t 2 4 t 4 2 2 > > 2 2 2 2 4 4 2 * 2 2 2 > 2 > > >.",
"z 4 2 4 4 = 4 / > > > > 4 r 9 > = O D ( D 5 * 4 4 = 2 D D 2 2 4 J 1 1 4 4 4 5 5 7 4 1 * % % % % o % > 4 , * > 4 > > t t 2 > > 2 2 4 = * 2 D 4 o = 4 4 4 > 2 > >.",
"6 > = 5 / 4 1 5 x.7.4 * * > r z 2 = 7 7 4 4 O = D = = 2 4 2 D 7.4 4 7 7 1 4 5 7 ( 1 = = 4 > > > % > 4 > = > > > > > > 2 > > > > > 4 4 2 4 6 4 * = z ) z > > * i.",
"6 2 4 D / 6 4 5 4 4 4 4 4 2 > > 2 1 2 2 2 2 = * { 2 = > 2 2 t 7.1 4 { 5 1 4 5 7 2.D 4 2 4 4 2 > * z D = * z z = t 2 > > 2 2 2 > * t / D 4 4 4 = 4 / ) z 4 4 > 0.",
"6 z 6 4 4 5 5 6 | D 4 * % o #   * 2 > = 2 2 2 = D 2 > 2 2 > > 2 = 2 J 5 1 4 5 5 2 ( ( 1 * > 2 = 4 <.) > > ) ) 2 @.t 2 > 2 2 2 > > z | { 6 6 4 4 6 6 4 z b O.> @.",
"/ D 5 6 6 6 6 D u.| 4 * % % % % % > > > > 2 z > 4 > > 4 4 4 > 2 1 = 2 4 2 1 4 5 * 2 4 = * = > > D J 7 2 2 D D 4 E N 2 1 1 1 1 1 > 4 / ) D 6 6 5 6 6 > 4 b O.> @.",
"| 4 4 7.| 4 2 / = = 2 4 r 2 > > > > r 4 r ~ b z 4 2 > 4 4 z 4 2 2 = = 2 = = = 1 7 = = 4 6 2 * = D D 4 2 4 6 D D N 2 2 > > 1 2 2 > > 4 z 6 6 6 6 = 6 4 z 2 4 > >.",
"<.4 4 z ( 6 4 4 > > > > > > > > > * 8 > t >.z b b z 4 4 4 z 4 2 2 > > 2 > = = = D 4 4 5 ( 6 1 * D 5 7 2 2 N D D 4 2 1 > 1 2 2 1 > > > 4 4 = * = * 4 4 4 > > > f.",
") ) 2 * > / z * > > 2 4 r r > > >   * * > <.> t r r 4 4 z D z 2 > 2 2 2 2 4 2 * * D { 2 4 ( 5 * 2 7 7 1 1 4 D 4 D 4 1 1 1 2 2 > 2 > > 4 = O X X * = * > > 4 > >.",
"i.i.* * 4 * = > = = > > > > > r @ > % # r b 2 ) * ) 4 % 4 D 2 > 2 2 2 w 2 > = = 1 2 4 4 6 6 6 4 2 4 7 2 1 2 4 7 4 2 2 1 = 1 2 > > > > > > = * * 4 > r > > > 9 =.",
"f.~ % * z 4 > o % % % % % % * > > % % & * > t > % > %   * * * 2 > > > > > > = 2 4 4 4 4 4 4 4 4 2 4 4 1 = 1 2 2 1 = 1 2 2 2 2 > 4 2 > > 4 4 > * * * > > r > 8 p.",
") 4 * > > * > % % % % % % % * > 4 % % * o % > % o % % * 4 > * 2 w 2 2 2 2 2 N { D D D D 6 4 4 4 1 1 1 1 1 2 2 1 2 = = > > > > % % % * * > 4 > *     o * r > * =.",
"z > 4 z > * 4 > 4 > > > > > > 4 > 4 * % > % X * % % * > r * % > 2 > > 2 2 2 4 D 4 5 D 4 4 2 > 2 2 1 1 1 2 2 2 = { 2 > > = > > * o % % % * 4 > * * > > 4 >.O.> f.",
"O.> > 4 > 4 4 > 4 4 2 4 > > * * > 2 2 > > * * 2 2 2 > > > > > 2 2 > > 2 t 4 2 = 4 4 D D 4 4 2 2 2 2 2 2 2 2 2 * >.t 2 4 > 2 4 > > 4 2 > 4 4 4 2 4 z r > ~ ~ > O.",
"b > > > > > > 4 * * > 4 4 > * * 2 * t D * > @.2 2 2 2 > > 2 2 2 2 2 2 t D 4 2 = 2 2 4 4 4 4 4 > > 1 > 2 4 D t 2 ~ 4 4 r > > > > 4 > > > 4 z z z ) <.O.4 ~ O.r =.",
"O.r r > > 2 * z 4 4 t ) O.~ r 4 ~ 2 D ) = D u.2 2 > > 2 > > > : > > > 2 2 2 2 2 2 = = = > > > > > > 2 4 ~ 7.0.<.b 4 u z > > > r ) > * > 6 z z z z z z > r b r =.",
"n.=.r 4 0.f.4 z i.i.i.l.l.>.O.b u.u.7.D D 0.0.D h.@.x ~ t x ~ ..t P ~ E D D { 7.7.{ t t b ) ) b t t D D @.0.i.>.<.) O.<.b b 1.n.n.<.4 z <.<.) ) O.z ) ) O.=.>.n."
};
