/* XPM */
static char *_da04469eebb4060ef30a25a960b5791cO4fH3HAhPQDPGlb[] = {
/* columns rows colors chars-per-pixel */
"80 80 226 2 ",
"   c None",
".  c #06050C",
"X  c #09070E",
"o  c #050A0D",
"O  c #0B0A0E",
"+  c #070405",
"@  c #0A0611",
"#  c #0C0B14",
"$  c #0D0B1A",
"%  c #060B15",
"&  c #120C15",
"*  c #130E19",
"=  c #09111B",
"-  c #121114",
";  c #13141B",
":  c #1A171B",
">  c #180A06",
",  c #2A171A",
"<  c #36161A",
"1  c #310D11",
"2  c #3A261A",
"3  c #272116",
"4  c #0C0E23",
"5  c #0E0F29",
"6  c #0C1224",
"7  c #0D122A",
"8  c #091820",
"9  c #131523",
"0  c #12162A",
"q  c #13192C",
"w  c #181B28",
"e  c #0F1B3C",
"r  c #0D1835",
"t  c #131731",
"y  c #121C3C",
"u  c #171C34",
"i  c #130E22",
"p  c #251827",
"a  c #371A24",
"s  c #18242F",
"d  c #0C2D33",
"f  c #152232",
"g  c #1A2737",
"h  c #153638",
"j  c #0D282C",
"k  c #292528",
"l  c #392224",
"z  c #222334",
"x  c #25243B",
"c  c #272836",
"v  c #24393D",
"b  c #363539",
"n  c #48171B",
"m  c #571219",
"M  c #510F1C",
"N  c #6B1F12",
"B  c #72171E",
"V  c #562B19",
"C  c #533518",
"Z  c #463015",
"A  c #662618",
"S  c #7B2618",
"D  c #773416",
"F  c #6F2811",
"G  c #451A25",
"H  c #5B1926",
"J  c #5E0F24",
"K  c #4A272C",
"L  c #54272B",
"P  c #473527",
"I  c #473634",
"U  c #573434",
"Y  c #4F3329",
"T  c #643337",
"R  c #663734",
"E  c #654419",
"W  c #52463D",
"Q  c #4D412F",
"!  c #664A25",
"~  c #775536",
"^  c #724E26",
"/  c #0D1D45",
"(  c #0E1E4A",
")  c #121E43",
"_  c #121E49",
"`  c #0B2346",
"'  c #112045",
"]  c #0C3745",
"[  c #143B44",
"{  c #1A3D51",
"}  c #252B41",
"|  c #272A44",
" . c #273746",
".. c #2E3C58",
"X. c #343D5C",
"o. c #383B58",
"O. c #303947",
"+. c #353D61",
"@. c #3A3C63",
"#. c #2E3F60",
"$. c #0F4345",
"%. c #174549",
"&. c #134C58",
"*. c #15575C",
"=. c #27444B",
"-. c #3E464A",
";. c #32415D",
":. c #28495D",
">. c #0C615F",
",. c #0E5C62",
"<. c #0D5763",
"1. c #1A5C67",
"2. c #1E5D73",
"3. c #2C4363",
"4. c #274B69",
"5. c #344261",
"6. c #23566C",
"7. c #0E6E79",
"8. c #186A7A",
"9. c #0C797E",
"0. c #13757A",
"q. c #18787A",
"w. c #126768",
"e. c #226577",
"r. c #20606E",
"t. c #48494A",
"y. c #5C4649",
"u. c #744544",
"i. c #685D56",
"p. c #6E4946",
"a. c #7A645D",
"s. c #575C61",
"d. c #67676C",
"f. c #696D74",
"g. c #766A6E",
"h. c #831F19",
"j. c #903218",
"k. c #A33C1A",
"l. c #A83E25",
"z. c #9C4419",
"x. c #90591D",
"c. c #B84A1A",
"v. c #BB5319",
"b. c #A74C19",
"n. c #9A6018",
"m. c #A26115",
"M. c #9C4B25",
"N. c #995C29",
"B. c #936128",
"V. c #B87228",
"C. c #B1712B",
"Z. c #C5460E",
"A. c #CA4415",
"S. c #C95716",
"D. c #D65716",
"F. c #E65B0F",
"G. c #F05F0D",
"H. c #DA6612",
"J. c #D3761E",
"K. c #CC6E19",
"L. c #FB6A04",
"P. c #F56A0A",
"I. c #FA6B0B",
"U. c #F86808",
"Y. c #F6750A",
"T. c #E66415",
"R. c #F36813",
"E. c #EB7B19",
"W. c #F57611",
"Q. c #E8710F",
"!. c #DA7821",
"~. c #C46C2F",
"^. c #EA7C25",
"/. c #803B43",
"(. c #894D53",
"). c #8A5857",
"_. c #984D5A",
"`. c #97726A",
"'. c #946269",
"]. c #A67972",
"[. c #AC706F",
"{. c #C67877",
"}. c #DE8918",
"|. c #E98719",
" X c #F58416",
".X c #EE850E",
"XX c #BB857E",
"oX c #A8807A",
"OX c #C2847C",
"+X c #067D85",
"@X c #0B7D85",
"#X c #067E89",
"$X c #097B86",
"%X c #147483",
"&X c #127B84",
"*X c #186F81",
"=X c #767984",
"-X c #068184",
";X c #0B8085",
":X c #0A818A",
">X c #068189",
",X c #11808A",
"<X c #7F8289",
"1X c #8E929A",
"2X c #909095",
"3X c #BC8384",
"4X c #A2A5AC",
"5X c #ACB1B8",
"6X c #B1B5BD",
"7X c #B2A1AA",
"8X c #C6948B",
"9X c #CF8D8C",
"0X c #DDA097",
"qX c #EEA59B",
"wX c #EBACA2",
"eX c #F5B5A5",
"rX c #F6B7A7",
"tX c #EFBDB4",
"yX c #E9C0B1",
"uX c #BBBDC3",
"iX c #BEC0C4",
"pX c #D3D4DD",
"aX c #C8CBD3",
"sX c #DCDEE8",
"dX c #DFE3EC",
"fX c #E2E3EB",
/* pixels */
"                                                                                                                                                                ",
"                                                                                                                                                                ",
"                                                                                                                                                                ",
"                                                                          ! ^   Q ~                                                                             ",
"                                                                      > 1 j.V.~ A ~.N.W i.                                                                      ",
"                                                                    n M.v.A.D.J.S.Z.J.B.~ !                                                                     ",
"                                                                    V j.A.R.G.Y.Y.F.R.H.J.x.                                                                    ",
"                                                                2 C V.T.R.I.L.L.L.I.I.L.Y.}.E                                                                   ",
"                                                              C V.|.Y.I.I.L.L.L.L.L.L.L.L. XE                                                                   ",
"                                                            C V.E.R.D.P.L.L.L.L.L.L.L.L.U.W.n.P                                                                 ",
"                                                            ^ ^.S.c.D.P.L.U.I.L.L.I.L.I.Y.Y.}.Z                                                                 ",
"                                                            R D b.K.E.I.U.I.R.P.P.I.L.I. XY.|.C                                                                 ",
"                                                            ! C.!.W.Y.I.I.P.A.T.Y.L.P.U.|..X|.C                                                                 ",
"                                                            P F S.I.P.P.R.Z.v. XW.I.R.T.z.b.K.C                                                                 ",
"                                                              G k.F.R.R.v.N m.E.H.S.c.h.F z.D                                                                   ",
"                                                              < m N H.D.F n.E.D.h.U < 1 S M.V                                                                   ",
"                                                              - I < v.z.Z x.b.S L 7Xu.G G 3                                                                     ",
"                                                                i.~ l.B , L n L [.yXXX'.T I                                                                     ",
"                                                                > Z n J G [.[.3XwXrXrXwXXXi.                                                                    ",
"                                                                    , H M ).rXeXrXrXrXeXrXi.                                                                    ",
"                                                                      < M K OXwXeXeXrXrX].P                                                                     ",
"                                                                      < n < T (.9XqXeXwXa.                                                                      ",
"                                                                        G (.R G T (.9X`.l                                                                       ",
"                                                                      < n /._._.a I U I                                                                         ",
"                                                                      , H H L '.I i.k                                                                           ",
"                                                                    g v a M M U k                                                                               ",
"                                                                    d w.>. .< n ,                                                                               ",
"                                                                  8 1.&X,X9.w.v a a                                                                             ",
"                                                                  d 8.@X@X#X@X0. .< ,                                                                           ",
"                                                                  *.&X$X+X:X%X%X8.w <                                                                           ",
"                                                                # >.;X#X#X$X2.8.&X[ , ,                                                                         ",
"                                                                o ,.:X$X$X8.{ &.%X0.%.%.                                                                        ",
"                                                                o ,.$X+X&Xe.f g e.@X,X*.s                                                                       ",
"                                                                o ,.;X9.&Xe.f c 6.$X#X0.=.                                                                      ",
"                                                                o ,.-X-X#X8.u c 3.%X$X@X&.h                                                                     ",
"                                                                o ,.+X+X$X6.u x 5.8.$X$X0.h                                                                     ",
"                                                                o ,.+X-X%X3.u x 5.2.+X$X&X[                                                                     ",
"                                                                = ,.-X+X8.X.u g X.4.@X:X&X,.=.                                                                  ",
"                                                                [ 7.;X+X8.X.u } +.3.0.+X#X&Xh                                                                   ",
"                                                                %.@X@X$X8.;.f } +.3.2.9.>X;Xd                                                                   ",
"                                                              o &.-X$X:X8...s } 5.+.3.6.%X@Xd                                                                   ",
"                                                              h <.-X#X+Xe.} z o.+.@.@.3.4.1.j                                                                   ",
"                                                              $.$X+X#X9.:.c z o.+.@.@. .} c -                                                                   ",
"                                                              $.;X#X#X0.5.x 9 c } } c a a l ,                                                                   ",
"                                                              $.-X+X+X8.3.x : l l a l K K c h -.                                                                ",
"                                                              $.-X&X%X6.X.x : l l K l p z *.q.d                                                                 ",
"                                                              %.q.r.6.3.@.x 0 c c x | X.4.&X0.d                                                                 ",
"                                                               .%.O.....X.g g X.;.+.X.3.8.;Xq.j                                                                 ",
"                                                                : k c | O.s x X.X.X.+.4.*X+X7.f                                                                 ",
"                                                                P ].).a ; g o.+.X.X.#.2.9.-X] 7 9                                                               ",
"                                                                `.eX{.u.p X.+.X.X.+.4.%X@X$X] 6 %                                                               ",
"                                                              W 8XeXqX(.p X.+.X.X.+.3.8.@X@X] 7 =                                                               ",
"                                                              a.tXeX0XY & q | X.X.o.X.:.1.e.[ t 0 z                                                             ",
"                                                              y.p.8X].- . @ i q 0 9 w w w f r y e =                                                             ",
"                                                                  W k @ o $ @ . o @ O @ $ t e ' e $                                                             ",
"                                                                    O # % # O + O $ # % 7 ' ( _ e 9                                                             ",
"                                                                    + @ # # $ . @ $ $ $ 6 e ( ) ) t z                                                           ",
"                                                                    + @ # $ @ . @ # $ # $ r _ ' ) t ;                                                           ",
"                                                                    + # $ $ X @ $ # # # $ r _ ' ) q ;                                                           ",
"                                                                    O $ $ # X @ $ $ # $ 5 r _ _ e 0 -.                                                          ",
"                                                                    # $ $ # X @ $ $ $ 4 y / ( ( y =                                                             ",
"                                                                  O $ $ $ X X $ $ $ $ 4 ) / / / y $                                                             ",
"                                                                  # @ $ # . O # $ $ $ 4 ) ` ` / t w                                                             ",
"                                                                  O @ $ @ X @ # $ $ $ 6 y ( ` e 7                                                               ",
"                                                                  ; # # @ + @ $ $ $ $ 4 r / ( y 4                                                               ",
"                                                                O @ ; # + . # $ $ $ $ $ 7 e ) u $                                                               ",
"                                                                # # # # X # # $ $ $ $ $ $ 7 0 9 c                                                               ",
"                                                                  ; $ # ; & # # @ $ # @ # # @ -                                                                 ",
"                                                                    # b 4Xf.& @ # # # # X X O                                                                   ",
"                                                                    k 5XdXpXd.# & # # + O k                                                                     ",
"                                                                    k 4XdXfX1Xk b                                                                               ",
"                                                                    ; s.1X6XfX2Xk                                                                               ",
"                                                                    k 5Xf.f.<XuX1Xd.                                                                            ",
"                                                                    k aXdX6X=Xf.f.d.t.                                                                          ",
"                                                                    k aXsXfXdX5X1X2Xt.                                                                          ",
"                                                                    b uXpXpXpXsXfXiX                                                                            ",
"                                                                                                                                                                ",
"                                                                                                                                                                ",
"                                                                                                                                                                ",
"                                                                                                                                                                "
};
