/* XPM */
static char *e112a00013244cb090676abed6de481fnfd9y1q5tfQfoboy[] = {
/* columns rows colors chars-per-pixel */
"80 80 181 2 ",
"   c #AD552E",
".  c #A84E34",
"X  c #A94E3B",
"o  c #AB5234",
"O  c #A7503D",
"+  c #AE533A",
"@  c #B15835",
"#  c #B1573E",
"$  c #B45B3C",
"%  c #B85F3D",
"&  c #B96235",
"*  c #BA623D",
"=  c #C46D3F",
"-  c #C8703E",
";  c #AB4F45",
":  c #AE5342",
">  c #B15643",
",  c #B45A43",
"<  c #B85E45",
"1  c #B3564C",
"2  c #B65B4A",
"3  c #B95D4B",
"4  c #B75B50",
"5  c #B95D51",
"6  c #BC6343",
"7  c #BD634B",
"8  c #BE684F",
"9  c #BF6452",
"0  c #C06746",
"q  c #C36B45",
"w  c #C1674C",
"e  c #C46B4B",
"r  c #C86F4E",
"t  c #C77143",
"y  c #CB7444",
"u  c #CE7845",
"i  c #CB734C",
"p  c #C27C48",
"a  c #CE784B",
"s  c #D07B45",
"d  c #D2774D",
"f  c #D27B4C",
"g  c #C06552",
"h  c #C56C52",
"j  c #C96F54",
"k  c #C16558",
"l  c #C76C59",
"z  c #CD7453",
"x  c #CE7A55",
"c  c #CD735A",
"v  c #CF7958",
"b  c #D07756",
"n  c #D37B53",
"m  c #D0765C",
"M  c #D47B5A",
"N  c #D87F5D",
"B  c #D17662",
"V  c #D57B62",
"C  c #D87F61",
"Z  c #BD8249",
"A  c #BD9655",
"S  c #B89D58",
"D  c #B3AF65",
"F  c #BDAA65",
"G  c #A4B161",
"H  c #B9B369",
"J  c #CE844D",
"K  c #D58046",
"L  c #D6804E",
"P  c #D9834E",
"I  c #C88B52",
"U  c #D68152",
"Y  c #DA8455",
"T  c #DF8955",
"R  c #D6825B",
"E  c #DB845B",
"W  c #DF895A",
"Q  c #C39559",
"!  c #C29F5F",
"~  c #E18C55",
"^  c #E88F57",
"/  c #E38D5B",
"(  c #EB8F5C",
")  c #E69255",
"_  c #E99556",
"`  c #EC9955",
"'  c #E6915C",
"]  c #EA945E",
"[  c #ED995D",
"{  c #F09C5E",
"}  c #DD8462",
"|  c #DE8A63",
" . c #E08765",
".. c #E38C62",
"X. c #E58D6A",
"o. c #E88F6D",
"O. c #E79162",
"+. c #EB9660",
"@. c #EA9761",
"#. c #EB9562",
"$. c #E99662",
"%. c #EA9763",
"&. c #E89760",
"*. c #EC9560",
"=. c #EE9460",
"-. c #EF9561",
";. c #ED9660",
":. c #ED9761",
">. c #EE9761",
",. c #EE9462",
"<. c #EC9663",
"1. c #EE9762",
"2. c #E99265",
"3. c #E89166",
"4. c #EC9164",
"5. c #EE9364",
"6. c #EA9465",
"7. c #E99566",
"8. c #E99767",
"9. c #E89666",
"0. c #EA9667",
"q. c #EC9464",
"w. c #EF9465",
"e. c #EC9665",
"r. c #EC9667",
"t. c #EB9660",
"y. c #E79860",
"u. c #EB9961",
"i. c #ED9861",
"p. c #EE9960",
"a. c #ED9B61",
"s. c #EE9963",
"d. c #EF9962",
"f. c #ED9B63",
"g. c #EF9A63",
"h. c #EE9C60",
"j. c #EA9964",
"k. c #EB9866",
"l. c #EC9965",
"z. c #EE9865",
"x. c #EF9A64",
"c. c #EE9867",
"v. c #EE9B67",
"b. c #EF9D65",
"n. c #EF9E66",
"m. c #ED9963",
"M. c #E59268",
"N. c #E4906B",
"B. c #E99569",
"V. c #EC956A",
"C. c #EC956A",
"Z. c #ED9A68",
"A. c #EC9A6B",
"S. c #EF9969",
"D. c #F19762",
"F. c #F19763",
"G. c #F09662",
"H. c #F09664",
"J. c #F19765",
"K. c #F19667",
"L. c #F29562",
"P. c #F09B65",
"I. c #F29866",
"U. c #F19C65",
"Y. c #F19C66",
"T. c #F19C65",
"R. c #F09569",
"E. c #F19669",
"W. c #F1966A",
"Q. c #F69769",
"!. c #F39869",
"~. c #F59A6D",
"^. c #F29C6B",
"/. c #FC9C6C",
"(. c #E68C71",
"). c #EF9672",
"_. c #F39C72",
"`. c #F5A069",
"'. c #F6A16B",
"]. c #FAA56E",
"[. c #F9A370",
/* pixels */
", , | 9.] b.] ] y.y.y.y.#.y.] ] ] ] ] ] y.y.y.#.#.y.] ] #.#.#.] ] ] y.y.y.y.y.y.S.M.h O 2 c R W y.#.#.#.] ] ] ] ] u.k.| n z z z 3 3 5 4 3 7 z n 3 < + + 6 7 1 k ",
"7 6 | 9.] b.] ] y.y.y.y.#.#.y.] ] ] ] ] y.y.y.y.#.y.y.y.#.#.#.#.] ] y.y.y.y.y.y.9.M.z , 8 M R W y.#.#.#.#.#.] #.' ] y.W R x v M < < 1 , , 7 r n 7 6 $ $ 6 , : 2 ",
"h e M.k.' b.] ] #.#.#.#.#.#.#.#.#.] #.#.#.#.#.#.#.#.#.#.#.#.#.#.] ] ] #.#.#.#.#.#.9.n w v | / ~ #.#.#.#.#.#.#.#._ [ u.] ' W ....2...} b z z b N m b r r z w , 7 ",
"v z B.l.' b.] #.#.#.#.#.#.#.#.#.#.#.#.#.#.#.#.#.#.#.#.#.#.#.#.#.] ] #.#.#.#.#.#.s.l.Y i E 9.#.u.#.#.#.#.#.#.#.#.[ [ h.h.u.] u.S.`.l.O.E n z i z z b i i a 6 + # ",
"M x q.s.' s.] #.>.>.>.>.#.#.#.#.#.#.#.#.#.#.#.#.#.#.#.#.#.#.] ] >.>.#.#.#.#.#.#.P.P.T y Y #.s.P.#.] #.#.#.#.] #._ _ _ ] _ ' ] ] ) ~ ~ T Y n z z n E n n R e % 6 ",
"n d q.>.) s.' q.>.>.>.>.#.#.] #.>.>.>.>.>.>.>.] #.>.] ] >.>.>.>.>.>.>.>.>.>.] >.>.>.L - f ' >.>.] ] >.>.>.>.>.>.>.>.>.] ] ] ] ' s.s.s.s.#./ R b / 2.2.#.q.E a b ",
"d u ] ] ^ D.] 5.>.>.>.>.] ] ] ] ] >.>.>.>.>.] ] >.] ] ] >.>.>.>.5.5.>.>.>.] ] ] 5.K.Y y Y 5.5.q.] ] ] >.>.>.>.>.P.K.K.K.D.D.>.>.l.>.] ] ' W n i Y / ' ' 2.Y a b ",
"a y ' ] ^ D.] 5.5.5.>.>.] ] ] ] ] >.>.>.>.>.] ] >.] ] ] >.>.>.>.] 5.>.>.>.] ] ] R.~./ f / ^.R.R.] ] >.>.>.>.] >.5.2.2.5.5.>.5.' C.9.2.] >.2...E / l.s.U.U.~ n W ",
"M z q.P._ s.O.V.#.#.] ] ] #.#.#.] ] ] #.#.#.] ] ] ] ] ] #.#.#.#.' ] ] ' 2.q.S.9._.V.^.^.] >.P.2.] ] #.#.#.#.] ] #.#.] ] ] ] #.#.] ] ] #.#.#.] ] s.~ ' l.....V.V.",
"w 0 ..] ) s.2.V.#.#.] ] ] #.#.#.] ] ] #.#.#.] #.#.] ] ] #.#.#.#.] >.>.2.#.S.S.2. .| 2.^.] >.P.' ] ] ] #.#.#.] ] #.#.] #.] ] #.#.] ] ] #.#.#.] #.] ~ ] ^.#.9.S.B.",
", 6 ..#.) s.2.B.#.#.] ] #.#.#.#.#.] #.#.#.#.#.#.#.#.#.] #.#.] ] ] s.>.' #.l.9./ z n / l.] s.P.' ] ] #.#.#.#.] ] #.#.#.#.#.#.#.#.#.] #.#.#.#.#.#.U.' >.^.>.#.^.S.",
", 6 ..2.~ s.2.2.#.#.] ] #.#.#.#.#.#.#.#.#.#.#.#.#.#.#.#.#.#.] ] ' ] ] ' #.q.2.W r a / l.] ] P.2.#.#.#.#.#.#.] ] #.#.#.#.#.#.#.#.#.#.#.#.#.#.#.#.^.' ' s.' ] U.s.",
", < } W T l.#.' ] ] #.#.#.] ] ] #.#.#.#.#.#.#.#.#.#.#.#.#.#.#.] ' ] ] 2.q.^.2.W z b ..l.' ' l.#.#.#.#.#.#.#.#.#.] #.#.#.#.] ] ] #.#.#.#.#.#.#.#.~ L T >.] #.l.] ",
"> # z z f l.s.] ] ] #.#.#.] ] ] #.#.#.#.#.#.#.#.#.#.#.#.#.#.] ] ] >.#.>.^.~.2.Y z b ..l.' ' P.>.#.#.#.#.#.#.#.#.] #.#.#.#.#.] ] #.#.#.#.#.#.#.#.n a W ~.~.~.^.' ",
"7 , h 0 i l.U.[ ] ] #.#.#.#.] #.] ] ] ] #.#.#.#.] ] #.#.#.#.#.#.s.s.#.#.l.l.~ f 0 i / P.' ' l.#.] ] #.#.#.#.#.#.] ] #.#.#.#.] ] ] ] ] ] #.#.#.#.R z b ......9./ ",
"B 7 h 6 e l.U._ ] ] #.#.#.#.#.#.] ] ] ] #.#.#.] ] ] ] ] #.#.#.#.>.] ' ' 2.' U = % q W P.] ] s.' ] #.#.#.#.#.#.] ] ] #.#.#.#.#.] ] ] ] ] ] #.#.#.o.z 6 6 * q n U ",
"a i < + r V.`.) ] ' #.~.~.O...A.] ] ] #.9.C.B.2.' l.l.2.' 2.#.2.[ [ ] 2.V.o.N w X 7 o.C.q.~.O.C.] ] ] #.#.#.#.#.#.] #.#.#.#.#.#.S.q.s.~ _ U.' [.(.V w # $ 6 i b ",
"~ Y i 6 r | >._ U.] ' 2.q.9.9.9._ ] s.>.#.#.q.S.' q.P.l.P.^.l.' [ s.] W E b w # : 7 } W ~ l.O.S.] ] #.#.#.#.#.#.] ] #.#.#.#.] #.2.2.U.] s.2.y a z z z b M E W W ",
"P.O.E z z b W #.~.^.#.' ] P.s.' ) _ s.[ ] ] >.l.' q.P.l.P.^.P.' ' ] ~ f t * % o 1 3 v a U ] ' P.#.#.#.#.#.#.#.] ] ] #.#.] ] ] ] 2.2.U.#.l...% $ 6 i W 3.V.C.q.q.",
"P._ / | M i z E n ..^.>.] s.[ ) _ ] ] ] ] ] ] ] 2.l.q./ ~ / #.>.' ' ^ Y f a e 6 2 1 z i Y s.' [ #.#.#.#.#.#.#.] ] ] #.#.#.] ] ] l.2.q.^ C...6 7 a Y O.C.q.#.l.^.",
"{ ) ' 9...z 0 0   f ^.~.#.] >.] P.>.] ] s.P.] ' #.l.#.U u f ^ l.s.s.#.#.C.C./ n > , j z E ^._ [ #.#.#.#.#.#.] ] #.#.#.#.#.#.#.#.S.2.#.~ C.V.z c W ' q.#.' ' >.U.",
"P._ ] S.2.n 0 6   i 3.^.2...2.^.2.O.' 2.#.s.>.] #.l.' L y f ~ P.>.] ' #.^.~.O.n $ $ z z R C.' ] #.#.#.#.#.#.] ] #.#.#.] #.#.#.#.9.O.s.' ^.V.z b / #.S.P.s.] >.s.",
"s.>.#.q.#./ E n b n z b b z b N z n W W T T / #.#.>.' T T ^ #.#.' ' ' ' #.q.' Y f a N z z  .Y / ] ] ] #.#.#.#.] #.#.] ] ] #.#.#.2.2.l.' s.l.U / ..2.q.S.P.l.s.s.",
"' #.>.' 2.l.~._._.n @ o + + o + % e b n i a Y #.2.#.2.#.^.'.^.' ' s.s.] #.l.P.q.~.2.V.z r b n W ] ] ] ] #.#.#.] #.#.] ] ] #.#.#.C.#.s.~ _ P.~ ^.9.2.O.2.9.q.q.>.",
"#.#.#.#.#.#.] ] >.f % # 3 7 6 * * i E E n n W _.#.#.#.#.#.#.#.#.#.#.] ] ] ] ] ] ' #.L u U a i ..C.2.' ' ] ] #.9.] ] ] ] ] ] ] ] s.>.^.V...C._.q.s.#.] ' ] >.s.s.",
"#.#.#.#.#.#.] ] l.f % # g j r 0 a W 9.C.../ 2._.#.] ] ] #.] #.#.#.#.] #.] ] #.#.^.^./ T / n a W ^.^.P.P.s.>.#.q.] ] ] ] ] ] ] ] ) ~ / W a Y ' ^ >.#.] ] ] >.s.s.",
"#.#.#.#.#.#.#.#.U.n * < j M n f T ' ^.^.l.2.2.>.#.#.#.] ] ] ] #.#.#.#.#.#.#.#.#.s.^.2./ 2.T f Y ..2.S.s.] ] ] #.] ] ] ] ] ] ] ] { ] ] T y f 2.s.#.#.] ] ] #.s.s.",
"#.#.] ] #.#.#.#.U.Y 0 w z M W ~ ^ ' >.s.] ] ' ' #.#.#.#.] ] ] #.#.#.#.#.#.#.#.#.' ] ] #.q.O.W W b ..q.s.] ] #.>.] ] #.#.#.#.#.#._ _ ' U = a ' s.] #.>.#.] ] >.s.",
"] ] #.#.#.#.#.#.s.W z z z n ~ >.[ ] ] _ ] ] ] ] #.#.] ] ] ] #.#.#.#.#.#.#.#.#.] s.] s.P.P.^.S.O.z | C.l.#.s.l.q.>.#.#.#.>.>.>.>._ ] q.W i n 9.^.' #.s.s.] ] >.s.",
"] ] #.#.#.#.#.] s.W n z b Y ^ [ s.] ' ' ' ] s.s.#.#.] ] #.#.#.#.] #.#.#.#.#.] ] U.] s.P.] l.S.T h N ../ ' ] #.' >.#.#.#.>.>.>.>.' / ..E i b ..2.' ] l.s.#.] #.s.",
"] #.#.#.] ] ] ] P.T a b W / _ [ ] ] ' ' ' ] ] #.#.#.] ] #.#.#.#.] ] #.#.#.#.] ] [ ) ] s.^ #.#.f , h b U T >.s.~ >.>.#.#.>.>.>.>.f a i 6 + 6 z z ^ ] P.l.#.' #.l.",
"#.#.#.#.] ] ] ] U.Y i n ..l.[ ` 9.q.^.^.S.q.q.q.#.#.] ] #.#.#.#.] ] #.#.#.#.] ] [ ) P.`.] P.l.f + 7 i f ~ `.].P.s.s.s.s.s.s.s.s...R v w , w M b ^ ] P.P.#.' ] l.",
"_ _ _ ' ] P.' P W ....W ~ 2.[ [ ] ] #.#.#.#.] ] ] ] ] ] #.#.#.] ] ] #.#.#.] ] ] U.~ ~ ^.^ ' '.y # 7 7 7 c M v m b N ..X.} | ..o.c l 9 3 1 3 9 k B V } } ....W Y ",
"s.U.U.l.^.^.2.Y i E 3.C.9.>.>.] ] ] #.#.#.] ] ] ] ] ] #.#.#.#.] #.] #.#.#.] ] ] `.] ] `.' #.'.t + 3 3 , 6 < o o 6 q a z a i a n 6 < + o . o + # o $ 6 e i f f f ",
"/ / W n b M M M q E ^._.l.] ] ] ] ] #.#.#.#.] ] #.#.#.#.#.#.] ] #.#.#.#.#.#.] #.>.] ' ^.2.C.~.q ; 5 3 , 7 w 6 w a f Y Y n n Y E z z i r e r i z 0 e a n U Y Y P ",
"z i 6 o o % w c z ..S.l.' ' ] >.] ] #.#.#.#.#.#.#.#.#.#.#.#.] ] #.#.#.#.#.#.#.#.^ ] ' P.C.^._.i ; 2 > + w b W C.' #.l.P.l.q.l.^.C.C.C.C.C.C.C.C.S.^.^.^.P.s.[ ] ",
"M z 6 $ + $ w z z W 2.] ' ' #.9.#.#.#.#.#.#.#.#.#.#.#.#.#.#.#.] #.#.#.#.#.#.#.#.' U.>.~.^.3.V.z : 3 , + 6 a U O.] >.s.s.>.>.s.s.#.#.>.>.l.l.l.>.] ] #.>.s.s.s.s.",
"..| R R b r w w 6 z / s.[ P.q.2.#.#.#.#.#.#.#.#.#.#.#.#.#.#.#.] #.#.#.#.#.#.#.#._ U.' S...z z r 7 m M b W W T / ' ' ' ' ' ' ' ' ' ' ] ] ] ] ] ] ] ] ] ' ] ] >.s.",
"q.O.2.C.M.n q % + i O.P.{ [ #.2.#.#.#.#.#.#.] ] ] ] #.#.#.#.#.#.#.#.#.#.] ] ] ] _ s.~ q.W % % w a ..C.A.'.~.l.U.s.s.#.#.>.>.>.#.P.P.P.P.U.P.U.s.^.U.P.s.s.q.l.l.",
"l.' ' q.9.U = & + z #.P._ ~ O.C.] #.#.#.#.#.#.] ] ] ] #.#.#.#.#.] #.#.#.] ] ] ] [ U.' ~...@ $ z u ~ 2./ ] ' ~ ] l.q.#.#.#.>.>.#.s.>.#.] ] ] ] ] ' ' ' / ' 2.q.S.",
"] ' ] s.P.] T s e W C.q.' ' [ [ ] ] #.#.#.#.#.] s.>.#.] ] #.>.s.#.l.l.] ' s.U.U._ ~ n z z i f ~ ] ] #.#.#.] ] ] #.#.] ] ] ] ] ] ] #.#.#.#.#.] ] y.#.] ] ] >.u.u.",
"#.] ] >.l.#.T L i W B.q.] ] [ _ ] ] #.#.#.#.] ] ] ] ] ] ] ] ] ] 2.>.s.#.2.>.] ^ `.9.W M b M U K ] #.#.#.#.] ] ] #.#.#.#.] ] #.] ] ] #.#.#.#.] ] y.#.] ] ] >.u.u.",
">.] ] #.s.>.' T Y W W ~ ' >.[ _ ] #.#.#.#.#.] ] ] ] ] #.#.] ] ] ' #.>.q.P.^.#.T ..E r 7 z ../ P ] ] #.#.#.#.#.] #.#.#.#.#.#.#.#.] ] #.#.#.#.#.] y.#.] ] 5.>.u.u.",
"s.#.] ] s.s.] ' 2.W f f T ] s.] ] #.#.#.#.] ] ] ] ] #.>.>.#.] ] >.>.#.9.^._.S./ z h < o 6 ..U.] ] ] #.#.#.#.#.#.#.#.#.#.#.#.#.#.] ] ] #.#.#.#.] y.#.#.5.] >.u.u.",
"s.>.] ] >.s.s.>.S.~ L L ~ ] s.] #.#.#.#.#.#.#.#.#.>.>.s.s.>.>.#.P.>./ ~ / 2...E z M z w a O.U.] ] #.#.#.#.#.#.#.#.#.#.#.#.#.#.#.#.#.#.#.#.#.#.#.y.#.] ] ] >.u.k.",
"s.>.#.#.#.>.s.s.#./ ~ #.^.P.#.' #.#.#.#.#.#.#.#.s.>.#.] ] #.>.s.P.] T f f n n i i R ....O.l.P.] #.#.#.#.#.#.#.#.#.#.#.#.#.#.] ] #.#.#.#.#.#.#.#.y.#.] ] ] >.u.u.",
"#.>.#.>.#.#.>.>.' ' 2.P.P.#.2.#.#.#.] #.] ] #.#.>.] ' ' ' ' ] >.>.] ~ f a z z z u U / s.P.l.l.q.#.#.#.#.#.#.] ] ] ] #.#.#.#.] ] #.#.] ] ] ] #.#.y.#.] ] ] >.u.u.",
"] >.s.s.#.] ] #.>.' ' ' ~ T ' ~.#.#.] ] ] ] #.#.#.' ~ ~ ~ ~ ' #.] #.' Y n R } } ~ T ~ ] [ ] 2.l.#.#.#.#.#.#.] ] ] ] #.#.#.] ] ] #.#.] ] ] #.#.#.y.#.] ] ] >.u.u.",
"#.#.#.#.] ] ] ] ] ' l.>.f a / _.q.^.^.>.] [ ] _ _ P.9.n i n / U.) [ s.^.^.Y a | s.s.>.>.#.] ] ] ] ] ] ] #.#.#.#.#.#.#.#.#.#.#.#.] ] ] #.#.#.] ] ] ] ] ] 5.>.u.u.",
"#.#.#.#.#.#.] ] s.' s.#.f a W 3.^ 2.] ' ' _ ] _ ~ ' ..n a U / s._ [ [ l.q.U a W s.s.>.>.#.] ] ] ] ] #.] #.#.#.#.] #.#.#.#.#.#.#.] ] ] ] #.#.#.#.] ] ] ] 5.>.u.k.",
"#.#.#.#.#.#.#.#.[ ' s.#.U f E E ~ #.l.#.>.P.U.P.' q.9.....O.>.s._ s.] ' O.n a W >.>.>.#.#.#.] ] #.#.#.#.#.#.] ] ] ] ] #.] ] #.#.#.] #.#.#.#.#.#.y.#.] ] ] >.u.u.",
"] ] ] ] #.#.#.#.s.' ] #.Y n b r n / #.#.2.>.>.] q.q.C.C.^.^.l.] ' >.' ' 2.Y f W >.>.#.#.#.#.] ] #.#.#.#.#.#.] ] ] ] ] ] ] ] ] ] #.#.#.#.#.#.#.#.y.#.] ] ] >.u.u.",
"] ] #.#.#.#.#.#.[ ' #.2.E b z 6 * a Y E Y U n f E Y W ' l.l.#.^ ' s.#.>.^.O.T O.#.#.#.#.#.#.>.>.#.#.#.#.#.#.] ] #.#.] ] ] #.#.#.#.#.#.#.#.#.#.#.y.#.] ] ] >.u.u.",
"] ] #.#.] #.#.#.[ _ s.2.E b h # 6 j M M b z z a z i a T >.s.#.2.' P.q.>.^.l.' l.] ] #.#.#.s.>.>.#.#.] ] #.#.] #.#.#.] ] #.#.#.#.#.#.#.#.#.#.#.#.y.#.] ] ] >.u.u.",
"#.#.#.#.] ] ] #.[ ] P.2.M v h > 7 l c c h z m M z i a ~ ] s.s.l.#.S./ T ' #.' P.] ] ] #.s.s.s.s.#.] ] ] #.#.#.#.#.#.] ] #.#.#.#.] ] ] ] #.#.#.#.y.#.] ] ] >.s.u.",
"#.#.#.#.] ] ] ] [ ] ^.2.M z l > : 3 7 1 > 3 h c M z f T ' ' ' #.2.#.Y f U T ~ ] ] ] ] #.s.s.s.s.#.] ] ] #.#.#.#.#.#.] ] #.#.#.#.] ] ] #.#.#.] ] y.#.] ] ] >.s.u.",
"] ] ] ] #.#.#.] [ ' ..).(.j > o + # , # # < w z r z n / 9.^._.).[ s.O.b z o.~.~ ] ] #.#.#.#.] ] #.#.] ] #.#.#.#.#.#.#.#.#.#.#.#.] #.#.#.#.#.] ] y.#.] ] ] >.u.u.",
"] ] ] #.#.#.#.] P./ W R z 7 h N e i i i e i b R ....W W W E n z ~ W M e w ..~.' ] ] #.#.#.#.] ] #.#.] ] #.#.#.#.#.#.] ] #.#.#.#.] ] #.#.#.#.] ] y.#.] ] ] >.u.u.",
"#.#.#.#.#.#.] ] 2.W n e % % n _.q.S.~.^.q.q.^._.^.9.~ Y f q * $ n z h , < R ~.' ] ] #.#.#.#.#.] #.#.] ] #.#.#.#.#.] ] ] ] ] #.#.] ] #.#.#.#.#.] y.#.] ] 5.>.u.u.",
"#.#.#.#.#.#.] ] 2.W n i q t T P.] [ P.s.] ] ] s.#.' ^ T U z w < h h 9 : , R ^.' ] ] #.#.#.#.#.#.#.#.] #.#.#.] ] #.#.] ] ] #.#.#.] ] ] #.#.#.#.] y.#.] 5.] >.u.u.",
"#.#.#.#.#.#.#.] S.W n n W O.#.] ) _ _ [ _ _ _ _ ] ] s.s.q...N v < 3 3 : , R ~._ #.#.#.#.#.#.#.#.#.#.#.#.] ] ] ] ] ] ] ] ] ] ] #.#.#.#.#.#.#.#.#.y.#.] ] 5.>.u.k.",
"#.#.#.#.#.#.] ] l.Y y f ..~.U._ s.s.P.P.U.U.U.U.#.#.s.U.l.O.R b # , 3 : , | ~._ #.#.#.#.#.#.#.#.#.#.] #.#.#.] ] #.] ] ] ] ] #.#.#.#.#.#.#.#.#.#.y.#.] ] 5.>.u.u.",
"] ] #.#.#.#.#.#._ ~ L Y ..S.s.' ' ' ' ' ' ' ' ' 2.9.2.] ] / W Y w w 7 > , R ~.] #.#.] ] #.#.#.#.] ] ] ] #.#.#.#.#.#.#.#.#.#.#.#.#.#.] ] ] ] #.#.y.#.] ] ] >.u.u.",
"] ] ] #.#.#.#.#.[ { U.^.S.l.#.' ^.C.9.2.9.C.C.9.V.C.#.] s.s.q.9.E M z < , R ~.] #.] ] ] ] ] #.#.#.] ] ] #.#.#.#.#.#.#.#.#.#.#.#.#.#.] ] ] #.#.#.y.#.] ] ] >.u.u.",
"P.] ' ' #.#.2.9.' #.P.^.^.l.#.#.#.#.#.#.#.#.] ] ] ] #.#.#.] ] ] K U i # < N B.9.' ] ] ] ] ] #.#.#.#.] ] ] ] ] ] #.] ] ] ] ] #.#.#.#.#.#.#.#.#.#.y.#.] ] ] >.>.u.",
"s.[ ] 2.q.9...W f T #.P.l.#.#.l.#.#.#.#.#.#.] ] ] ] #.#.#.#.] ] s.q.W h w b W T s.s.s.s.s.s.s.l.#.#.#.#.] ] #.#.#.#.] ] #.] #.#.] ] #.#.#.#.#.#.y.#.] ] ] >.s.u.",
"] s.s.#.q.S./ f t U #.^.>.' #.l.] #.#.#.#.#.#.#.#.#.#.#.#.#.] ] s.#...N z z n T l.s.s.#.] ] ] ] #.#.#.#.#.#.#.#.#.#.#.#.#.#.#.#.] ] ] #.] ] ] ] y.#.] ] ] >.u.u.",
"] s.l.#.q.^.2.n U ~ q.^.q.2.#.>.] #.#.#.#.#.#.#.#.#.#.#.#.#.#.#.' ~ ....R n n ~ q.>.#.' ' ' ' ' #.#.#.#.#.#.#.#.#.#.#.#.#.#.#.#.] ] #.#.] ] ] ] y.#.] ] ] >.u.u.",
"' s.>.' 2.^.S./ #.#.#.#.q.q.>.#.] ] #.#.#.#.#.#.#.#.#.#.#.#.#.#.^.q.C._.3.n f Y q.q.l.s.s.[ [ [ #.#.#.#.#.#.#.] ] ] #.#.#.#.#.] #.#.#.] #.#.#.#.y.#.] ] ] >.u.u.",
"] ] #.' ' O.9.S.l.' ~ / #.l.l.#.] ] #.#.#.#.#.] #.#.#.#.#.#.#.#.U.#.9.^.C.W U Y / ..2.>.s.[ _ _ ] #.#.#.#.#.] ] ] ] #.#.#.#.#.] #.#.#.] #.#.#.#.y.#.] ] ] >.u.u.",
"s.] >.l./ U W C.#.2.' 2.#.q.>.#.] #.#.#.#.] ] ] #.#.#.#.] ] #.] ' ^ ~ ' q.9...W n Y / 2.s.[ _ ) ] ] #.#.#.#.] ] ] ] #.#.#.#.] ] #.#.] ] #.#.#.#.y.#.] ] ] >.u.u.",
"U.] s.^./ u f O.#.l.^.^.q.#.#.#.] ] #.#.#.] ] ] #.#.#.] ] ] ] ] ^.l.] #.^.~.C./ n Y / q.U.P.[ ` ] ] #.#.#.#.] ] ] #.#.#.#.#.] ] #.#.] ] ] #.#.#.y.#.] 5.5.>.u.u.",
"[ #...} C i f l.] ] ] ] ] ] ] ] #.#.#.#.] #.#.#.] ] #.#.#.#.#.#.9.q.9.2.q.^.#.T a M z w } V.>.) ] ] #.s.l.l.#.' #.#.#.#.#.#.#.] #.#.#.] #.#.#.#.] P.P.D.>.s.s.] ",
"[ #.W b M z n 2.] ] ] ] ] ] ] ] #.#.#.#.] #.#.#.] ] #.#.#.#.] ] #.q.#.2.>.P.#.T q i 6 $ z 3.l.[ s.s.] ] ] #.s.l.#.#.#.#.#.#.#.] #.#.] ] ] ] #.#.s.] ] ] ] >.U.`.",
"' ..b w z M T ^ ] ] ] ] ] ] ] ] #.#.#.#.] ] #.#.] #.#.#.#.] ] ] #.>.] ] s.s.] ~ n n 6 + w | O.>.' ] s.s.' ' >.s.#.#.#.#.#.#.#.#.#.#.] ] ] ] ] #.s.' ( L.L.' ' u.",
"W W e $ i ..' ^ ] ] ] ] ] ] ] ] #.#.#.] ] ] #.#.] ] #.#.#.] ] ] ] _ _ _ [ [ _ ) S...w + < j a f L ~ P.`.U.>.] >.#.#.#.#.#.#.#.#.#.] ] ] ] ] ] #.u.' D././.~ J J ",
"z b 7 @ z 3.q.' #.#.#.#.] >.#.#.] ] ] ] ] #.#.#.#.#.#.#.#.#.#.#.[ _ _ _ [ _ _ _ ~...w o > , $ % a Y O.S.q.2.#.s.] ] #.#.#.#.] #.#.#.] ] ] ] #.#.k.2.5.Q.2.U Z Z ",
"7 l 7 6 n q.l.>.#.#.#.#.>.>.#.#.] ] ] ] ] ] #.#.#.#.#.#.#.#.#.#.>.' ' ] >.' ' ] l./ w : 1 1 > $ 0 e r i a n / #.] ] #.#.#.#.] ] #.#.] ] #.] #.#.k.2./ Y U I A S ",
"> g h r W 9.] s.9.9.9.9.>.q.q.9.#.#.#.#.] ] #.#.#.#.] ] ] ] #.#.>.' 2.>.#.' ' l.P./ w , 5 5 , 3 , , # % 6 a E ..] ] ] #.#.#.] ] #.#.#.#.#.#.#.#.9.9.~ a p Q F D ",
"; 9 j b ..O.' s.9.9.9.9.>.q.9.9.#.#.#.#.] ] ] #.#.#.] ] ] #.#.#.q.O.O.q.9.' 2.S.U./ w : 2 1 : > 1 , , 7 j N ....] ] #.#.#.#.] ] #.#.#.#.#.#.#.#.O.C./ a Z ! H G "
};
